<svg xmlns="http://www.w3.org/2000/svg" width="120" height="120" viewBox="0 0 120 120">
    <g fill="none" fill-rule="evenodd">
        <circle cx="60" cy="60" r="60" fill="#416BE5"/>
        <path fill="#FFC000" d="M56 40.586C42.193 40.586 31 50.62 31 63c0 4.563 1.524 8.803 4.135 12.343-.343 4.09-1.33 9.85-4.135 12.657 0 0 8.571-1.203 14.377-4.71A27.329 27.329 0 0 0 56 85.415c13.807 0 25-10.035 25-22.414 0-12.38-11.193-22.414-25-22.414"/>
        <path fill="#FFF" d="M88 55.414C88 43.035 76.807 33 63 33c-9.97 0-18.575 5.234-22.589 12.804 4.107-2.651 9.142-4.218 14.589-4.218 13.807 0 25 10.035 25 22.414 0 4.735-1.642 9.124-4.437 12.743C81.162 79.448 88 80.414 88 80.414c-2.805-2.805-3.792-8.566-4.135-12.657C86.476 64.217 88 59.976 88 55.414M43 60a3 3 0 1 1 0 6 3 3 0 0 1 0-6"/>
        <path fill="#FFF" d="M56 60a3 3 0 1 1 0 6 3 3 0 0 1 0-6M69 60a3 3 0 1 1 0 6 3 3 0 0 1 0-6"/>
    </g>
</svg>
