<svg xmlns="http://www.w3.org/2000/svg" xmlns:xlink="http://www.w3.org/1999/xlink" width="120" height="120" viewBox="0 0 120 120">
    <defs>
        <path id="a" d="M0 0h4.376v55.344H0z"/>
        <path id="c" d="M0 0h10.56v14.934H0z"/>
    </defs>
    <g fill="none" fill-rule="evenodd">
        <circle cx="60" cy="60" r="60" fill="#416BE5"/>
        <path fill="#FFC000" d="M79.36 31.957H40.64A2.64 2.64 0 0 0 38 34.592v50.073a2.64 2.64 0 0 0 2.64 2.635h38.72A2.64 2.64 0 0 0 82 84.665V34.592a2.64 2.64 0 0 0-2.64-2.635"/>
        <g transform="translate(38 31.878)">
            <mask id="b" fill="#fff">
                <use xlink:href="#a"/>
            </mask>
            <path fill="#ECB100" d="M4.889 0h-1.94C1.323 0 0 1.182 0 2.635v50.073c0 1.454 1.323 2.636 2.95 2.636h1.939V0z" mask="url(#b)"/>
        </g>
        <g transform="translate(66.16 31)">
            <mask id="d" fill="#fff">
                <use xlink:href="#c"/>
            </mask>
            <path fill="#FFF" d="M9.68 0H.88A.88.88 0 0 0 0 .878v13.177a.88.88 0 0 0 1.333.753l3.947-2.364 3.947 2.364a.88.88 0 0 0 1.333-.753V.878A.88.88 0 0 0 9.68 0" mask="url(#d)"/>
        </g>
        <path fill="#FFF" d="M42.889 83.556c-.676 0-1.222-.398-1.222-.89v-47.11c0-.491.546-.89 1.222-.89.675 0 1.222.399 1.222.89v47.11c0 .492-.547.89-1.222.89" opacity=".2"/>
        <path fill="#FFF" d="M56.627 61.99l2.89-9.135c.01-.03.01-.06.018-.09h.126c.008.03.01.06.019.09l2.89 9.135h-5.943zm11.771 6.588h-.063c-.007-.03-.009-.06-.018-.09l-4.981-15.744a1.316 1.316 0 0 0-.218-2.614h-7.04a1.316 1.316 0 1 0-.218 2.614l-4.98 15.745c-.01.03-.011.06-.019.09h-.063a1.319 1.319 0 1 0 0 2.635h3.52a1.316 1.316 0 1 0 .218-2.614l.98-3.096h8.165l.98 3.096a1.316 1.316 0 0 0 .217 2.614h3.52a1.319 1.319 0 1 0 0-2.636z"/>
    </g>
</svg>
