<svg xmlns="http://www.w3.org/2000/svg" xmlns:xlink="http://www.w3.org/1999/xlink" width="159" height="132" viewBox="0 0 159 132">
    <defs>
        <path id="a" d="M0 .003h159.462V128H0z"/>
    </defs>
    <g fill="none" fill-rule="evenodd">
        <g transform="scale(-1 1) rotate(-40 .745 284.054)">
            <mask id="b" fill="#fff">
                <use xlink:href="#a"/>
            </mask>
            <path fill="#416BE5" d="M37.069.01c-3.805.136-6.787 2.337-8.471 3.838C19.125 30.02 9.652 56.194.178 82.365a2.983 2.983 0 0 0 1.037 3.416l56.83 41.831 70.87.388a2.497 2.497 0 0 0 2.353-1.62l26.819-71.305 1.028-3.044c1.026-3.042-.28-6.425-3.14-7.884a27 27 0 0 0-7.263-2.512c-16.415-3.107-25.95 11.695-44.556 13.007-13.321.938-24-5.35-27.017-7.51C57.553 33.112 52.374-.538 37.069.01" mask="url(#b)"/>
        </g>
        <path fill="#C9E5FA" d="M151.347 40.88c2.627 2.373 3.415 5.747 3.702 7.839l-28.758 77.963-68.19-3.262L5.625 79.39 31.742 8.4c3.18-2.777 6.361-5.553 9.54-8.332 20.7 40.324 39.336 50.013 52.925 50.957 22.459 1.562 46.574-19.687 57.14-10.145"/>
        <path fill="#DAEDFF" d="M124.865 113.083l26.275-72.54c-4.585-3.163-15.92-10.06-31.894-10.607-12.548-.43-22.219 3.256-27.195 5.573-3.639-6.473-12.557-20.148-29.67-28.813C54.375 2.644 46.881.855 41.212.031L15.189 72.4c5.521.507 15.175 2.159 25.217 8.322 15.5 9.515 21.883 23.615 23.93 28.784 4.705-2.637 12.685-6.255 23.103-7.05 19.004-1.448 32.979 7.503 37.426 10.626"/>
        <path stroke="#416BE5" stroke-linecap="round" stroke-width="2" d="M137.208 50.108c-4.467-3.039-7.811-3.363-10.058-3.078-2.055.261-2.183.9-4.286 1.001-4.629.22-5.65-2.959-9.495-2.606-2.98.273-3.804 2.299-6.412 1.707-1.46-.332-1.719-1.084-3.281-1.797-1.453-.661-3.693-1.135-7.1-.211M81.414 38.512c-2.27-4.157-4.75-5.744-6.618-6.42-1.706-.618-2.063-.171-3.743-.934-3.7-1.677-3.226-4.565-6.368-5.828-2.433-.977-3.886.274-5.684-1.231-1.006-.841-.907-1.531-1.843-2.712-.868-1.097-2.428-2.36-5.454-3.002M76.369 46.819c-2.687-3.9-5.32-5.222-7.247-5.702-1.762-.438-2.07.044-3.82-.54-3.853-1.287-3.681-4.207-6.936-5.139-2.522-.72-3.838.675-5.782-.636-1.087-.732-1.061-1.43-2.113-2.507-.977-1-2.66-2.097-5.736-2.421M75.894 54.101c-3.193-3.497-5.98-4.449-7.955-4.663-1.805-.194-2.044.325-3.858-.016-3.992-.75-4.219-3.667-7.57-4.146-2.597-.37-3.71 1.19-5.815.156-1.176-.578-1.245-1.272-2.434-2.196-1.105-.86-2.92-1.716-6.013-1.62M71.247 64.207c-3.005-3.661-5.738-4.76-7.699-5.076-1.792-.29-2.06.217-3.852-.22-3.947-.96-4.02-3.884-7.341-4.54-2.574-.506-3.767.994-5.815-.15-1.145-.64-1.176-1.335-2.314-2.321-1.06-.916-2.826-1.87-5.92-1.935M68.476 74.942c-2.678-3.905-5.308-5.234-7.234-5.717-1.76-.443-2.07.039-3.819-.55-3.849-1.294-3.671-4.216-6.924-5.153-2.52-.727-3.839.665-5.78-.651-1.086-.736-1.057-1.432-2.107-2.512-.975-1.003-2.654-2.103-5.731-2.436M62.705 86.481c-2.018-4.285-4.399-6.018-6.223-6.805-1.666-.718-2.048-.292-3.681-1.154-3.592-1.896-2.947-4.75-6.008-6.198-2.37-1.121-3.896.041-5.601-1.568-.953-.9-.814-1.583-1.678-2.818-.801-1.146-2.281-2.502-5.265-3.323M133.224 61.703c-4.466-3.04-7.811-3.362-10.058-3.078-2.055.262-2.183.9-4.287 1-4.628.22-5.648-2.958-9.494-2.605-2.98.273-3.804 2.3-6.413 1.706-1.459-.33-1.718-1.083-3.28-1.795-1.453-.662-3.693-1.135-7.1-.212M130.044 74.165c-4.466-3.04-7.81-3.362-10.058-3.078-2.054.261-2.182.9-4.286 1-4.628.22-5.649-2.958-9.495-2.605-2.98.272-3.804 2.299-6.412 1.706-1.459-.33-1.718-1.083-3.28-1.795-1.454-.663-3.694-1.135-7.1-.212M126.02 86.493c-4.466-3.04-7.81-3.362-10.057-3.078-2.055.261-2.184.9-4.287 1-4.628.22-5.649-2.959-9.495-2.605-2.98.272-3.804 2.298-6.412 1.706-1.46-.331-1.718-1.084-3.281-1.796-1.453-.662-3.692-1.135-7.1-.211M123.041 95.292c-4.466-3.04-7.81-3.362-10.058-3.077-2.054.26-2.183.9-4.286 1-4.627.22-5.649-2.958-9.495-2.606-2.98.273-3.804 2.3-6.412 1.706-1.46-.331-1.718-1.084-3.281-1.796-1.453-.66-3.693-1.134-7.1-.21"/>
    </g>
</svg>
