<svg xmlns="http://www.w3.org/2000/svg" xmlns:xlink="http://www.w3.org/1999/xlink" width="173" height="146" viewBox="0 0 173 146">
    <defs>
        <path id="a" d="M0 .003h174.412V140H0z"/>
    </defs>
    <g fill="none" fill-rule="evenodd">
        <g transform="rotate(-40 88.876 73.769)">
            <mask id="b" fill="#fff">
                <use xlink:href="#a"/>
            </mask>
            <path fill="#416BE5" d="M40.544.01c-4.162.15-7.423 2.558-9.265 4.2C20.918 32.834 10.557 61.461.194 90.085a3.263 3.263 0 0 0 1.135 3.738l62.158 45.752 77.515.423c1.144.007 2.17-.7 2.572-1.77l29.333-77.991 1.125-3.33c1.122-3.327-.305-7.026-3.434-8.623-2.217-1.133-4.882-2.168-7.945-2.747-17.953-3.399-28.382 12.791-48.733 14.226-14.57 1.026-26.25-5.851-29.55-8.213C62.948 36.217 57.284-.589 40.544.011" mask="url(#b)"/>
        </g>
        <path fill="#C9E5FA" d="M7.525 45.407c-2.867 2.59-3.72 6.28-4.03 8.567l31.623 85.362 74.539-3.407 57.26-48.047c-9.574-25.909-19.145-51.816-28.717-77.725-3.484-3.047-6.968-6.092-10.45-9.139-22.534 44.066-42.883 54.623-57.737 55.623-24.548 1.655-50.96-21.648-62.488-11.234"/>
        <path fill="#F0F8FF" d="M36.064 124.82c-9.52-26.418-19.042-52.838-28.56-79.258 5.026-3.471 17.453-11.045 34.938-11.688 13.737-.505 24.312 3.5 29.752 6.02 4.001-7.09 13.801-22.069 32.557-31.592 8.772-4.453 16.98-6.43 23.188-7.347 9.43 26.358 18.857 52.716 28.286 79.074-6.045.57-16.616 2.402-27.624 9.17-16.993 10.448-24.019 25.886-26.274 31.544-5.142-2.87-13.867-6.806-25.268-7.646-20.797-1.531-36.119 8.296-40.995 11.724"/>
        <path stroke="#416BE5" stroke-linecap="round" stroke-width="2" d="M22.631 55.786c4.934-3.376 8.598-3.779 11.052-3.503 2.244.254 2.376.947 4.675 1.025 5.062.169 6.227-3.307 10.43-2.981 3.255.252 4.127 2.446 6.99 1.762 1.602-.384 1.896-1.207 3.617-2.006 1.6-.742 4.058-1.292 7.773-.337M83.664 42.85c2.564-4.442 5.255-6.198 7.262-6.975 1.835-.713 2.197-.257 4.008-1.119 3.989-1.896 3.593-4.905 6.975-6.346 2.619-1.114 4.114.143 6.078-1.502 1.099-.919 1.02-1.639 2.057-2.911.962-1.182 2.664-2.565 5.9-3.35M89.95 51.626c2.878-4.254 5.742-5.666 7.847-6.16 1.925-.453 2.27.085 4.181-.528 4.204-1.35 3.962-4.575 7.516-5.544 2.754-.749 4.222.814 6.331-.597 1.18-.789 1.139-1.559 2.273-2.728 1.054-1.086 2.88-2.267 6.249-2.569M90.177 60.33c3.509-3.812 6.537-4.882 8.675-5.144 1.955-.239 2.204.316 4.17-.08 4.328-.872 4.62-4.013 8.252-4.582 2.813-.442 3.99 1.217 6.282.072 1.281-.642 1.367-1.389 2.667-2.401 1.209-.943 3.184-1.894 6.526-1.841M94.742 71.686c3.306-4.063 6.34-5.259 8.524-5.589 1.996-.302 2.3.27 4.295-.197 4.391-1.025 4.435-4.3 8.133-4.993 2.864-.535 4.215 1.161 6.485-.095 1.27-.701 1.295-1.48 2.553-2.57 1.17-1.013 3.129-2.058 6.58-2.093M97.962 82.64c2.858-4.269 5.722-5.682 7.83-6.173 1.928-.45 2.28.092 4.192-.52 4.206-1.347 3.943-4.59 7.502-5.554 2.757-.748 4.241.827 6.347-.588 1.179-.79 1.13-1.563 2.262-2.737 1.05-1.09 2.872-2.27 6.252-2.568M104.392 95.217c2.078-4.8 4.68-6.671 6.697-7.487 1.843-.745 2.292-.241 4.091-1.152 3.958-2.002 3.103-5.29 6.483-6.803 2.618-1.174 4.387.222 6.234-1.539 1.031-.984.845-1.77 1.761-3.14.85-1.272 2.455-2.753 5.777-3.556M27.631 68.786c4.933-3.377 8.598-3.779 11.052-3.503 2.244.254 2.376.947 4.676 1.025 5.06.169 6.225-3.308 10.428-2.981 3.256.252 4.128 2.446 6.992 1.76 1.6-.382 1.895-1.205 3.616-2.004 1.6-.742 4.058-1.292 7.773-.337M30.631 82.786c4.934-3.376 8.597-3.778 11.052-3.503 2.245.253 2.375.948 4.675 1.025 5.061.17 6.227-3.307 10.43-2.981 3.256.252 4.127 2.445 6.99 1.761 1.602-.382 1.896-1.206 3.617-2.005 1.6-.743 4.06-1.291 7.773-.337M34.631 95.786c4.933-3.377 8.597-3.778 11.052-3.503 2.244.254 2.376.947 4.675 1.025 5.062.169 6.226-3.308 10.43-2.981 3.255.252 4.127 2.446 6.99 1.762 1.602-.384 1.896-1.207 3.617-2.006 1.6-.742 4.058-1.292 7.773-.337M38.631 105.786c4.934-3.376 8.597-3.778 11.053-3.502 2.244.252 2.375.947 4.674 1.024 5.061.17 6.227-3.307 10.43-2.98 3.257.251 4.128 2.445 6.99 1.76 1.602-.383 1.897-1.206 3.618-2.006 1.6-.741 4.058-1.29 7.772-.336"/>
    </g>
</svg>
