<svg xmlns="http://www.w3.org/2000/svg" xmlns:xlink="http://www.w3.org/1999/xlink" width="159" height="157" viewBox="0 0 159 157">
    <defs>
        <path id="a" d="M0 .003h159.462V128H0z"/>
    </defs>
    <g fill="none" fill-rule="evenodd">
        <g transform="rotate(-60 90.816 71.946)">
            <mask id="b" fill="#fff">
                <use xlink:href="#a"/>
            </mask>
            <path fill="#416BE5" d="M37.069.01c-3.805.136-6.787 2.337-8.471 3.838C19.125 30.02 9.652 56.194.178 82.365a2.983 2.983 0 0 0 1.037 3.416l56.83 41.831 70.87.388a2.497 2.497 0 0 0 2.353-1.62l26.819-71.305 1.028-3.044c1.026-3.042-.28-6.425-3.14-7.884a27 27 0 0 0-7.263-2.512c-16.415-3.107-25.95 11.695-44.556 13.007-13.321.938-24-5.35-27.017-7.51C57.553 33.112 52.374-.538 37.069.01" mask="url(#b)"/>
        </g>
        <path fill="#C9E5FA" d="M3.381 79.514c-1.657 3.128-1.244 6.569-.798 8.632l53.688 63.425 62.964-26.387 34.25-59.323c-16.275-19.258-32.547-38.516-48.82-57.775L92.849 3.519c-5.66 44.971-19.857 60.45-32.305 65.985-20.57 9.149-50.498-2.57-57.163 10.01"/>
        <path fill="#F0F8FF" d="M52.961 138.305c-16.5-19.726-33.001-39.452-49.5-59.179 3.226-4.54 11.519-14.898 26.342-20.875 11.644-4.697 21.992-4.54 27.46-4.064 1.206-7.328 4.91-23.229 18.028-37.224 6.135-6.545 12.565-10.79 17.61-13.504l49.207 59.106c-5.015 2.365-13.521 7.219-20.85 16.445-11.31 14.242-12.487 29.675-12.642 35.232-5.323-.868-14.06-1.54-24.12 1.278-18.354 5.138-28.424 18.33-31.535 22.785"/>
        <path stroke="#416BE5" stroke-linecap="round" stroke-width="2" d="M19.824 83.35c3.157-4.384 6.19-5.832 8.398-6.333 2.02-.457 2.36.099 4.37-.525 4.424-1.378 4.297-4.713 8.031-5.697 2.893-.763 4.36.86 6.61-.59 1.257-.81 1.243-1.606 2.468-2.81 1.139-1.118 3.082-2.329 6.6-2.627M68.287 53.37c.711-4.683 2.498-7.022 4.022-8.296 1.393-1.165 1.88-.867 3.199-2.158 2.903-2.841 1.47-5.393 3.99-7.655 1.952-1.75 3.745-1.071 4.92-3.1.658-1.135.33-1.75.805-3.18.44-1.327 1.473-3.048 4.098-4.686M75.869 59.45c1.19-4.583 3.212-6.727 4.859-7.836 1.506-1.015 1.96-.667 3.405-1.815 3.18-2.527 2.02-5.212 4.76-7.2 2.124-1.54 3.837-.678 5.216-2.576.771-1.06.508-1.706 1.128-3.078.576-1.274 1.782-2.88 4.562-4.238M78.805 66.131c1.805-4.378 4.099-6.226 5.88-7.103 1.63-.8 2.033-.393 3.62-1.334 3.496-2.07 2.71-4.89 5.696-6.485 2.314-1.237 3.894-.152 5.518-1.842.907-.946.735-1.622 1.535-2.897.745-1.185 2.157-2.611 5.097-3.579M86.629 74.037c1.571-4.467 3.763-6.434 5.498-7.402 1.585-.885 2.01-.5 3.545-1.524 3.38-2.251 2.448-5.025 5.345-6.777 2.245-1.356 3.88-.355 5.413-2.13.858-.992.649-1.657 1.38-2.973.683-1.223 2.017-2.723 4.902-3.842M92.904 83.178c1.181-4.586 3.198-6.734 4.842-7.847 1.503-1.018 1.958-.671 3.401-1.822 3.174-2.533 2.008-5.218 4.744-7.21 2.12-1.546 3.835-.689 5.208-2.59.77-1.062.504-1.706 1.122-3.08.573-1.277 1.775-2.885 4.552-4.25M102.274 92.047c.43-4.716 2.075-7.16 3.52-8.523 1.32-1.244 1.825-.975 3.064-2.343 2.727-3.01 1.144-5.472 3.526-7.88 1.844-1.864 3.675-1.293 4.727-3.389.587-1.171.224-1.765.613-3.221.36-1.351 1.288-3.131 3.811-4.924M27.533 92.883c3.157-4.384 6.19-5.832 8.398-6.333 2.02-.457 2.36.1 4.371-.526 4.424-1.376 4.296-4.712 8.03-5.696 2.894-.762 4.361.86 6.61-.59 1.258-.81 1.244-1.605 2.469-2.809 1.139-1.118 3.081-2.33 6.6-2.627M34.783 103.505c3.158-4.384 6.19-5.83 8.398-6.332 2.02-.457 2.36.1 4.37-.526 4.424-1.376 4.297-4.712 8.032-5.696 2.893-.763 4.36.86 6.609-.59 1.257-.81 1.243-1.605 2.468-2.809 1.14-1.12 3.083-2.33 6.6-2.627M42.78 113.713c3.158-4.384 6.19-5.83 8.399-6.332 2.02-.457 2.36.099 4.37-.525 4.425-1.378 4.296-4.714 8.031-5.697 2.893-.763 4.36.86 6.61-.59 1.257-.81 1.243-1.606 2.468-2.81 1.14-1.118 3.082-2.329 6.6-2.627M48.59 120.963c3.157-4.384 6.189-5.83 8.399-6.332 2.019-.458 2.359.1 4.369-.526 4.424-1.376 4.297-4.712 8.032-5.696 2.893-.763 4.36.86 6.608-.59 1.258-.81 1.244-1.606 2.47-2.81 1.139-1.118 3.081-2.329 6.598-2.626"/>
    </g>
</svg>
