<svg xmlns="http://www.w3.org/2000/svg" xmlns:xlink="http://www.w3.org/1999/xlink" width="339" height="339" viewBox="0 0 339 339">
    <defs>
        <path id="a" d="M0 1.139h96.352v97.39H0z"/>
    </defs>
    <g fill="none" fill-rule="evenodd">
        <path fill="#FFF" d="M-614-418H786v2057H-614z"/>
        <g transform="rotate(-40 273.483 -56.365)">
            <mask id="b" fill="#fff">
                <use xlink:href="#a"/>
            </mask>
            <path fill="#FFBD1A" d="M85.364 59.514c-4.255 16.75-19.291 29.128-37.187 29.128-10.377 0-19.788-4.171-26.697-10.931A38.883 38.883 0 0 1 9.785 49.833c0-3.341.416-6.585 1.2-9.681 4.26-16.747 19.293-29.127 37.192-29.127 10.378 0 19.788 4.171 26.698 10.933A38.886 38.886 0 0 1 86.57 49.833c0 3.344-.42 6.587-1.207 9.68m.061-40.561C76.591 8.078 63.187 1.139 48.177 1.139c-24.365 0-44.502 18.28-47.722 42.016A49.491 49.491 0 0 0 0 49.833c0 11.723 4.102 22.48 10.928 30.882l2.076-.591-2.076.591c8.836 10.877 22.238 17.815 37.25 17.815 24.361 0 44.498-18.282 47.722-42.016.295-2.184.452-4.415.452-6.681 0-11.72-4.098-22.477-10.927-30.881" mask="url(#b)"/>
        </g>
        <path fill="#FFE337" d="M172.282 129.955c-10.002-.639-20.311 2.44-28.654 9.44-14.39 12.074-18.334 31.918-10.743 47.918a39.3 39.3 0 0 0 5.401 8.398c7.197 8.577 17.301 13.292 27.737 13.958 10.001.639 20.307-2.44 28.65-9.441 14.388-12.073 18.337-31.917 10.74-47.914a39.134 39.134 0 0 0-5.396-8.402c-7.195-8.575-17.302-13.292-27.735-13.957"/>
        <path fill="#DD7F3F" d="M165.344 171.588l6.531-5.48c4.235-3.554 4.818-7.162 1.746-10.823-1.459-1.739-3.176-2.692-5.15-2.856-1.97-.166-3.913.54-5.826 2.117l-6.808 5.713 9.507 11.33zm19.736 7.237l-8.018 6.728 4.044 4.819-7.565 6.347-4.044-4.82-5.118 4.295-5.066-6.038 5.118-4.294-1.586-1.89-5.118 4.295-5.065-6.037 5.118-4.295-14.594-17.392 14.27-11.975c2.757-2.313 5.589-3.856 8.492-4.628 2.905-.77 5.693-.732 8.368.115 2.673.847 4.983 2.43 6.929 4.75 3.002 3.577 4.14 7.436 3.415 11.572-.726 4.136-3.283 8.045-7.669 11.726l-6.581 5.522 1.585 1.89 8.018-6.729 5.067 6.039z"/>
        <path fill="#FFF" d="M146.834 126.556l8.044 89.426a49.192 49.192 0 0 0 5.59 1.43c11.169 2.154 22.974.382 33.175-5.52l-7.865-87.438a48.973 48.973 0 0 0-7.943-2.241c-10.382-2-21.317-.608-31 4.343" opacity=".3"/>
        <path fill="#FF8A54" d="M149.944 197.498c1.854-6.773 3.061-11.324 5.141-10.77 2.08.553 5.033 1.613 6.286 12.944 1.25 11.333 2.572 18.36 2.572 18.36s-8.587-1.462-10.612-2.593c-2.025-1.13-5.31-14.027-5.019-14.537.29-.51 1.632-3.404 1.632-3.404" opacity=".1"/>
    </g>
</svg>
