<?xml version="1.0" encoding="UTF-8"?>
<svg width="65px" height="67px" viewBox="0 0 65 67" version="1.1" xmlns="http://www.w3.org/2000/svg" xmlns:xlink="http://www.w3.org/1999/xlink">
    <!-- Generator: Sketch 52.2 (67145) - http://www.bohemiancoding.com/sketch -->
    <title>Group 12</title>
    <desc>Created with Sketch.</desc>
    <g id="Symbols" stroke="none" stroke-width="1" fill="none" fill-rule="evenodd">
        <g id="Icons-/-Coin" transform="translate(0.000000, -1.000000)">
            <g id="Group-12">
                <g id="Group-3" transform="translate(0.000000, 0.225600)" fill="#FFBD1A">
                    <path d="M57.2027,40.4693 C54.3517,51.8593 44.2757,60.2763 32.2837,60.2763 C25.3297,60.2763 19.0237,57.4403 14.3937,52.8433 C9.5627,48.0463 6.5567,41.3283 6.5567,33.8863 C6.5567,31.6143 6.8357,29.4083 7.3617,27.3033 C10.2157,15.9153 20.2897,7.4973 32.2837,7.4973 C39.2377,7.4973 45.5437,10.3333 50.1737,14.9313 C55.0037,19.7273 58.0117,26.4463 58.0117,33.8863 C58.0117,36.1603 57.7297,38.3653 57.2027,40.4693 M57.2437,12.8873 C51.3237,5.4933 42.3417,0.7743 32.2837,0.7743 C15.9567,0.7743 2.4627,13.2053 0.3047,29.3453 C0.1057,30.8293 -0.0003,32.3443 -0.0003,33.8863 C-0.0003,41.8583 2.7487,49.1723 7.3227,54.8863 L8.7137,54.4843 L7.3227,54.8863 C13.2437,62.2823 22.2247,67.0003 32.2837,67.0003 C48.6087,67.0003 62.1027,54.5683 64.2627,38.4293 C64.4607,36.9443 64.5657,35.4273 64.5657,33.8863 C64.5657,25.9163 61.8197,18.6023 57.2437,12.8873" id="Fill-1"></path>
                </g>
                <path d="M51.0582271,14.7188028 C46.1992241,10.0144317 39.5813249,7.1118 32.2833753,7.1118 C19.6961437,7.1118 9.12387668,15.7245437 6.12871586,27.3770191 C5.57669953,29.5307166 5.2839,31.7877507 5.2839,34.1123116 C5.2839,41.7264763 8.43962831,48.5988687 13.5095729,53.5068435 C18.3685759,58.2112145 24.9854256,61.1118 32.2833753,61.1118 C44.8695574,61.1118 55.4439233,52.5011026 58.4348863,40.847604 C58.9890015,38.6949297 59.2839,36.4389187 59.2839,34.1123116 C59.2839,26.5001931 56.1271222,19.6257544 51.0582271,14.7188028" id="Fill-4" fill="#FFE337"></path>
                <path d="M29.564,33.3736 L35.277,33.3736 C38.982,33.3736 40.835,31.7486 40.835,28.4986 C40.835,26.9556 40.364,25.7086 39.422,24.7606 C38.482,23.8126 37.18,23.3316 35.519,23.3166 L29.564,23.3166 L29.564,33.3736 Z M36.578,45.7696 L29.564,45.7696 L29.564,50.0476 L22.947,50.0476 L22.947,45.7696 L18.47,45.7696 L18.47,40.4096 L22.947,40.4096 L22.947,38.7326 L18.47,38.7326 L18.47,33.3736 L22.947,33.3736 L22.947,17.9346 L35.431,17.9346 C37.842,17.9346 39.96,18.3686 41.783,19.2356 C43.606,20.1036 45.021,21.3426 46.029,22.9526 C47.036,24.5626 47.54,26.3966 47.54,28.4556 C47.54,31.6316 46.462,34.1386 44.308,35.9766 C42.154,37.8136 39.158,38.7326 35.321,38.7326 L29.564,38.7326 L29.564,40.4096 L36.578,40.4096 L36.578,45.7696 Z" id="Fill-6" fill="#DD7F3F"></path>
                <path d="M5.0695,51.9243 C5.7615,53.0333 6.5115,54.0983 7.3225,55.1123 C12.1285,61.1163 18.9515,65.3533 26.7305,66.7373 L60.3555,17.7523 C59.4445,16.1143 58.4035,14.5613 57.2435,13.1133 C52.7755,7.5333 46.5625,3.4793 39.4595,1.8253 L5.0695,51.9243 Z" id="Fill-8" fill="#FFFFFF" opacity="0.3"></path>
                <path d="M10.4986,40.1392 C14.3676,37.4212 16.9476,35.5782 17.7766,36.7762 C18.6056,37.9732 19.6656,39.8162 15.4276,46.2662 C11.1886,52.7162 8.8396,56.9542 8.8396,56.9542 C8.8396,56.9542 5.0616,52.4392 4.5096,50.9652 C3.9566,49.4912 7.8256,41.3372 8.1946,41.1992 C8.5626,41.0602 10.4986,40.1392 10.4986,40.1392" id="Fill-10" fill="#FF8A54" opacity="0.1"></path>
            </g>
        </g>
    </g>
</svg>