<svg xmlns="http://www.w3.org/2000/svg" xmlns:xlink="http://www.w3.org/1999/xlink" width="243" height="312" viewBox="0 0 243 312">
    <defs>
        <path id="a" d="M0 1.105h93.372v94.469H0z"/>
    </defs>
    <g fill="none" fill-rule="evenodd">
        <path fill="#FFF" d="M-1157-152H243v2057h-1400z"/>
        <g transform="rotate(10 -514.92 717.605)">
            <mask id="b" fill="#fff">
                <use xlink:href="#a"/>
            </mask>
            <path fill="#FFBD1A" d="M82.724 57.728C78.6 73.976 64.029 85.982 46.687 85.982c-10.056 0-19.176-4.045-25.871-10.603-6.987-6.842-11.334-16.425-11.334-27.041a38.2 38.2 0 0 1 1.164-9.39c4.127-16.245 18.696-28.253 36.041-28.253 10.057 0 19.176 4.045 25.872 10.604a37.737 37.737 0 0 1 11.335 27.039c0 3.244-.408 6.389-1.17 9.39m.06-39.345C74.221 7.836 61.232 1.105 46.686 1.105 23.076 1.105 3.561 18.837.441 41.86A48.052 48.052 0 0 0 0 48.338C0 59.71 3.975 70.143 10.59 78.294l2.011-.574-2.011.574c8.562 10.55 21.55 17.28 36.097 17.28 23.609 0 43.123-17.734 46.247-40.756.286-2.118.438-4.282.438-6.48 0-11.37-3.971-21.802-10.589-29.955" mask="url(#b)"/>
        </g>
        <path fill="#FFE337" d="M185.914 133.499c-5.755-7.83-14.46-13.569-24.854-15.401-17.927-3.161-35.117 6.283-42.27 21.9a38.156 38.156 0 0 0-2.87 9.25c-1.887 10.696.905 21.143 6.91 29.31 5.755 7.83 14.46 13.566 24.854 15.399 17.925 3.16 35.117-6.28 42.264-21.9a37.995 37.995 0 0 0 2.877-9.249c1.886-10.693-.907-21.143-6.91-29.31"/>
        <path fill="#DD7F3F" d="M150.682 154.307l8.136 1.435c5.277.93 8.318-.887 9.123-5.453.382-2.167.02-4.037-1.086-5.606-1.104-1.567-2.84-2.57-5.201-3.008l-8.481-1.496-2.491 14.128zm6.918 19.176l-9.989-1.762-1.06 6.01-9.423-1.662 1.06-6.01-6.377-1.124 1.328-7.53 6.376 1.125.415-2.356-6.376-1.124 1.328-7.529 6.376 1.125 3.824-21.689 17.78 3.135c3.433.605 6.342 1.747 8.724 3.423 2.381 1.677 4.09 3.773 5.126 6.288 1.036 2.514 1.299 5.217.789 8.11-.787 4.461-2.943 7.713-6.466 9.754-3.523 2.04-8.017 2.578-13.482 1.614l-8.199-1.445-.415 2.356 9.989 1.76-1.328 7.53z"/>
        <path fill="#FFF" d="M172.59 112.473l-61.388 61.743a47.716 47.716 0 0 0 2.419 5.045c5.357 9.64 14.025 17.306 24.76 21.204l60.023-60.37a47.506 47.506 0 0 0-3.283-7.298c-4.981-8.961-12.825-16.216-22.532-20.324" opacity=".3"/>
        <path fill="#FF8A54" d="M121.853 159.024c6.184-2.847 10.315-4.788 11.198-2.897.885 1.89 1.938 4.745-5.696 12.742-7.635 7.996-12.03 13.36-12.03 13.36s-4.262-7.291-4.683-9.5c-.422-2.21 7.108-12.693 7.667-12.795.559-.102 3.544-.91 3.544-.91" opacity=".1"/>
    </g>
</svg>
