<svg xmlns="http://www.w3.org/2000/svg" xmlns:xlink="http://www.w3.org/1999/xlink" width="645" height="673" viewBox="0 0 645 673">
    <defs>
        <path id="a" d="M0 .285h533.454v156.969H0z"/>
        <path id="c" d="M.046.43h116.731v92.906H.046z"/>
    </defs>
    <g fill="none" fill-rule="evenodd">
        <ellipse cx="322.5" cy="546" fill="#290B09" fill-rule="nonzero" opacity=".172" rx="267.5" ry="29" style="mix-blend-mode:soft-light"/>
        <g transform="translate(55 365)">
            <mask id="b" fill="#fff">
                <use xlink:href="#a"/>
            </mask>
            <path fill="#FD5A6E" d="M506.96 101.55C470.684 70.012 308.733 4.404 308.733 4.404c-12.324-5.168-80.248-5.62-91.474-.526 0 0-167.513 67.692-201.232 97.825-8.094 7.233-14.505 23.532-10.18 34.171 10.062 24.738 153.923 18.867 223.84-1.893 20.621-6.124 42.452-6.132 62.963.37 72.51 22.984 223.714 33.47 234.669 8.58 4.67-10.61 3.245-20.865-20.357-41.382" mask="url(#b)"/>
        </g>
        <path fill="#EA765C" d="M192.27 495.03c13.243 2.332 22.057-7.695 31.26-9.873 5.288-1.253 16.193-1.858 26.285 6.884 20.53 17.784 39.781 15.714 61.171 16.192l108.02-19.502s92.471-36.313 122.745-29.992c33.63 7.02 48.243 25.472 48.249 42.81.007 16.328-58.635 46.021-127.358 45.443-82.08-.69-177.895-13.943-205.72-20.256 0 0-110.836-28.102-111.9-33.164-1.008-4.79 34.005-.873 47.248 1.459"/>
        <path fill="#416BE5" d="M344.993 402.759l-38.857 1.172c-26.24.791-49.083-4.92-51.795-30.983l-37.323-191.351c-.526-13.804 10.502-27.307 22.734-33.764 0 0 107.992-19.947 150.061 3.823l3.31 1.15c11.292 6.38 19.877 19.196 19.877 32.148l-20.036 185.95c-2.184 25.288-22.556 31.089-47.97 31.855"/>
        <path fill="#375DBC" d="M409.002 169.84c-1.216-2.344-4.53-2.477-5.923-.234a71.724 71.724 0 0 0-1.841 3.138c-13.012 23.533-8.544 47.012-7.678 66.867.63 14.451-.278 35.465-7.97 61.831a3.42 3.42 0 0 1-3.178 2.446c-55.844 1.69-97.074 1.478-111.546.924-5.458-.209-15.803-.778-25.353-7.498l-.084-.06c-2.533-1.792-5.954.358-5.361 3.406l14.216 73.08c.016.08.027.161.035.241 2.772 26.035 25.591 31.741 51.795 30.95l38.865-1.176c25.421-.769 45.796-6.587 47.98-31.946l20.018-186.265c.015-.148.024-.296.023-.445-.04-5.266-1.52-10.482-3.998-15.26"/>
        <path fill="#416BE5" d="M272.525 210.215c-10.834 33.712-73.804 164.857-93.604 158.566-19.8-6.29 15.508-136.316 26.343-170.027 10.834-33.713 28.66-55.98 48.46-49.691 19.8 6.291 29.636 27.439 18.801 61.152M366.733 217.417c15.606 31.754 99.989 148.167 118.58 139.079 18.591-9.09-38.372-128.408-53.978-160.16-15.606-31.755-36.428-51.182-55.017-42.093-18.59 9.089-25.19 31.42-9.585 63.174"/>
        <path fill="#F07C5B" d="M502.429 348.604c9.957-12.942 66.47-99.176 56.367-107.02-10.103-7.845-82.997 65.67-92.953 78.614-9.957 12.942-6.21 25.548 3.892 33.391 10.103 7.844 22.738 7.958 32.694-4.985M346 93h-50.959c2.818 6.908 3.803 14.734 2.377 22.338l-4.88 26.03c-2.996 24.032 6.883 36.336 20.728 40.027 6.858 1.827 14.84-.6 20.49-5.693 6.715-6.058 6.685-17.983 4.874-27.94l-1.967-7.168C334.03 131.002 346 93 346 93M282.75 78.725c.501 7.9.954 17.835-6.12 18.265-7.076.43-15.091-13.52-15.591-21.418-.502-7.9 3.919-10.12 10.993-10.55 7.074-.433 10.218 5.803 10.718 13.703M359.25 80.725c-.501 7.9-.954 17.835 6.121 18.265 7.076.43 15.09-13.52 15.59-21.418.5-7.9-3.92-10.12-10.994-10.55-7.074-.432-10.217 5.804-10.717 13.703"/>
        <path fill="#F07C5B" d="M369 78.512c0 32.083-22.898 54.024-36.254 64.092-5.75 4.337-13.22 4.541-19.141.491C300.005 133.795 277 113.033 277 79c0-37.618 22.19-53 46.365-53C347.54 26 369 40.893 369 78.512"/>
        <g transform="translate(265)">
            <mask id="d" fill="#fff">
                <use xlink:href="#c"/>
            </mask>
            <path fill="#4D4CAD" d="M109.888 23.221l.15-.201c4.06-5.432-7.203-23.563-27.049-18.453-.074.02-.146.037-.218.057-7.052 1.82-14.43 1.178-21.202-1.496-4.616-1.823-11.272-3.261-20.23-2.48-15.943 1.39-21.877 14.114-21.949 14.165a65.742 65.742 0 0 0-5.719 4.611C-2.653 34.151.245 63.84.245 63.84c6.118 1.22 10.523 6.571 10.523 12.787v13.35a2.316 2.316 0 0 0 2.32 2.31c1.239 0 2.259-.971 2.317-2.205l.39-8.359c.421-9.014 6.723-16.507 15.43-18.996 5.29-1.512 10.444-3.956 14.712-7.805 4.105-3.705 7.557-7.735 10.284-11.849 4.029-6.079 12.656-9.336 19.373-6.462 8.675 3.714 14.812 10.857 19.082 18.224 3.447 5.949 5.188 12.716 5.188 19.584v16.606a2.316 2.316 0 0 0 2.32 2.312 2.316 2.316 0 0 0 2.32-2.312v-8.39c0-2.863 1.037-5.58 2.81-7.833 8.64-10.978 14.835-33.505 2.62-48.397-.767-.935-.78-2.221-.046-3.183" mask="url(#d)"/>
        </g>
        <path fill="#F07C5B" d="M387 335.742s-3.807-12.868-9.698-19.6c-4.114-4.703-21.16-.612-31.066 2.283a46.241 46.241 0 0 1-15.29 1.788c-37.816-1.897-110.55-.879-127.427 2.41-22.741 4.432-33.765 22.25-31.138 34.719 4.214 20.005 16.41 24.532 39.15 20.102 16.232-3.163 83.183-24.342 119.297-40.757 9.515-4.324 20.093-5.774 30.458-4.387L387 335.742z"/>
        <path fill="#F57D5B" d="M442.899 545.144c-7.61-2.386-29.675-1.926-43.094-2.353-13.418-.428-19.97-12.027-28.514-16.036-2.962-1.39-7.97-2.968-14.037-2.577-4.98.32-7.455 2.031-13.06 3.934 0 0-5.693 1.933-18.56 3.68-15.197 2.065-34.58-.642-43.277-2.652-48.69-11.254-107.404-80.36-171.138-75.937-24.793 1.72-52.89 14.742-55.94 31.973-3.133 17.694 20.916 35.517 31.136 42.918 55.165 39.949 106.798 25.76 242.662 34.605 34.585 2.253 70.146-9.141 103.965-1.574 0 0 11.014 2.45 16.292-1.913 1.5-1.24 2.447-2.81 3.173-4.46 1.969-4.477-2.105-7.257-9.608-9.608"/>
        <path fill="#DEE9FD" d="M413.66 480H212.34c-10.129 0-18.34-8.218-18.34-18.354V332.355c0-10.137 8.211-18.355 18.34-18.355h201.32c10.129 0 18.34 8.218 18.34 18.355v129.291c0 10.136-8.211 18.354-18.34 18.354"/>
        <path fill="#A6A6ED" d="M414.688 314H211.312C201.75 314 194 321.594 194 330.961V336c0-9.368 7.75-16.962 17.312-16.962h203.376c9.562 0 17.312 7.594 17.312 16.962v-5.039c0-9.367-7.75-16.961-17.312-16.961"/>
        <path fill="#FDFEFF" d="M331.619 400.955c-4.158-5.174-6.863-11.184-6.863-17.584v-3.08c0-4.703-3.38-8.656-8.052-10.056-1.356-.406-2.255-1.566-2.255-2.859v-3.907c0-1.363-1.22-2.469-2.726-2.469-.688 0-1.334.292-1.749.788a1.838 1.838 0 0 0-.361 1.737l1.02 3.275c.484 1.55-.481 3.086-2.126 3.7-4.259 1.59-7.262 5.357-7.262 9.792v2.05c0 6.456-1.961 12.93-6.36 18.01-3.952 4.563-5.848 10.653-4.402 17.145 1.768 7.936 8.811 14.379 17.56 16.033C322.91 436.343 336 426.14 336 413.166c0-4.568-1.627-8.783-4.381-12.211"/>
        <path fill="#F07C5B" d="M571.25 248.132a3.98 3.98 0 0 1-.702-4.982 4.142 4.142 0 0 1-5.094-.417 3.982 3.982 0 0 1-.94-4.53 4.144 4.144 0 0 1-4.648-.676 3.983 3.983 0 0 1-.158-5.691l.038-.04a4.132 4.132 0 0 1-5.776.156l-.006-.006a3.977 3.977 0 0 1-.159-5.686l-4.025 4.185-1.09 1.134c-.587.608-1.617.423-1.944-.352a76.228 76.228 0 0 0-5.184-9.57c-1.42-1.968-4.29-2.226-6.05-.544a3.913 3.913 0 0 0-.847 4.504c1.204 2.653 2.432 4.679 3.2 6.98.3.901.345 1.865.124 2.789-.4 1.666-.823 4.127-.75 6.908.009.401-.225 1.115-.441 1.95 0 0-.995 3.845-3.061 7.484-3.88 6.835-13.623 11.719-12.672 15.267.672 2.508 5.944 1.607 13.775 5.553 4.068 2.05 7.062 4.516 9.082 6.452 1.926-3.445 7.29-12.628 12.254-15.534.995-.582 1.698-.953 1.698-.953a22.52 22.52 0 0 0 11.438-6.511L577 248.01a4.138 4.138 0 0 1-5.75.122"/>
        <path fill="#EA765C" d="M582.92 241.966l-6.107 6.744c-1.498 1.656-3.997 1.727-5.58.16-1.583-1.568-1.651-4.18-.152-5.835l6.106-6.745c1.499-1.656 3.997-1.727 5.58-.16 1.582 1.567 1.651 4.181.153 5.836"/>
        <path stroke="#EA765C" stroke-width="2" d="M582.92 241.966l-6.107 6.744c-1.498 1.656-3.997 1.727-5.58.16-1.583-1.568-1.651-4.18-.152-5.835l6.106-6.745c1.499-1.656 3.997-1.727 5.58-.16 1.582 1.567 1.651 4.181.153 5.836z"/>
        <path fill="#EA765C" d="M577.874 235.767l-6.777 6.98c-1.562 1.608-4.163 1.677-5.812.155a3.94 3.94 0 0 1-.16-5.668l6.778-6.98c1.561-1.61 4.164-1.679 5.812-.156a3.94 3.94 0 0 1 .159 5.669"/>
        <path stroke="#EA765C" stroke-width="2" d="M577.874 235.767l-6.777 6.98c-1.562 1.608-4.163 1.677-5.812.155a3.94 3.94 0 0 1-.16-5.668l6.778-6.98c1.561-1.61 4.164-1.679 5.812-.156a3.94 3.94 0 0 1 .159 5.669z"/>
        <path fill="#EA765C" d="M572.905 230.017l-7 7.683a3.893 3.893 0 0 1-5.655.161c-1.605-1.578-1.673-4.21-.154-5.878l7-7.683a3.893 3.893 0 0 1 5.654-.161c1.604 1.578 1.674 4.21.155 5.878"/>
        <path stroke="#EA765C" stroke-width="2" d="M572.905 230.017l-7 7.683a3.893 3.893 0 0 1-5.655.161c-1.605-1.578-1.673-4.21-.154-5.878l7-7.683a3.893 3.893 0 0 1 5.654-.161c1.604 1.578 1.674 4.21.155 5.878z"/>
        <path fill="#EA765C" d="M567.862 223.836l-7.68 7.899c-1.58 1.623-4.21 1.694-5.877.157l-.006-.006a3.973 3.973 0 0 1-.16-5.722l7.68-7.899c1.578-1.624 4.21-1.693 5.876-.156l.006.004a3.975 3.975 0 0 1 .161 5.723"/>
        <path stroke="#EA765C" stroke-width="2" d="M567.862 223.836l-7.68 7.899c-1.58 1.623-4.21 1.694-5.877.157l-.006-.006a3.973 3.973 0 0 1-.16-5.722l7.68-7.899c1.578-1.624 4.21-1.693 5.876-.156l.006.004a3.975 3.975 0 0 1 .161 5.723z"/>
    </g>
</svg>
