<svg xmlns="http://www.w3.org/2000/svg" xmlns:xlink="http://www.w3.org/1999/xlink" width="182" height="269" viewBox="0 0 182 269">
    <defs>
        <linearGradient id="a" x1="11.12%" x2="105.742%" y1="59.956%" y2="14.193%">
            <stop offset="0%" stop-color="#416BE5"/>
            <stop offset="100%" stop-color="#FFF"/>
        </linearGradient>
        <path id="b" d="M0 .095h177.818v52.479H0z"/>
        <path id="d" d="M.015.144h38.91v31.06H.016z"/>
        <path id="f" d="M0 .001h58.113v46.787H0z"/>
    </defs>
    <g fill="none" fill-rule="evenodd">
        <path fill="url(#a)" d="M61.38 272.336c30.106 39.866 109.936 63.296 148.99 47.695 28.534-11.398 27.534-41.926 71.9-64.99 28.839-14.993 40.408-7.89 51.163-20.209 25.685-29.42-.86-115.097-61.907-155.85-51.023-34.062-125.898-46.377-177.01 8.458-53.262 49.41-66.886 140.2-33.135 184.896z" transform="scale(-1 1) rotate(24 128.206 -649.916)"/>
        <g transform="translate(-18 44)">
            <ellipse cx="107.5" cy="182.541" fill="#290B09" fill-rule="nonzero" opacity=".172" rx="89.167" ry="9.695" style="mix-blend-mode:soft-light"/>
            <g transform="translate(18.333 122.028)">
                <mask id="c" fill="#fff">
                    <use xlink:href="#b"/>
                </mask>
                <path fill="#FD5A6E" d="M168.987 33.95C156.894 23.407 102.91 1.473 102.91 1.473c-4.108-1.728-26.75-1.88-30.492-.176 0 0-55.837 22.63-67.077 32.705C2.644 36.42.507 41.87 1.949 45.426c3.354 8.27 51.307 6.308 74.613-.633 6.874-2.047 14.15-2.05 20.988.124 24.17 7.684 74.571 11.19 78.223 2.868 1.556-3.546 1.081-6.975-6.786-13.835" mask="url(#c)"/>
            </g>
            <path fill="#EA765C" d="M64.09 165.5c4.414.78 7.352-2.572 10.42-3.3 1.763-.42 5.398-.621 8.762 2.301 6.843 5.946 13.26 5.254 20.39 5.414l36.006-6.52s30.824-12.14 40.916-10.028c11.21 2.347 16.08 8.516 16.083 14.313.002 5.459-19.545 15.386-42.453 15.192-27.36-.23-59.298-4.66-68.573-6.772 0 0-36.946-9.395-37.3-11.087-.336-1.602 11.335-.292 15.749.488"/>
            <path fill="#416BE5" d="M114.998 134.652l-12.953.392c-8.746.264-16.36-1.645-17.265-10.358L72.34 60.712c-.176-4.615 3.5-9.13 7.577-11.288 0 0 35.998-6.669 50.02 1.278l1.104.385c3.764 2.133 6.626 6.417 6.626 10.748l-6.679 62.167c-.728 8.454-7.519 10.394-15.99 10.65"/>
            <path fill="#375DBC" d="M136.334 56.781a1.136 1.136 0 0 0-1.974-.078c-.198.32-.405.67-.614 1.05-4.337 7.867-2.848 15.717-2.56 22.355.21 4.831-.092 11.856-2.656 20.671a1.14 1.14 0 0 1-1.06.818c-18.614.565-32.357.494-37.181.309-1.82-.07-5.268-.26-8.451-2.507-.01-.007-.02-.013-.028-.02-.845-.6-1.985.12-1.787 1.139l4.738 24.432c.006.027.01.054.012.08.924 8.705 8.53 10.613 17.265 10.348l12.955-.393c8.474-.257 15.265-2.202 15.994-10.68l6.672-62.273c.005-.05.008-.1.008-.149-.014-1.76-.507-3.504-1.333-5.102"/>
            <path fill="#416BE5" d="M90.842 70.28C87.23 81.55 66.24 125.396 59.64 123.292c-6.6-2.103 5.17-45.573 8.781-56.844 3.612-11.27 9.554-18.715 16.154-16.613 6.6 2.104 9.878 9.174 6.267 20.445M122.244 72.688c5.202 10.616 33.33 49.535 39.527 46.497 6.197-3.039-12.79-42.93-17.993-53.545-5.202-10.617-12.142-17.111-18.339-14.073-6.197 3.039-8.396 10.505-3.195 21.12"/>
            <path fill="#F07C5B" d="M167.476 116.547c3.32-4.327 22.157-33.157 18.79-35.78-3.368-2.622-27.666 21.956-30.985 26.283-3.319 4.327-2.07 8.541 1.297 11.163 3.368 2.623 7.58 2.661 10.898-1.666M115.333 31.092H98.347c.94 2.31 1.268 4.926.792 7.468l-1.626 8.703c-.999 8.034 2.294 12.148 6.909 13.382 2.286.61 4.947-.201 6.83-1.904 2.238-2.025 2.228-6.012 1.625-9.34l-.656-2.397c-.878-3.207 3.112-15.912 3.112-15.912M94.25 26.32c.167 2.64.318 5.962-2.04 6.106-2.359.144-5.03-4.52-5.197-7.16-.167-2.642 1.306-3.384 3.664-3.528 2.358-.144 3.406 1.94 3.573 4.582M119.75 26.988c-.167 2.641-.318 5.963 2.04 6.107 2.359.144 5.03-4.52 5.197-7.161.167-2.641-1.306-3.383-3.665-3.527-2.358-.144-3.405 1.94-3.572 4.581"/>
            <path fill="#F07C5B" d="M123 26.248c0 10.726-7.633 18.062-12.085 21.428-1.917 1.45-4.406 1.518-6.38.164C100 44.73 92.333 37.79 92.333 26.412c0-12.577 7.397-17.72 15.455-17.72S123 13.672 123 26.248"/>
            <g transform="translate(88.333)">
                <mask id="e" fill="#fff">
                    <use xlink:href="#d"/>
                </mask>
                <path fill="#4D4CAD" d="M36.63 7.763l.05-.067c1.353-1.816-2.402-7.878-9.017-6.17l-.073.02c-2.35.608-4.81.394-7.067-.5-1.539-.61-3.757-1.09-6.743-.83-5.315.465-7.293 4.72-7.317 4.736-.648.466-1.285.98-1.906 1.542C-.884 11.418.082 21.344.082 21.344a4.36 4.36 0 0 1 3.507 4.274v4.463a.773.773 0 0 0 1.546.035l.13-2.794c.14-3.014 2.241-5.52 5.143-6.351 1.764-.506 3.482-1.323 4.904-2.61A20.992 20.992 0 0 0 18.74 14.4c1.343-2.032 4.22-3.121 6.458-2.16 2.892 1.241 4.937 3.63 6.36 6.092a13.075 13.075 0 0 1 1.73 6.548v5.552a.773.773 0 0 0 1.547 0v-2.805c0-.958.345-1.866.936-2.62 2.88-3.67 4.945-11.2.874-16.18a.848.848 0 0 1-.016-1.064" mask="url(#e)"/>
            </g>
            <path fill="#F07C5B" d="M129 112.247s-1.269-4.303-3.233-6.553c-1.37-1.572-7.053-.205-10.355.763a15.37 15.37 0 0 1-5.097.598c-12.605-.634-36.85-.294-42.475.806-7.58 1.481-11.255 7.438-10.38 11.607 1.405 6.688 5.47 8.202 13.05 6.72 5.41-1.057 27.728-8.138 39.766-13.625 3.172-1.446 6.698-1.93 10.153-1.467l8.571 1.15z"/>
            <path fill="#F57D5B" d="M147.633 182.255c-2.537-.798-9.892-.644-14.365-.787-4.472-.143-6.657-4.021-9.504-5.361a9.713 9.713 0 0 0-4.68-.862c-1.66.107-2.484.68-4.352 1.316 0 0-1.898.646-6.187 1.23-5.066.69-11.527-.215-14.426-.887-16.23-3.762-35.801-26.866-57.046-25.387-8.264.575-17.63 4.928-18.647 10.689-1.044 5.915 6.972 11.874 10.379 14.349 18.388 13.355 35.6 8.612 80.887 11.569 11.529.753 23.382-3.056 34.655-.526 0 0 3.672.819 5.431-.64.5-.415.816-.94 1.058-1.491.656-1.497-.702-2.426-3.203-3.212"/>
            <path fill="#DEE9FD" d="M137.887 160.475H70.78c-3.376 0-6.113-2.747-6.113-6.136v-43.225c0-3.389 2.737-6.136 6.113-6.136h67.107c3.376 0 6.113 2.747 6.113 6.136v43.225c0 3.39-2.737 6.136-6.113 6.136"/>
            <path fill="#A6A6ED" d="M138.23 104.978H70.436c-3.187 0-5.77 2.539-5.77 5.67v1.685c0-3.132 2.583-5.671 5.77-5.671h67.792c3.188 0 5.771 2.539 5.771 5.67v-1.684c0-3.131-2.583-5.67-5.77-5.67"/>
            <path fill="#FDFEFF" d="M110.54 134.049c-1.386-1.73-2.288-3.74-2.288-5.879v-1.03c0-1.572-1.126-2.893-2.684-3.362-.452-.135-.752-.523-.752-.955v-1.306c0-.456-.407-.826-.908-.826a.758.758 0 0 0-.583.263.616.616 0 0 0-.12.581l.34 1.095c.16.518-.161 1.032-.71 1.237-1.419.531-2.42 1.791-2.42 3.274v.685c0 2.159-.654 4.323-2.12 6.021-1.317 1.526-1.95 3.562-1.467 5.732.589 2.653 2.937 4.807 5.853 5.36 4.956.941 9.319-2.47 9.319-6.808 0-1.527-.542-2.936-1.46-4.082"/>
            <path fill="#F07C5B" d="M190.417 82.957a1.334 1.334 0 0 1-.234-1.666 1.378 1.378 0 0 1-1.698-.14 1.334 1.334 0 0 1-.313-1.514 1.378 1.378 0 0 1-1.55-.226 1.334 1.334 0 0 1-.053-1.903l.013-.013c-.517.54-1.38.563-1.925.052l-.002-.002a1.332 1.332 0 0 1-.053-1.9l-1.342 1.398-.364.38a.395.395 0 0 1-.647-.118 25.509 25.509 0 0 0-1.728-3.2 1.345 1.345 0 0 0-2.017-.181 1.31 1.31 0 0 0-.282 1.505c.401.887.81 1.564 1.067 2.334.1.301.114.623.04.932a9.075 9.075 0 0 0-.25 2.31c.004.134-.074.372-.146.652 0 0-.332 1.285-1.02 2.502-1.294 2.285-4.542 3.918-4.225 5.104.224.838 1.982.537 4.592 1.856a12.51 12.51 0 0 1 3.027 2.157c.642-1.151 2.43-4.222 4.085-5.193.332-.195.566-.319.566-.319a7.501 7.501 0 0 0 3.813-2.177l2.562-2.671a1.376 1.376 0 0 1-1.916.04"/>
            <path fill="#EA765C" d="M194.307 80.895l-2.036 2.255c-.5.553-1.332.577-1.86.053a1.428 1.428 0 0 1-.05-1.95l2.035-2.256a1.272 1.272 0 0 1 1.86-.053c.527.524.55 1.398.05 1.951"/>
            <path stroke="#EA765C" stroke-width="2" d="M194.307 80.895l-2.036 2.255c-.5.553-1.332.577-1.86.053a1.428 1.428 0 0 1-.05-1.95l2.035-2.256a1.272 1.272 0 0 1 1.86-.053c.527.524.55 1.398.05 1.951z"/>
            <path fill="#EA765C" d="M192.625 78.822l-2.26 2.334c-.52.538-1.387.56-1.937.052a1.32 1.32 0 0 1-.053-1.895l2.26-2.334a1.392 1.392 0 0 1 1.937-.052 1.32 1.32 0 0 1 .053 1.895"/>
            <path stroke="#EA765C" stroke-width="2" d="M192.625 78.822l-2.26 2.334c-.52.538-1.387.56-1.937.052a1.32 1.32 0 0 1-.053-1.895l2.26-2.334a1.392 1.392 0 0 1 1.937-.052 1.32 1.32 0 0 1 .053 1.895z"/>
            <path fill="#EA765C" d="M190.968 76.9l-2.333 2.569a1.295 1.295 0 0 1-1.885.054 1.432 1.432 0 0 1-.051-1.965l2.333-2.57a1.295 1.295 0 0 1 1.885-.053c.534.528.558 1.408.051 1.965"/>
            <path stroke="#EA765C" stroke-width="2" d="M190.968 76.9l-2.333 2.569a1.295 1.295 0 0 1-1.885.054 1.432 1.432 0 0 1-.051-1.965l2.333-2.57a1.295 1.295 0 0 1 1.885-.053c.534.528.558 1.408.051 1.965z"/>
            <path fill="#EA765C" d="M189.287 74.834l-2.56 2.64a1.409 1.409 0 0 1-1.959.053l-.002-.002a1.331 1.331 0 0 1-.053-1.913l2.56-2.64a1.408 1.408 0 0 1 1.959-.053l.002.001c.555.514.58 1.371.053 1.914"/>
            <path stroke="#EA765C" stroke-width="2" d="M189.287 74.834l-2.56 2.64a1.409 1.409 0 0 1-1.959.053l-.002-.002a1.331 1.331 0 0 1-.053-1.913l2.56-2.64a1.408 1.408 0 0 1 1.959-.053l.002.001c.555.514.58 1.371.053 1.914z"/>
        </g>
        <g transform="rotate(-40 118.856 -128.608)">
            <mask id="g" fill="#fff">
                <use xlink:href="#f"/>
            </mask>
            <path fill="#416BE5" d="M13.509.003c-1.387.05-2.473.855-3.087 1.404L.065 30.107c-.164.454-.01.962.378 1.249l20.71 15.29 25.828.142a.91.91 0 0 0 .857-.592l9.773-26.065.375-1.112c.374-1.112-.102-2.348-1.144-2.882a9.82 9.82 0 0 0-2.647-.918c-5.982-1.136-9.457 4.275-16.238 4.754-4.854.343-8.746-1.955-9.845-2.745C20.974 12.104 19.087-.197 13.509.003" mask="url(#g)"/>
        </g>
        <path fill="#C9E5FA" d="M121.853 36.654c-.955.863-1.238 2.094-1.34 2.858l10.592 28.508 24.865-1.1 19.079-16.01-9.62-25.957-3.49-3.055c-7.495 14.697-14.279 18.21-19.234 18.537-8.188.54-17.012-7.251-20.852-3.78"/>
        <path fill="#F0F8FF" d="M131.413 63.175l-9.567-26.47c1.675-1.155 5.817-3.677 11.65-3.883a21.79 21.79 0 0 1 9.928 2.024c1.332-2.364 4.594-7.36 10.846-10.528a25.137 25.137 0 0 1 7.732-2.442l9.476 26.408c-2.016.187-5.542.794-9.211 3.047-5.664 3.48-8 8.629-8.75 10.516-1.717-.96-4.63-2.278-8.433-2.564-6.94-.522-12.046 2.75-13.67 3.892"/>
        <path stroke="#416BE5" stroke-linecap="round" stroke-width="2" d="M126.898 40.126c1.644-1.124 2.866-1.257 3.685-1.164.749.086.793.318 1.56.345 1.689.059 2.076-1.101 3.478-.99 1.086.086 1.378.818 2.333.591.534-.127.632-.401 1.206-.667.533-.247 1.353-.43 2.592-.11M147.252 35.838c.854-1.48 1.75-2.066 2.42-2.324.611-.237.732-.085 1.336-.371 1.33-.631 1.196-1.636 2.324-2.115.873-.37 1.372.05 2.027-.499.366-.306.34-.546.685-.97.32-.394.887-.855 1.966-1.116M149.354 38.77c.958-1.418 1.913-1.888 2.614-2.052.643-.15.758.03 1.395-.173 1.402-.449 1.32-1.526 2.505-1.847.918-.249 1.409.274 2.112-.197.393-.262.379-.52.756-.909.352-.362.96-.755 2.084-.854M149.434 41.676c1.169-1.27 2.178-1.626 2.891-1.713.652-.078.736.107 1.392-.024 1.443-.289 1.539-1.337 2.75-1.526.938-.146 1.332.409 2.096.028.427-.214.455-.463.888-.8.403-.314 1.062-.63 2.177-.612M150.962 45.469c1.101-1.355 2.113-1.752 2.841-1.861.666-.1.768.09 1.433-.064 1.464-.34 1.478-1.433 2.71-1.662.956-.178 1.408.39 2.164-.029.423-.233.432-.493.85-.857.39-.337 1.043-.685 2.194-.695M152.042 49.127c.951-1.424 1.906-1.894 2.61-2.057.642-.149.76.032 1.397-.171 1.403-.448 1.314-1.53 2.5-1.85.92-.249 1.416.278 2.117-.194.393-.263.377-.52.754-.912.35-.363.957-.756 2.084-.854M154.193 53.328c.691-1.6 1.558-2.224 2.23-2.496.615-.247.766-.08 1.365-.382 1.32-.666 1.033-1.764 2.16-2.268.872-.39 1.463.076 2.078-.51.344-.328.281-.59.586-1.047.284-.425.818-.918 1.926-1.185M128.572 44.468c1.644-1.125 2.867-1.257 3.685-1.164.75.086.793.317 1.56.344 1.69.06 2.076-1.1 3.478-.99 1.087.086 1.379.819 2.334.592.534-.127.631-.402 1.205-.668.533-.247 1.353-.429 2.593-.108M129.58 49.142c1.644-1.124 2.866-1.257 3.685-1.164.75.086.793.318 1.56.345 1.689.059 2.076-1.1 3.478-.99 1.087.086 1.378.818 2.333.591.534-.127.632-.401 1.206-.667.533-.247 1.353-.43 2.593-.109M130.92 53.483c1.645-1.124 2.867-1.257 3.686-1.163.749.085.793.317 1.56.344 1.689.059 2.076-1.101 3.478-.99 1.086.086 1.378.819 2.333.592.534-.127.632-.402 1.206-.668.533-.247 1.353-.43 2.593-.109M132.26 56.823c1.644-1.124 2.866-1.257 3.686-1.163.748.085.792.317 1.56.344 1.688.059 2.075-1.1 3.478-.99 1.086.086 1.378.819 2.333.591.534-.127.632-.401 1.205-.667.534-.247 1.354-.43 2.593-.109"/>
    </g>
</svg>
