<svg xmlns="http://www.w3.org/2000/svg" xmlns:xlink="http://www.w3.org/1999/xlink" width="191" height="245" viewBox="0 0 191 245">
    <defs>
        <linearGradient id="b" x1="15.6%" x2="87.311%" y1="89.45%" y2="-.069%">
            <stop offset="0%" stop-color="#416BE5"/>
            <stop offset="100%" stop-color="#FFF"/>
        </linearGradient>
        <path id="a" d="M25.29 210.402C-4.86 170.47 7.31 89.359 54.89 45.217c45.657-48.99 112.542-37.987 158.12-7.556 54.532 36.408 78.244 112.952 55.3 139.236-9.607 11.005-19.942 4.66-45.702 18.054-39.632 20.606-38.74 47.88-64.228 58.062-34.887 13.938-106.198-6.995-133.09-42.611zm292.867 8.01c-15.808 0-28.625-12.41-28.625-27.72 0-15.311 12.817-27.722 28.625-27.722 15.809 0 28.626 12.41 28.626 27.723 0 15.308-12.817 27.72-28.626 27.72zm-93.848 34.289c-9.485 0-17.175-7.585-17.175-16.94 0-9.358 7.69-16.942 17.175-16.942s17.176 7.584 17.176 16.942c0 9.355-7.69 16.94-17.176 16.94z"/>
        <path id="d" d="M6.717 10.215C7.598 4.432 12.617 0 18.677 0c6.509.002 11.815 5.117 12.082 11.527a8.065 8.065 0 0 1 4.584-1.423c4.454 0 8.064 3.593 8.063 8.024 0 4.43-3.61 8.022-8.065 8.022l-27.278-.003C3.61 26.146 0 22.553 0 18.123c0-3.973 2.905-7.27 6.717-7.908z"/>
        <path id="e" d="M130.281-24.44c.881-5.784 5.9-10.216 11.96-10.215 6.51.001 11.815 5.116 12.082 11.526a8.065 8.065 0 0 1 4.585-1.423c4.454 0 8.063 3.593 8.063 8.024 0 4.43-3.611 8.022-8.065 8.022l-27.278-.003c-4.454-.001-8.064-3.593-8.063-8.024 0-3.973 2.904-7.27 6.716-7.908z"/>
        <path id="f" d="M.183.17h6.645v14.143H.183z"/>
        <path id="h" d="M0 0h48.316v38.833H0z"/>
        <path id="j" d="M0 0h48.316v38.833H0z"/>
        <path id="l" d="M0 .33h27.813v28.244H0z"/>
        <path id="n" d="M0 .342h28.806v29.217H0z"/>
    </defs>
    <g fill="none" fill-rule="evenodd">
        <g transform="translate(0 -22)">
            <mask id="c" fill="#fff">
                <use xlink:href="#a"/>
            </mask>
            <use fill="url(#b)" opacity=".947" transform="rotate(4 177.819 134.505)" xlink:href="#a"/>
            <g mask="url(#c)">
                <g fill="#FFF" transform="translate(30 130)">
                    <use xlink:href="#d"/>
                    <use xlink:href="#e"/>
                </g>
            </g>
            <g mask="url(#c)">
                <path fill="#416BE5" d="M92.732 139.621c.547.818 1.26 2.1 1.666 3.8a11.74 11.74 0 0 1-.038 5.54c-.555.566-1.391 1.582-1.806 3.05a6.855 6.855 0 0 0-.222 2.527c.222 2.352.834 4.672 1.61 6.927-.086.418-.145.871-.592 1.073-3.176 1.434-5.847 3.757-9.145 4.983-2.646.984-7.364.087-9.31-1.907-.88-.902-1.091-2.089-1.218-3.289-.45-4.256 1.058-7.787 3.889-10.952 4.247-4.748 9.381-8.358 14.796-11.64.107-.064.246-.075.37-.112"/>
                <path fill="#EA765C" d="M115.715 217.458a76.369 76.369 0 0 1 4.316 25.73 372.765 372.765 0 0 1-11.415 25.858 373.971 373.971 0 0 1-18.796 33.951l-5.027-2.13a202.746 202.746 0 0 1 5.632-21.47 203.736 203.736 0 0 1 12.947-31.118l-5.265-33.888 17.608 3.067"/>
                <path fill="#F57D5B" d="M38.506 259.461l3.43 5.56a218.099 218.099 0 0 0 26.543-7.477 217.439 217.439 0 0 0 32.498-14.505c.497-.144 3.884-1.182 5.2-4.452.589-1.461.534-2.8.432-3.578l-6-21.768-16.658 2.641 5.956 15.123a661.56 661.56 0 0 1-51.401 28.456"/>
                <path fill="#FD5A6E" d="M123.86 234.238c-4.183.617-7.23-4.766-12.758-8.213-11.84-7.384-23.468 3.16-29.868-2.858-7.683-7.224 2.092-28.985 3.367-31.822a62.533 62.533 0 0 1 8.452-13.712c4.746.293 10.051 1.112 15.871 2.06 7.344 1.195 14.256 3.877 21.224 6.341.655 6.34 3.133 32.477-2.13 43.778-.657 1.41-1.952 4.1-4.158 4.426"/>
                <path fill="#416BE5" d="M137.857 103.633c5.125 4.707 8.134 12.669 6.302 19.767-1.05 4.064-4.436 10.87-9.52 11.034-2.023.066-3.769-.94-5.033-1.97a.874.874 0 0 0 .03-.48c-.46-1.913-8.338-1.664-13.488-1.315a43.493 43.493 0 0 1-1.39-.39c-1.104-.33-1.878-.607-2.056-.669-1.37-.47-4.325-.772-7.356.183a12.77 12.77 0 0 0-3.768 1.941c-2.772.32-5.513.812-8.241 1.387-.29.061-.615.042-.712.416-.693.047-.952.34-.75 1.06.19.676.253 1.387.372 2.082-.232.078-.564.185-.966.296-.643.179-12.704 3.322-20.491-4.46-5.448-5.444-6.833-14.265-3.28-21.938 5.992 8.818 14.823 13.607 20.91 11.95 2.94-.802 8.117-3.89 12.063-8.313.139-.156.252-.287.329-.375-.989-.194-1.717.297-2.464.564-2.666.954-5.285 2.031-8.082 2.603-.507.104-1.672.167-2.908-.066-4.56-.86-7.048-5.882-7.696-7.3 4.415 1.82 7.898 1.731 9.794 1.512 4.063-.47 7.147-2.268 11.912-5.048a67.435 67.435 0 0 0 5.502-3.578c10.85-6.419 23.555-5.72 30.987 1.107M93.547 171.562c1.864-3.18 3.217-6.608 4.901-9.875.209-.406.355-.843.53-1.265.667-.064 1.39.035 1.85-.623 2.707.782 5.637 1.014 7.938 2.824 2.213 1.74 4.667 3.005 7.218 4.174 3.2 1.466 6.492 1.77 9.92 1.274 1.103-.251 1.869.143 2.388 1.134.327.627.747 1.206 1.126 1.807-.163.616-.08 1.237-.03 1.857-.552 3.203-.611 6.384.395 9.525.297.927.562 1.863.818 2.802.03.109.142.39.044.704-.093.3-.324.485-.464.578-.279-.161-.76-.433-1.376-.735a23.656 23.656 0 0 0-4.272-1.597c-8.01-2.22-12.014-3.329-15.678-3.962-8.551-1.478-12.827-2.217-15.148-1.278-.327.132-1.632.692-2.212.17-.814-.73.157-3.263.333-3.703.11-.274.152-.339.465-1a70.207 70.207 0 0 0 1.254-2.81M149.999 164.262c.66 2.232 1.407 4.443 1.96 6.7.842 3.435 1.309 6.927.66 10.452-.187 1.021-1.549 4.448-4.267 5.138-2.47.628-4.893-1.363-8.185-4.07-1.907-1.568-3.166-2.97-5.608-5.712a136.21 136.21 0 0 1-4.575-5.413l3.384-8.28c.291.175.623.306.869.53 3.096 2.826 6.185 5.661 9.267 8.503 1.194 1.1 2.364 2.227 3.551 3.335.217.202.484.454.768.136.215-.24.01-.476-.165-.665a9.725 9.725 0 0 0-.551-.539c-4.053-3.744-8.106-7.489-12.16-11.23-.381-.351-.798-.65-1.318-.775-.415-.825-.779-1.685-1.569-2.256-.624-2.084-1.698-6.812.23-12.01a17.749 17.749 0 0 1 2.274-4.236 8.321 8.321 0 0 1-.78-1.557c.84-.04 1.68-.08 2.52-.118.725.186 1.08.786 1.485 1.318 1.328 1.743 2.643 3.496 3.962 5.245 1.722 2.281 2.377 3.564 2.585 3.903a61.954 61.954 0 0 1 2.687 4.882l2.976 6.72"/>
                <path fill="#F07C5B" d="M136.305 142.195l-2.52.118c-1.131-2.144-2.776-2.468-4.946-1.527-2.09.907-3.918.203-5.587-1.187-1.214-1.011-2.493-1.949-3.774-2.878-1.03-.747-2.236-1.103-3.405-.509-1.99 1.012-3.662.655-5.207-.807.046-.522.417-.558.832-.558.644-.002 1.292-.118 1.932-.045 1.356.154 3.997-.485 4.288-1.647.266-1.06-1.477-2.327-1.769-2.535-1.063-1.014-2.933-3.09-3.809-6.24-.561-2.022-.46-3.578-.334-5.539.31-4.81 2.156-9.888 3.322-9.77.857.087.218 2.859 2.094 4.254 2.354 1.75 5.313-1.16 8.416.447 2.56 1.325 2.44 4.285 4.337 4.537 1.526.202 3.042-1.519 4.144-3.131-.152 1.972.025 2.422.215 2.47.453.115 1.135-2.013 1.927-1.907.406.054.657.658.807 1.15.654 2.14.012 3.855-1.912 5.047-.511.317-.806.715-.863 1.328-.087.93-.248 1.853-.365 2.781-.294 2.351-1.742 3.906-3.634 5.16-.458.303-1.015.547-.888 1.257-1.16 2.722-.633 4.579 1.783 6.277l4.916 3.454"/>
                <path fill="#05248B" d="M134.564 143.87c.281 1.371-.275 2.655-.465 3.971-.593 4.105-1.566 8.15-2.038 12.275-.055.116-.107.233-.167.345-.172.322-.036.882-.466.96-.42.075-.58-.437-.817-.72-.792-.952-1.541-1.94-2.359-2.868-.394-.448-.978-.65-1.5-.234-.571.454-.464 1.043-.076 1.592.269.38.762.658.668 1.246-1.11.105-2.015-1.454-3.006-.368-.842.923.429 1.599.763 2.473-.362 0-.618-.007-.874.002-.672.021-1.545-.17-1.729.707-.207.991.807 1.056 1.416 1.337.767.352 1.676.377 2.48.922-.788.43-1.566.22-2.251.475-.562.208-1.269.32-1.192 1.105.073.748.777.662 1.309.746.546.086 1.125-.047 1.644.235-1.562.341-4.073.67-6.993.015-1.232-.277-2.121-.635-2.913-.959-3.625-1.48-5.202-3.085-7.412-4.409-1.702-1.018-4.269-2.165-7.985-2.609-.02.002-.035-.001-.043-.01-.03-.037.054-.165.252-.383l-4.902-1.428-1.548-9.335v.008l-1.628-9.34c.02-1.01-.327-1.96-.484-2.942-.12-.695-.183-1.406-.373-2.082-.202-.72.057-1.013.75-1.06 1.545.483 3.14.336 4.714.303 4.84-.1 8.461 2.561 12.027 5.238.696.522 1.313.997 2.143 1.171 2.339.492 4.453 1.534 6.582 2.55 1.947.93 3.935 1.688 6.166 1.66 3.446-.044 6.883-.196 10.307-.59"/>
                <path fill="#DEE9FD" d="M134.564 143.87c-3.424.393-6.86.545-10.307.59-2.231.027-4.22-.731-6.166-1.66-2.13-1.017-4.243-2.06-6.582-2.55-.83-.175-1.447-.65-2.143-1.172-3.566-2.677-7.187-5.339-12.027-5.238-1.575.033-3.169.18-4.714-.303.097-.374.422-.355.712-.416 2.728-.575 5.47-1.067 8.239-1.386 1.716-.155 3.344.027 4.845.686a8.375 8.375 0 0 1 1.72 1.014c.586.42.885.721 1.676 1.28.437.308.806.542 1.049.69 1.545 1.462 3.217 1.82 5.207.807 1.169-.595 2.374-.238 3.405.51 1.28.928 2.56 1.866 3.774 2.877 1.669 1.39 3.496 2.094 5.587 1.187 2.17-.942 3.815-.617 4.946 1.527l.779 1.557"/>
                <path fill="#F07C5B" d="M93.942 161.465c-.776-2.255-1.387-4.575-1.61-6.927-.196-2.067.5-4.02 2.028-5.578v-.007c.09.497.24.993.258 1.493.04 1.083.484 1.19 1.393.742 1.231-.608 2.506-1.133 3.775-1.66.65-.269 1.212-.115 1.47.583.266.72-.232.977-.806 1.183-1.006.36-2.003.743-3.004 1.116 1.093.128 2.124.097 3.151.02.68-.051 1.494-.327 1.545.731.044.908-.567 1.245-1.437 1.231-1.122-.017-2.244-.004-3.366-.004 1.294.538 2.62.859 3.944 1.188.628.156.966.551.892 1.205-.086.776-.723.652-1.194.588-1.266-.172-2.521-.424-4.043-.69 1.276 1.308 2.81 1.886 3.872 3.037l.02.084c-.462.657-1.185.558-1.851.622-1.3-.953-2.489-.883-3.559.367-.383.447-.966.49-1.478.676M125.904 168.071c-.519-.282-1.097-.149-1.644-.235-.532-.085-1.236.002-1.309-.746-.077-.786.63-.897 1.192-1.105.685-.255 1.464-.046 2.251-.475-.804-.545-1.713-.57-2.48-.923-.61-.28-1.624-.345-1.415-1.336.183-.876 1.056-.686 1.728-.707.256-.008.512-.002.874-.002-.335-.874-1.605-1.55-.763-2.473.99-1.086 1.897.472 3.006.368.094-.589-.4-.866-.668-1.246-.388-.55-.495-1.138.075-1.593.523-.415 1.107-.213 1.501.235.818.929 1.567 1.916 2.36 2.867.236.284.396.796.816.72.43-.077.294-.637.466-.959.06-.112.112-.23.167-.345.789.571 1.153 1.431 1.568 2.257-.234.181-.257.44-.261.704l-3.384 8.28c-.19-.114-.378-.229-.566-.344-.379-.602-.799-1.181-1.126-1.808-.52-.99-1.285-1.385-2.388-1.134"/>
                <path fill="#0C298B" d="M133.368 163.078c.004-.265.027-.524.262-.705.52.123.936.422 1.316.774 4.055 3.742 8.108 7.486 12.161 11.23.189.175.377.35.552.539.175.19.379.425.164.665-.284.318-.55.067-.768-.136-1.188-1.108-2.357-2.234-3.551-3.335-3.083-2.842-6.17-5.677-9.268-8.503-.245-.224-.577-.355-.868-.53"/>
                <path fill="#416BE5" d="M81.073 157.702l10.94-4.92"/>
                <path fill="#0C298B" d="M81.073 158.086a.402.402 0 0 1-.354-.225.381.381 0 0 1 .192-.507l11.575-5.074-.061.292a8.509 8.509 0 0 0-.122.83l-11.07 4.65a.379.379 0 0 1-.16.034"/>
                <g transform="translate(84.379 300.612)">
                    <mask id="g" fill="#fff">
                        <use xlink:href="#f"/>
                    </mask>
                    <path fill="#02218D" d="M.457.17L.183 9.5c.3 3.096 2.453 4.985 4.179 4.801 1.408-.15 2.293-1.654 2.466-1.96L5.389 2.062.457.17z" mask="url(#g)"/>
                </g>
                <path fill="#02218D" d="M42.78 264.689l-3.302-5.705-7.522 4.166c-.18.105-1.693 1.025-1.927 2.897-.223 1.786.899 3.005 1.055 3.17a23.5 23.5 0 0 0 11.696-4.528"/>
                <path fill="#042372" d="M111.24 140.21l-2.04 22.807a12.908 12.908 0 0 0 3.195 1.96l1.726-23.942a13.826 13.826 0 0 0-2.881-.825"/>
            </g>
        </g>
        <g transform="rotate(-60 153.792 94.53)">
            <mask id="i" fill="#fff">
                <use xlink:href="#h"/>
            </mask>
            <path fill="#416BE5" d="M11.232.003c-1.153.041-2.057.71-2.567 1.165L.054 24.988a.906.906 0 0 0 .314 1.037l17.22 12.69 21.473.118a.757.757 0 0 0 .713-.491L47.9 16.709l.311-.924c.31-.923-.084-1.949-.951-2.392a8.174 8.174 0 0 0-2.201-.762c-4.974-.942-7.863 3.548-13.5 3.946-4.036.285-7.272-1.623-8.186-2.278C17.438 10.046 15.869-.163 11.232.003" mask="url(#i)"/>
        </g>
        <path fill="#C9E5FA" d="M1.175 169.815c-.502.948-.376 1.99-.24 2.616l16.293 19.233 19.092-7.987 10.378-17.975-14.817-17.52-3.584-1.385c-1.709 13.63-6.012 18.318-9.786 19.994-6.237 2.77-15.316-.788-17.336 3.024"/>
        <path fill="#F0F8FF" d="M16.222 187.643L1.2 169.698c.978-1.376 3.492-4.514 7.986-6.323a18.117 18.117 0 0 1 8.328-1.227c.364-2.221 1.485-7.04 5.461-11.28a20.802 20.802 0 0 1 5.34-4.09l14.933 17.924c-1.52.715-4.1 2.185-6.32 4.98-3.43 4.315-3.783 8.992-3.83 10.677-1.614-.264-4.264-.47-7.315.383-5.565 1.554-8.617 5.55-9.56 6.9"/>
        <path stroke="#416BE5" stroke-linecap="round" stroke-width="2" d="M6.163 170.98c.957-1.328 1.876-1.766 2.546-1.917.613-.139.716.03 1.325-.159 1.342-.417 1.303-1.428 2.435-1.725.877-.23 1.323.261 2.004-.178.382-.245.377-.486.749-.851.345-.339.934-.705 2-.795M20.856 161.902c.215-1.419.757-2.128 1.219-2.514.422-.353.57-.262.97-.653.88-.86.444-1.634 1.208-2.32.592-.53 1.136-.324 1.492-.939.2-.343.1-.53.243-.963.134-.402.447-.924 1.243-1.42M23.157 163.746c.36-1.389.973-2.038 1.472-2.374.457-.307.594-.202 1.032-.55.965-.765.612-1.579 1.443-2.181.644-.466 1.164-.205 1.581-.78.234-.321.154-.517.342-.933.175-.386.54-.872 1.383-1.283M24.048 165.772c.547-1.327 1.242-1.887 1.783-2.152.494-.242.616-.12 1.097-.404 1.06-.627.821-1.481 1.727-1.965.701-.374 1.18-.045 1.673-.557.275-.287.222-.491.465-.878.226-.359.654-.79 1.545-1.084M26.422 168.17c.476-1.355 1.14-1.95 1.667-2.243.48-.268.609-.152 1.074-.462 1.025-.681.742-1.522 1.62-2.053.681-.41 1.177-.107 1.642-.645.26-.3.196-.502.418-.9.207-.37.611-.825 1.486-1.164M28.327 170.94c.358-1.389.969-2.04 1.467-2.377.456-.308.594-.203 1.032-.551.962-.768.608-1.582 1.437-2.185.643-.468 1.163-.208 1.58-.784.232-.322.152-.517.339-.934.174-.386.538-.873 1.38-1.287M31.17 173.63c.13-1.429.628-2.17 1.066-2.582.4-.377.554-.295.93-.71.826-.912.346-1.658 1.067-2.387.56-.565 1.115-.392 1.434-1.027.178-.355.067-.535.185-.976.11-.41.39-.949 1.155-1.492M8.503 173.871c.956-1.328 1.876-1.766 2.546-1.918.612-.138.715.03 1.325-.158 1.342-.417 1.302-1.428 2.435-1.725.877-.231 1.322.26 2.004-.178.382-.245.377-.487.748-.851.346-.339.935-.706 2.002-.795M10.703 177.092c.957-1.328 1.876-1.766 2.546-1.918.613-.138.716.03 1.326-.158 1.341-.417 1.302-1.428 2.434-1.726.878-.23 1.323.262 2.005-.177.381-.245.377-.486.748-.851.345-.34.935-.706 2.001-.795M13.13 180.187c.957-1.328 1.877-1.766 2.547-1.917.612-.139.715.03 1.325-.159 1.342-.417 1.302-1.428 2.435-1.725.877-.23 1.322.261 2.004-.178.381-.245.377-.486.748-.851.346-.339.935-.705 2.002-.795M14.893 182.386c.957-1.328 1.877-1.766 2.547-1.918.612-.138.715.03 1.325-.159 1.341-.416 1.302-1.427 2.435-1.725.877-.23 1.323.261 2.004-.177.381-.246.377-.487.748-.852.346-.338.935-.705 2.001-.795"/>
        <g>
            <g transform="scale(-1 1) rotate(-40 190.8 369.897)">
                <mask id="k" fill="#fff">
                    <use xlink:href="#j"/>
                </mask>
                <path fill="#416BE5" d="M11.232.003c-1.153.041-2.057.71-2.567 1.165L.054 24.988a.906.906 0 0 0 .314 1.037l17.22 12.69 21.473.118a.757.757 0 0 0 .713-.491L47.9 16.709l.311-.924c.31-.923-.084-1.949-.951-2.392a8.174 8.174 0 0 0-2.201-.762c-4.974-.942-7.863 3.548-13.5 3.946-4.036.285-7.272-1.623-8.186-2.278C17.438 10.046 15.869-.163 11.232.003" mask="url(#k)"/>
            </g>
            <path fill="#C9E5FA" d="M183.714 201.289c.796.719 1.034 1.742 1.12 2.376l-8.732 23.646-20.672-.976-15.9-13.341 7.931-21.53 2.894-2.53c6.268 12.224 11.915 15.158 16.035 15.442 6.808.47 14.123-5.978 17.324-3.087"/>
            <path fill="#DAEDFF" d="M175.672 223.188l7.98-22.001c-1.39-.958-4.825-3.048-9.668-3.21a18.117 18.117 0 0 0-8.245 1.695c-1.102-1.963-3.803-6.107-8.99-8.731a20.802 20.802 0 0 0-6.415-2.018l-7.903 21.95c1.674.152 4.6.652 7.643 2.518 4.697 2.883 6.63 7.157 7.25 8.724 1.426-.8 3.846-1.9 7.004-2.142 5.761-.443 9.996 2.269 11.344 3.215"/>
            <path stroke="#416BE5" stroke-linecap="round" stroke-width="2" d="M179.426 204.09c-1.354-.92-2.368-1.018-3.049-.932-.623.08-.662.274-1.3.305-1.403.067-1.712-.896-2.877-.789-.904.084-1.154.698-1.945.519-.442-.1-.52-.328-.994-.544-.44-.2-1.119-.343-2.152-.063M162.514 200.584c-.688-1.26-1.44-1.74-2.005-1.945-.517-.187-.626-.052-1.135-.283-1.121-.507-.977-1.383-1.93-1.766-.737-.295-1.177.084-1.722-.372-.305-.255-.275-.464-.558-.822-.263-.332-.736-.715-1.653-.91M160.983 203.104c-.814-1.182-1.612-1.583-2.196-1.728-.534-.132-.627.014-1.158-.163-1.168-.39-1.115-1.275-2.102-1.556-.764-.218-1.163.205-1.752-.192-.33-.222-.322-.433-.64-.76-.297-.303-.807-.635-1.74-.733M160.837 205.312c-.967-1.06-1.812-1.348-2.41-1.412-.548-.059-.62.099-1.17-.004-1.21-.227-1.278-1.112-2.294-1.256-.787-.112-1.125.361-1.763.048-.356-.175-.377-.385-.737-.665-.335-.26-.885-.52-1.823-.49M159.426 208.377c-.91-1.11-1.738-1.442-2.332-1.537-.544-.088-.625.066-1.168-.066-1.196-.29-1.218-1.177-2.225-1.375-.78-.153-1.142.302-1.762-.045-.348-.193-.357-.404-.702-.703-.32-.278-.856-.566-1.794-.586M158.585 211.633c-.812-1.183-1.609-1.586-2.192-1.732-.534-.134-.628.012-1.158-.166-1.167-.392-1.112-1.278-2.098-1.561-.764-.22-1.164.202-1.752-.197-.33-.222-.32-.433-.639-.76-.295-.305-.804-.638-1.737-.738M156.833 215.133c-.611-1.299-1.333-1.824-1.885-2.062-.505-.218-.621-.088-1.116-.35-1.089-.573-.893-1.44-1.82-1.878-.719-.34-1.181.014-1.698-.474-.289-.273-.247-.48-.508-.854-.243-.348-.691-.758-1.596-1.007M178.216 207.606c-1.354-.92-2.368-1.018-3.049-.93-.623.079-.662.272-1.3.303-1.403.068-1.711-.896-2.877-.788-.904.083-1.154.698-1.945.519-.442-.1-.52-.329-.994-.544-.44-.2-1.119-.344-2.152-.063M177.25 211.386c-1.354-.921-2.368-1.018-3.049-.932-.623.08-.662.274-1.3.305-1.403.067-1.712-.896-2.878-.789-.903.083-1.153.698-1.944.519-.442-.1-.52-.328-.994-.544-.44-.2-1.12-.343-2.152-.063M176.027 215.125c-1.353-.921-2.367-1.018-3.048-.932-.623.08-.662.274-1.3.305-1.403.067-1.712-.897-2.878-.789-.903.083-1.153.698-1.944.519-.442-.1-.52-.329-.994-.544-.44-.2-1.12-.344-2.153-.063M175.122 217.793c-1.353-.92-2.367-1.018-3.048-.93-.623.078-.662.273-1.3.303-1.403.068-1.712-.896-2.878-.788-.903.083-1.153.698-1.944.518-.442-.1-.52-.328-.994-.544-.44-.2-1.12-.343-2.152-.062"/>
        </g>
        <g>
            <g transform="rotate(10 -583.192 1001.506)">
                <mask id="m" fill="#fff">
                    <use xlink:href="#l"/>
                </mask>
                <path fill="#FFBD1A" d="M24.641 17.259c-1.228 4.857-5.568 8.447-10.734 8.447-2.996 0-5.712-1.21-7.707-3.17a11.302 11.302 0 0 1-3.376-8.084c0-.97.12-1.91.347-2.808 1.23-4.857 5.57-8.447 10.736-8.447 2.995 0 5.712 1.21 7.706 3.17a11.303 11.303 0 0 1 3.377 8.085c0 .97-.122 1.91-.349 2.807m.018-11.763C22.109 2.343 18.239.33 13.907.33 6.874.33 1.06 5.632.13 12.515A14.418 14.418 0 0 0 0 14.452a14.2 14.2 0 0 0 3.154 8.955l.6-.171-.6.171c2.551 3.155 6.42 5.167 10.753 5.167 7.032 0 12.845-5.302 13.775-12.185.086-.633.13-1.28.13-1.937 0-3.4-1.182-6.519-3.153-8.956" mask="url(#m)"/>
            </g>
            <path fill="#FFE337" d="M185.637 126.392a11.652 11.652 0 0 0-7.402-4.6c-5.34-.941-10.462 1.885-12.596 6.555-.394.863-.685 1.79-.857 2.766a11.421 11.421 0 0 0 2.053 8.76 11.65 11.65 0 0 0 7.401 4.599c5.34.941 10.463-1.884 12.595-6.555a11.423 11.423 0 0 0-1.194-11.526"/>
            <path fill="#DD7F3F" d="M175.137 132.619l2.423.427c1.572.277 2.479-.267 2.72-1.632.113-.648.006-1.207-.323-1.675-.329-.469-.846-.768-1.55-.899l-2.525-.445-.745 4.224zm2.057 5.73l-2.975-.524-.317 1.797-2.807-.495.317-1.797-1.9-.335.397-2.251 1.9.335.124-.705-1.9-.334.397-2.251 1.9.335 1.143-6.485 5.296.934c1.023.18 1.89.521 2.598 1.022.71.5 1.218 1.127 1.526 1.879.308.751.386 1.559.234 2.424-.235 1.334-.878 2.306-1.928 2.917-1.05.61-2.39.772-4.017.485l-2.442-.43-.124.704 2.975.524-.397 2.252z"/>
            <path fill="#FFF" d="M181.671 120.109l-18.3 18.469c.212.517.452 1.02.72 1.507 1.595 2.881 4.175 5.171 7.373 6.334l17.892-18.058a14.205 14.205 0 0 0-.977-2.181 13.877 13.877 0 0 0-6.708-6.071" opacity=".3"/>
            <path fill="#FF8A54" d="M166.548 134.034c1.842-.852 3.073-1.433 3.336-.868.263.565.576 1.418-1.699 3.81-2.276 2.392-3.586 3.996-3.586 3.996s-1.269-2.179-1.394-2.84c-.125-.66 2.12-3.795 2.287-3.825.166-.031 1.056-.273 1.056-.273" opacity=".1"/>
        </g>
        <g>
            <g transform="rotate(-40 325.7 79.553)">
                <mask id="o" fill="#fff">
                    <use xlink:href="#n"/>
                </mask>
                <path fill="#FFBD1A" d="M25.521 17.854c-1.272 5.025-5.767 8.738-11.118 8.738-3.102 0-5.916-1.25-7.981-3.279a11.685 11.685 0 0 1-3.497-8.363c0-1.003.125-1.976.36-2.904C4.557 7.02 9.051 3.308 14.402 3.308c3.103 0 5.916 1.25 7.982 3.28a11.686 11.686 0 0 1 3.497 8.362c0 1.003-.126 1.976-.36 2.904m.017-12.168C22.9 2.424 18.891.342 14.403.342 7.12.342 1.1 5.826.136 12.946A14.898 14.898 0 0 0 0 14.95c0 3.517 1.226 6.744 3.267 9.265l.62-.178-.62.178c2.642 3.262 6.649 5.344 11.136 5.344 7.284 0 13.304-5.485 14.268-12.605.088-.655.135-1.324.135-2.004 0-3.516-1.225-6.743-3.267-9.264" mask="url(#o)"/>
            </g>
            <path fill="#FFE337" d="M46.624 218.224c-2.994-.197-6.08.72-8.574 2.813-4.302 3.61-5.472 9.553-3.192 14.35.422.886.962 1.733 1.622 2.518 2.159 2.573 5.186 3.991 8.31 4.196 2.996.196 6.08-.721 8.574-2.814 4.301-3.61 5.474-9.552 3.191-14.348a11.779 11.779 0 0 0-1.62-2.52c-2.158-2.573-5.187-3.99-8.31-4.195"/>
            <path fill="#DD7F3F" d="M44.568 230.692l1.953-1.638c1.266-1.062 1.439-2.143.517-3.241-.438-.522-.952-.808-1.543-.859-.59-.05-1.171.16-1.743.632l-2.036 1.708 2.852 3.398zm5.913 2.178l-2.397 2.012 1.213 1.446-2.262 1.897-1.213-1.446-1.53 1.284-1.52-1.811 1.53-1.284-.475-.567-1.53 1.284-1.52-1.811 1.53-1.284-4.378-5.218 4.266-3.58c.824-.691 1.671-1.152 2.54-1.382.87-.23 1.704-.216 2.505.039.801.255 1.494.73 2.077 1.426.901 1.074 1.244 2.23 1.029 3.469-.216 1.238-.979 2.408-2.29 3.509l-1.968 1.65.476.567 2.397-2.011 1.52 1.811z"/>
            <path fill="#FFF" d="M39.004 217.192l2.453 26.794c.551.177 1.11.322 1.675.432 3.345.65 6.878.126 9.93-1.637l-2.4-26.198a14.694 14.694 0 0 0-2.379-.676 14.374 14.374 0 0 0-9.28 1.285" opacity=".3"/>
            <path fill="#FF8A54" d="M39.97 238.447c.552-2.029.912-3.391 1.535-3.224.622.167 1.507.485 1.888 3.88.38 3.396.78 5.502.78 5.502s-2.572-.442-3.179-.782c-.607-.34-1.597-4.205-1.51-4.357.086-.153.487-1.02.487-1.02" opacity=".1"/>
        </g>
    </g>
</svg>
