<svg xmlns="http://www.w3.org/2000/svg" xmlns:xlink="http://www.w3.org/1999/xlink" width="650" height="639" viewBox="0 0 650 639">
    <defs>
        <linearGradient id="b" x1="15.6%" x2="87.311%" y1="89.45%" y2="-.069%">
            <stop offset="0%" stop-color="#416BE5"/>
            <stop offset="100%" stop-color="#FFF"/>
        </linearGradient>
        <path id="a" d="M78.1 656.635c-94.294-124.531-56.231-377.486 92.577-515.149 142.798-152.78 351.99-118.467 494.54-23.565 170.559 113.545 244.72 352.257 172.96 434.224-30.047 34.32-62.37 14.532-142.94 56.303-123.955 64.262-121.161 149.318-200.88 181.075C385.245 832.99 162.21 767.71 78.1 656.635zm916.829 26.463c-49.423 0-89.497-38.727-89.497-86.494 0-47.78 40.074-86.506 89.497-86.506 49.429 0 89.503 38.727 89.503 86.506 0 47.767-40.074 86.494-89.503 86.494zm-908.33 137.83c-18.775 0-33.999-14.551-33.999-32.499 0-17.951 15.224-32.502 34-32.502 18.777 0 34 14.55 34 32.502 0 17.948-15.223 32.498-34 32.498zm615.298-33.051c-30.096 0-54.498-23.505-54.498-52.497 0-28.998 24.402-52.503 54.498-52.503 30.099 0 54.502 23.505 54.502 52.503 0 28.992-24.403 52.497-54.502 52.497z"/>
        <path id="d" d="M21.2 32.423C23.981 14.066 39.823 0 58.948 0c20.545.005 37.291 16.24 38.134 36.585a25.355 25.355 0 0 1 14.47-4.514c14.059.001 25.452 11.403 25.449 25.467-.001 14.064-11.397 25.463-25.455 25.462l-86.096-.01C11.394 82.99 0 71.586.001 57.524c0-12.612 9.168-23.075 21.199-25.101z"/>
        <path id="e" d="M411.2-77.577C413.981-95.934 429.823-110 448.948-110c20.545.005 37.291 16.24 38.134 36.585a25.355 25.355 0 0 1 14.47-4.514c14.059.001 25.452 11.403 25.449 25.467-.001 14.064-11.397 25.463-25.455 25.462l-86.096-.01c-14.056-.002-25.45-11.405-25.449-25.467 0-12.612 9.168-23.075 21.199-25.101z"/>
        <path id="f" d="M.582.548h21.122V46.04H.582z"/>
    </defs>
    <g fill="none" fill-rule="evenodd" transform="translate(-23 -158)">
        <mask id="c" fill="#fff">
            <use xlink:href="#a"/>
        </mask>
        <use fill="url(#b)" opacity=".947" transform="rotate(4 555.563 428.853)" xlink:href="#a"/>
        <g mask="url(#c)">
            <g fill="#FFF" transform="translate(95.66 395.338)">
                <use xlink:href="#d"/>
                <use xlink:href="#e"/>
            </g>
        </g>
        <g mask="url(#c)">
            <path fill="#416BE5" d="M295.076 424.083a37.894 37.894 0 0 1 5.296 12.222c1.835 7.804.732 14.345-.121 17.82-1.763 1.821-4.421 5.088-5.742 9.812-.727 2.598-.967 5.33-.705 8.126.708 7.567 2.653 15.028 5.12 22.283-.274 1.345-.461 2.801-1.884 3.451-10.094 4.611-18.587 12.084-29.071 16.028-8.41 3.165-23.407.279-29.593-6.135-2.8-2.902-3.47-6.717-3.873-10.577-1.428-13.692 3.363-25.05 12.362-35.228 13.503-15.275 29.823-26.887 47.037-37.44.337-.208.78-.245 1.174-.362"/>
            <path fill="#EA765C" d="M368.136 674.453a248.544 248.544 0 0 1 10.77 43.231 248.506 248.506 0 0 1 2.95 39.531 1206.352 1206.352 0 0 1-96.035 192.382l-15.983-6.851a658.405 658.405 0 0 1 17.904-69.06A659.647 659.647 0 0 1 328.9 773.59l-16.738-109.002 55.974 9.865"/>
            <path fill="#F57D5B" d="M122.699 809.559l10.907 17.881a686.979 686.979 0 0 0 84.373-24.047 687.22 687.22 0 0 0 103.307-46.657c1.58-.463 12.348-3.802 16.531-14.32 1.87-4.701 1.697-9.005 1.372-11.51l-19.07-70.018-52.956 8.495c6.31 16.215 12.621 32.429 18.933 48.644a2093.832 2093.832 0 0 1-163.397 91.532"/>
            <path fill="#FD5A6E" d="M394.026 728.425c-13.295 1.985-22.98-15.328-40.554-26.418-37.637-23.75-74.601 10.163-94.945-9.192-24.424-23.237 6.65-93.234 10.701-102.357 8.72-19.645 19.107-34.402 26.87-44.106 15.087.94 31.95 3.575 50.452 6.623 23.345 3.846 45.317 12.472 67.465 20.4 2.084 20.39 9.962 104.464-6.771 140.815-2.088 4.535-6.203 13.188-13.218 14.235"/>
            <path fill="#416BE5" d="M438.524 308.325c16.29 15.138 25.857 40.749 20.03 63.58-3.336 13.073-14.1 34.963-30.258 35.493-6.433.21-11.983-3.021-16.002-6.338.184-.574.203-1.086.094-1.546-1.463-6.15-26.503-5.35-42.876-4.228a136.992 136.992 0 0 1-4.419-1.254c-3.507-1.058-5.97-1.952-6.535-2.15-4.357-1.516-13.748-2.484-23.383.588-4.14 1.32-8.14 3.372-11.98 6.244-8.81 1.029-17.525 2.61-26.196 4.46-.921.197-1.956.135-2.263 1.338-2.204.153-3.026 1.095-2.384 3.409.603 2.174.805 4.462 1.184 6.699-.738.251-1.793.594-3.073.953-2.042.573-40.383 10.683-65.137-14.346-17.319-17.512-21.72-45.888-10.426-70.567 19.046 28.364 47.12 43.768 66.47 38.435 9.344-2.576 25.8-12.507 38.346-26.738.442-.501.802-.921 1.045-1.205-3.142-.623-5.458.954-7.833 1.815-8.475 3.068-16.8 6.532-25.692 8.372-1.61.333-5.314.538-9.242-.212-14.498-2.767-22.405-18.92-24.465-23.48 14.035 5.852 25.106 5.567 31.133 4.863 12.915-1.51 22.72-7.298 37.865-16.238a214.128 214.128 0 0 0 17.493-11.51c34.49-20.646 74.877-18.395 98.504 3.563M297.667 526.825c5.925-10.23 10.227-21.256 15.58-31.767.664-1.304 1.13-2.71 1.688-4.069 2.118-.204 4.416.115 5.88-2.002 8.601 2.516 17.918 3.262 25.232 9.082 7.035 5.598 14.835 9.666 22.943 13.426 10.171 4.716 20.639 5.697 31.536 4.1 3.505-.809 5.94.46 7.59 3.647 1.04 2.016 2.376 3.879 3.58 5.811-.517 1.984-.251 3.98-.096 5.974-1.755 10.302-1.942 20.534 1.257 30.64.942 2.98 1.787 5.992 2.6 9.01.095.351.451 1.256.14 2.266-.296.962-1.032 1.56-1.475 1.859a73.46 73.46 0 0 0-4.374-2.364c-6.02-2.99-11.007-4.416-13.582-5.138-25.46-7.137-38.19-10.706-49.836-12.744-27.183-4.754-40.775-7.13-48.155-4.11-1.039.426-5.186 2.224-7.03.548-2.588-2.35.498-10.496 1.056-11.911.35-.884.485-1.091 1.48-3.22a227.187 227.187 0 0 0 3.986-9.038M477.12 503.343c2.099 7.178 4.474 14.29 6.232 21.552 2.676 11.047 4.16 22.28 2.098 33.618-.597 3.285-4.924 14.306-13.566 16.528-7.851 2.02-15.552-4.387-26.02-13.094-6.059-5.042-10.064-9.553-17.825-18.37a436.905 436.905 0 0 1-14.545-17.412c3.587-8.878 7.173-17.755 10.757-26.633.927.561 1.983.983 2.763 1.703 9.844 9.09 19.661 18.21 29.458 27.35 3.796 3.542 7.515 7.164 11.29 10.728.69.652 1.537 1.461 2.44.438.684-.773.034-1.531-.522-2.14-.553-.606-1.153-1.17-1.753-1.732a84330.305 84330.305 0 0 0-38.658-36.125c-1.21-1.128-2.533-2.092-4.186-2.49-1.32-2.655-2.477-5.42-4.988-7.258-1.983-6.704-5.4-21.912.73-38.628a57.307 57.307 0 0 1 7.229-13.629 26.855 26.855 0 0 1-2.478-5.008l8.012-.38c2.304.6 3.431 2.53 4.719 4.24 4.222 5.607 8.4 11.246 12.594 16.87 5.473 7.34 7.558 11.465 8.216 12.555a200.014 200.014 0 0 1 8.544 15.703c3.152 7.205 6.306 14.409 9.46 21.614"/>
            <path fill="#F07C5B" d="M433.588 432.36l-8.01.38c-3.596-6.895-8.825-7.939-15.723-4.91-6.645 2.917-12.456.653-17.76-3.818-3.859-3.253-7.925-6.269-11.998-9.257-3.276-2.404-7.108-3.55-10.823-1.638-6.326 3.256-11.64 2.107-16.553-2.596.147-1.678 1.328-1.794 2.645-1.796 2.048-.004 4.109-.377 6.144-.145 4.309.495 12.704-1.558 13.63-5.298.846-3.407-4.695-7.483-5.623-8.152-3.381-3.263-9.325-9.937-12.108-20.074-1.786-6.503-1.466-11.506-1.063-17.814.987-15.475 6.852-31.808 10.561-31.427 2.722.28.693 9.197 6.656 13.683 7.481 5.63 16.89-3.728 26.753 1.439 8.138 4.262 7.754 13.784 13.788 14.593 4.849.65 9.67-4.885 13.17-10.071-.482 6.342.083 7.792.687 7.947 1.437.368 3.606-6.477 6.124-6.136 1.29.175 2.088 2.117 2.564 3.696 2.079 6.886.04 12.402-6.076 16.237-1.625 1.02-2.564 2.3-2.746 4.273-.276 2.992-.787 5.96-1.157 8.945-.936 7.561-5.539 12.562-11.552 16.594-1.458.977-3.23 1.762-2.824 4.045-3.687 8.757-2.011 14.729 5.667 20.191 5.207 3.706 10.418 7.407 15.627 11.11"/>
            <path fill="#05248B" d="M428.053 437.749c.895 4.412-.874 8.541-1.476 12.774-1.885 13.204-4.98 26.213-6.48 39.484-.175.372-.339.748-.53 1.109-.547 1.036-.116 2.836-1.482 3.086-1.334.243-1.845-1.403-2.596-2.316-2.518-3.061-4.9-6.236-7.499-9.224-1.253-1.44-3.11-2.09-4.77-.753-1.815 1.46-1.473 3.355-.24 5.122.854 1.223 2.42 2.115 2.124 4.008-3.527.336-6.407-4.677-9.556-1.183-2.677 2.968 1.362 5.142 2.425 7.955-1.151 0-1.965-.022-2.777.005-2.138.068-4.912-.544-5.496 2.273-.661 3.19 2.563 3.398 4.5 4.3 2.437 1.135 5.328 1.215 7.884 2.968-2.505 1.38-4.979.708-7.156 1.526-1.786.672-4.034 1.028-3.79 3.556.233 2.405 2.47 2.128 4.161 2.4 1.738.277 3.578-.15 5.227.756-4.964 1.097-12.947 2.156-22.23.047-3.916-.89-6.743-2.042-9.26-3.083-11.522-4.76-16.535-9.923-23.563-14.182-5.409-3.277-13.57-6.964-25.381-8.392-.067.006-.113-.006-.137-.035-.095-.118.17-.528.799-1.23l-15.582-4.593-4.92-30.027v.011l-.001.013-5.176-30.04c.066-3.248-1.038-6.306-1.538-9.464-.38-2.237-.582-4.525-1.185-6.7-.642-2.314.18-3.255 2.384-3.408 4.913 1.556 9.98 1.08 14.986.975 15.385-.324 26.897 8.238 38.232 16.848 2.212 1.68 4.175 3.206 6.811 3.768 7.435 1.581 14.155 4.933 20.924 8.204 6.19 2.989 12.508 5.428 19.602 5.338 10.954-.142 21.878-.63 32.762-1.896"/>
            <path fill="#DEE9FD" d="M428.053 437.749c-10.884 1.266-21.808 1.754-32.762 1.896-7.094.09-13.413-2.349-19.602-5.338-6.769-3.27-13.49-6.623-20.924-8.204-2.636-.562-4.599-2.089-6.81-3.768-11.336-8.61-22.848-17.172-38.233-16.848-5.007.106-10.073.58-14.986-.975.307-1.203 1.342-1.14 2.263-1.337 8.671-1.85 17.387-3.432 26.19-4.46 5.456-.496 10.63.087 15.404 2.208 3.225 1.432 5.465 3.262 5.465 3.262 1.865 1.35 2.814 2.32 5.33 4.117a60.03 60.03 0 0 0 3.332 2.218c4.914 4.705 10.227 5.853 16.554 2.597 3.715-1.913 7.548-.766 10.823 1.637 4.072 2.989 8.14 6.005 11.998 9.258 5.305 4.47 11.115 6.735 17.76 3.818 6.898-3.029 12.128-1.985 15.723 4.91l2.475 5.009"/>
            <path fill="#F07C5B" d="M298.924 494.346c-2.468-7.255-4.412-14.716-5.12-22.283-.624-6.649 1.59-12.929 6.447-17.94l.001-.023c.286 1.6.76 3.194.818 4.803.128 3.483 1.539 3.828 4.43 2.385 3.913-1.955 7.965-3.642 12.001-5.337 2.065-.866 3.851-.372 4.672 1.874.844 2.312-.736 3.142-2.563 3.804-3.198 1.158-6.367 2.39-9.547 3.592 3.474.41 6.751.31 10.017.062 2.162-.164 4.746-1.05 4.909 2.353.139 2.92-1.802 4.003-4.569 3.959-3.565-.056-7.131-.013-10.698-.013 4.114 1.73 8.329 2.761 12.536 3.821 1.997.503 3.07 1.773 2.838 3.877-.275 2.495-2.298 2.098-3.796 1.89-4.025-.555-8.016-1.364-12.853-2.22 4.055 4.207 8.934 6.069 12.307 9.77l.062.27c-1.467 2.114-3.763 1.795-5.882 2-4.132-3.064-7.911-2.841-11.313 1.18-1.217 1.44-3.07 1.578-4.697 2.176M400.526 515.594c-1.649-.906-3.489-.478-5.227-.756-1.69-.272-3.928.006-4.16-2.4-.244-2.527 2.002-2.883 3.788-3.554 2.179-.82 4.653-.147 7.158-1.527-2.557-1.753-5.448-1.833-7.884-2.968-1.938-.903-5.162-1.11-4.5-4.3.583-2.816 3.358-2.206 5.495-2.274.812-.026 1.626-.005 2.777-.005-1.063-2.812-5.103-4.986-2.426-7.955 3.15-3.493 6.03 1.52 9.557 1.184.297-1.893-1.27-2.785-2.124-4.008-1.234-1.767-1.575-3.662.24-5.123 1.66-1.336 3.517-.687 4.77.753 2.599 2.989 4.981 6.163 7.5 9.224.75.914 1.26 2.56 2.595 2.316 1.366-.249.935-2.05 1.482-3.085.191-.361.355-.738.53-1.109 2.51 1.836 3.666 4.603 4.987 7.258-.745.585-.818 1.416-.832 2.267-3.585 8.878-7.17 17.756-10.757 26.632a388.99 388.99 0 0 1-1.8-1.107c-1.202-1.936-2.538-3.8-3.58-5.815-1.65-3.187-4.083-4.455-7.59-3.648"/>
            <path fill="#0C298B" d="M424.252 499.533c.015-.852.087-1.683.832-2.268 1.652.397 2.976 1.36 4.185 2.49 12.89 12.036 25.775 24.08 38.658 36.125.6.561 1.2 1.125 1.753 1.73.557.61 1.205 1.368.523 2.141-.904 1.024-1.75.214-2.442-.437-3.775-3.564-7.493-7.187-11.288-10.728a7843.353 7843.353 0 0 0-29.46-27.352c-.779-.719-1.834-1.14-2.761-1.701"/>
            <path fill="#416BE5" d="M258.012 482.243l34.779-15.827"/>
            <path fill="#0C298B" d="M258.013 483.476a1.277 1.277 0 0 1-1.124-.722c-.282-.62-.01-1.35.611-1.634l36.794-16.32-.193.941a27.667 27.667 0 0 0-.388 2.67l-35.188 14.954c-.113.052-.29.113-.512.11"/>
            <g transform="translate(268.523 941.924)">
                <mask id="g" fill="#fff">
                    <use xlink:href="#f"/>
                </mask>
                <path fill="#02218D" d="M1.453.548L.583 30.56C1.535 40.518 8.378 46.59 13.864 46c4.477-.482 7.29-5.32 7.839-6.306-1.525-11.02-3.05-22.038-4.573-33.057L1.453.548z" mask="url(#g)"/>
            </g>
            <path fill="#02218D" d="M136.288 826.374l-10.499-18.349-23.912 13.398c-.572.339-5.382 3.299-6.124 9.32-.708 5.746 2.856 9.664 3.354 10.194a74.232 74.232 0 0 0 16.622-3.64 74.419 74.419 0 0 0 20.559-10.923"/>
            <path fill="#042372" d="M353.91 425.977l-6.482 73.36a41.069 41.069 0 0 0 10.153 6.303c1.829-25.67 3.657-51.34 5.487-77.008a43.604 43.604 0 0 0-9.158-2.655"/>
        </g>
    </g>
</svg>
