<svg xmlns="http://www.w3.org/2000/svg" width="362" height="81" viewBox="0 0 362 81">
    <g fill="none" fill-rule="evenodd">
        <g fill-rule="nonzero">
            <path fill="#416BE5" d="M116.08 35.47v11.988h-4.492v-15h11.439v3.011h-6.946zm9.163-3.013h4.227l-.03 1.802h.09c1.713-2.156 3.783-2.363 4.847-2.363 4.226 0 6.827 3.13 6.827 8.091 0 4.755-2.63 8.032-6.916 8.032-.591 0-3.045-.147-4.552-2.096v6.998h-4.493V32.457zm4.286 7.471c0 2.599.887 5.08 3.517 5.08 2.572 0 3.488-2.481 3.488-5.08 0-4.193-2.157-5.02-3.488-5.02-1.36 0-3.517.827-3.517 5.02zm19.212-2.628h-4.285c.207-5.227 5.438-5.404 7.064-5.404 6.769 0 6.916 3.869 6.887 5.61l-.089 6.852c-.03 1.624.03 2.628.887 2.835v.265h-4.73l-.384-1.476h-.088c-1.183 1.476-3.192 2.037-5.025 2.037-4.788 0-5.232-3.1-5.232-4.34 0-3.426 2.867-4.253 5.587-4.696 3.31-.502 4.492-.206 4.581-1.683v-.413c-.06-1.95-1.921-1.979-2.424-1.979-.798 0-2.749.177-2.749 2.392zm5.203 3.957v-.945c-1.36.59-1.212.502-2.956.798-.946.147-2.63.472-2.63 2.155 0 1.418 1.477 1.742 2.305 1.742 1.093 0 3.28-.738 3.28-3.75zm12.65-.147v6.348h-4.493v-15h4.493v5.64h5.41v-5.64h4.492v15h-4.493V41.11h-5.409zm17.173-5.64h-4.966v-3.013h14.424v3.012h-4.965v11.99h-4.493v-11.99zm12.207 5.935v-3.691h8.542v3.69h-8.542zm17.321-.295v6.348h-4.493v-15h4.493v5.64h5.409v-5.64h4.493v15h-4.493V41.11h-5.409zm18.207-3.81h-4.285c.206-5.227 5.438-5.404 7.064-5.404 6.768 0 6.916 3.869 6.887 5.61l-.089 6.852c-.03 1.624.03 2.628.887 2.835v.265h-4.73l-.384-1.476h-.088c-1.183 1.476-3.193 2.037-5.025 2.037-4.789 0-5.232-3.1-5.232-4.34 0-3.426 2.867-4.253 5.586-4.696 3.31-.502 4.493-.206 4.582-1.683v-.413c-.06-1.95-1.921-1.979-2.424-1.979-.798 0-2.749.177-2.749 2.392zm5.202 3.957v-.945c-1.36.59-1.211.502-2.955.798-.946.147-2.63.472-2.63 2.155 0 1.418 1.477 1.742 2.305 1.742 1.093 0 3.28-.738 3.28-3.75zm8.69.148v-3.691h8.542v3.69h-8.542zm12.828-8.948h8.956c1.39 0 4.936 0 4.936 3.632 0 2.038-1.418 3.249-3.044 3.515v.088c2.483.532 3.576 1.565 3.576 3.928 0 3.07-2.246 3.838-5.497 3.838h-8.927v-15zm4.493 3.012v2.865h2.335c.739 0 2.453-.03 2.453-1.388 0-1.24-1.093-1.477-2.364-1.477h-2.424zm0 5.67v3.307h2.808c2.217 0 2.512-.885 2.512-1.535 0-1.004-.443-1.772-2.571-1.772h-2.749zm13.803 11.782V49.91c.444.178.917.207 1.449.207 1.507 0 1.92-1.093 2.187-2.097l.207-.738-6.532-14.824h5.409l3.487 9.775 2.69-9.775h4.788l-5.231 15.799c-.65 2.008-1.39 4.931-5.291 4.931-1.212 0-2.394-.118-3.163-.266zm14.336-10.483h4.256c.089 1.034.591 2.57 3.133 2.57 1.448 0 3.104-.443 3.104-1.92 0-.915-.385-1.949-2.69-1.949h-1.744v-2.805h1.862c1.241 0 2.276-.443 2.276-1.595 0-1.417-1.448-1.83-2.897-1.83-.768 0-2.63.206-2.69 2.362h-4.137c-.06-4.902 4.64-5.375 7.182-5.375 2.453 0 7.153.266 7.153 4.341 0 1.772-.975 2.776-2.897 3.278v.089c2.454.472 3.193 1.978 3.193 3.69 0 3.603-3.074 4.725-7.538 4.725-4.197 0-7.389-1.417-7.566-5.58z"/>
            <path fill="#FFC000" d="M310.155 47.458v-4.665h4.877v4.665h-4.877zm9.99-15h4.227l-.03 1.8h.089c1.714-2.155 3.783-2.362 4.847-2.362 4.227 0 6.828 3.13 6.828 8.091 0 4.755-2.63 8.032-6.916 8.032-.591 0-3.045-.147-4.552-2.096v6.998h-4.493V32.457zm4.286 7.47c0 2.599.887 5.08 3.517 5.08 2.572 0 3.488-2.481 3.488-5.08 0-4.193-2.158-5.02-3.488-5.02-1.36 0-3.517.827-3.517 5.02zm23.32 12.993v-5.05c-8.719-.206-9.399-5.58-9.399-8.031 0-6.97 6.237-7.796 9.4-7.737v-5.315h4.492v5.315c8.217-.089 9.4 5.02 9.4 7.766 0 3.603-1.715 7.855-9.4 8.003v5.05h-4.492zm.149-8.061v-9.745h-.592c-2.423 0-4.285 1.595-4.285 4.607 0 4.43 3.162 5.197 4.877 5.138zm4.197-9.745v9.745c2.364.088 4.877-1.27 4.877-5.109 0-3.189-1.774-4.666-4.877-4.636z"/>
        </g>
        <path fill="#416BE5" d="M21.112 27.085c5.745-3.47 14.845-7.977 26.778-10.086a77.564 77.564 0 0 1 19.854-.917l5.094 25.673s-9.916 6.52-16.98 9.825c-4.932 2.306-12.48 4.917-23.12 5.37L21.112 27.085zm0-14.032c6.956-2.093 17.334-4.25 29.837-3.352a81.721 81.721 0 0 1 16.118 2.804l.493 1.515a75.523 75.523 0 0 0-25.33-.494 74.942 74.942 0 0 0-18.883 5.457l-2.235-5.93zM22.388.89c7.041-.902 17.586-1.384 29.87 1.366a85.95 85.95 0 0 1 20.85 7.612l4.77 27.455-3.268 2.602-5.49-28.43a70.796 70.796 0 0 0-18.366-5.856c-11.193-1.94-20.607-.784-26.601.456L22.388.889zm18.781 69.956a149.604 149.604 0 0 0 20.585-7.306 149.008 149.008 0 0 0 16.802-8.698l1.671 6.088a109.592 109.592 0 0 1-14.514 9.916 110.319 110.319 0 0 1-21.2 9.307l-3.344-9.307zm40.114-18.318l2.182-1.905.985 6.442-2.463 1.995-.704-6.532z"/>
        <path fill="#FFC000" d="M10.688 58.042c-2.615-5.391.601-12.857 7.891-20.53l-.262-.6C4.701 47.267-2.56 58.117.826 65.1c5.073 10.462 32.12 8.28 60.413-4.872 12.44-5.783 23.048-12.725 30.6-19.577-6.395 5.05-14.34 9.935-23.329 14.113-26.776 12.448-52.664 13.916-57.822 3.279"/>
        <path fill="#FFC000" d="M100.597 16.204c-2.63-5.224-11.737-6.488-23.495-4.142l.19 1.052c6.793-.099 11.736 1.587 13.548 5.184 4.242 8.423-10.284 24.125-32.445 35.072-6.196 3.06-12.331 5.424-18.05 7.06 8.19-1.114 18.065-4.216 28.088-9.167 22.034-10.884 36.435-26.58 32.164-35.059"/>
    </g>
</svg>
