<?xml version="1.0" encoding="UTF-8"?>
<svg width="71px" height="72px" viewBox="0 0 71 72" version="1.1" xmlns="http://www.w3.org/2000/svg" xmlns:xlink="http://www.w3.org/1999/xlink">
    <!-- Generator: Sketch 52.2 (67145) - http://www.bohemiancoding.com/sketch -->
    <title>Rectangle + Rectangle Copy Mask</title>
    <desc>Created with Sketch.</desc>
    <defs>
        <path d="M67.9719949,34.8588789 L66.7634905,33.5380216 C66.0493742,32.7124859 65.829463,31.5015166 66.3240343,30.5108737 L67.1481977,28.9150214 C68.1919061,26.658557 68.2464719,24.1267305 67.2027635,21.8704495 C66.1590551,19.6136182 64.2366174,17.9627301 61.8743574,17.3023015 L60.1167158,16.8616489 C59.9940343,16.8310123 59.8762966,16.7910197 59.7624042,16.7446063 C59.7486712,16.7391027 59.7342058,16.7345164 59.7204728,16.7286459 C59.7115006,16.7247934 59.7030777,16.7200236 59.6941054,16.7161711 C59.4516721,16.6092184 59.2299298,16.4686939 59.0340056,16.2997342 C58.5258844,15.8618334 58.1869539,15.2382787 58.0840479,14.5503322 L57.9188856,12.7339701 C57.8981945,12.5826219 57.8736582,12.4294391 57.8449105,12.2751557 C57.4151589,9.95851885 56.0890999,7.34964239 54.1835081,6.1115222 C52.0960912,4.73562926 49.5692182,4.40541496 47.2073244,5.17609846 L45.5042486,5.72627218 C45.1609235,5.82937242 44.8122882,5.86808088 44.4731745,5.84569969 C44.2699261,5.83212421 44.0699735,5.7967179 43.8767959,5.74003111 C43.8125254,5.72113551 43.7488043,5.69985503 43.6859987,5.67618968 C43.2467256,5.51089907 42.8502995,5.23113417 42.5377363,4.84588415 L41.4390959,3.46980776 C39.8460672,1.59840992 37.4843565,0.607767002 35.0671644,0.607767002 L35.0669813,0.607767002 C32.6501554,0.607950455 30.2880785,1.59859337 28.6952329,3.46980776 L27.5965925,4.84588415 C26.8275442,5.72627218 25.6737886,6.05648648 24.6298971,5.72627218 L22.9271875,5.17609846 C20.5649275,4.40559841 18.0382376,4.73562926 15.9508207,6.05648648 C13.9183359,7.43237942 12.5450353,10.312582 12.2154432,12.7341535 L12.0502809,14.5503322 C11.885668,15.6510466 11.1166197,16.5866538 10.0177961,16.8616489 L8.25997141,17.3023015 C5.89771136,17.9627301 3.97527369,19.6136182 2.93156527,21.8704495 C1.88785685,24.1267305 1.94242266,26.658557 2.98613108,28.9150214 L3.81029452,30.5108737 C4.30486582,31.5015166 4.08495463,32.7124859 3.37065523,33.5380216 L2.16233386,34.8588789 C0.514373193,36.7299098 -0.254675116,39.1514814 0.0749170165,41.6280887 C0.459441171,44.0498437 1.83274172,46.1964201 3.97527369,47.4620582 L5.5131872,48.3974819 C6.44684847,49.0030582 6.94141978,50.1035891 6.7764406,51.2043035 L6.44684847,52.9656299 C6.06232432,55.4422372 6.7764406,57.8638088 8.36965235,59.7348397 C9.96249788,61.6062375 12.215077,62.6519162 14.7966989,62.5968805 L16.5545236,62.5418447 C17.762845,62.6520996 18.6968725,63.2022733 19.1361456,64.1929163 L19.8502619,65.8441712 C20.8390383,68.1554879 22.7620252,69.8065594 25.1241022,70.5222072 C27.4861791,71.2374881 30.0130522,70.8524215 32.045537,69.4214929 L33.5287016,68.4306665 C33.9681577,68.1554879 34.5176611,67.9901973 35.0667982,67.9901973 C35.6161184,67.9901973 36.1656217,68.1554879 36.6050779,68.4306665 L38.0882425,69.4214929 C39.4615431,70.3571001 41.0547548,70.8524215 42.7027155,70.8524215 L42.7028986,70.8524215 C43.4719469,70.8524215 44.2408121,70.7421666 45.0098604,70.5222072 C47.3719373,69.8065594 49.2947412,68.1554879 50.2835176,65.8441712 L50.997817,64.1929163 C51.272294,63.5739479 51.7613721,63.105227 52.3713007,62.8274801 C52.7100481,62.6730132 53.0870649,62.5789021 53.4845897,62.5491828 C53.5162671,62.546798 53.5475784,62.5434958 53.5792558,62.5418447 L55.3370805,62.5968805 L55.3372637,62.5968805 C55.3737019,62.5959632 55.4105064,62.5928445 55.4471277,62.5915603 C56.5675578,62.5515677 57.7346802,62.3066588 58.818489,61.8469271 C59.9378205,61.3723357 60.9677959,60.6706303 61.7643102,59.7348397 C63.357522,57.8638088 64.0714552,55.4422372 63.6871141,52.9656299 L63.357522,51.2043035 C63.1923597,50.1035891 63.6871141,49.0030582 64.6758905,48.3974819 L66.158872,47.4620582 C68.301404,46.1964201 69.6747045,44.0498437 70.0592287,41.6280887 C70.3888208,39.1514814 69.6197725,36.7299098 67.9719949,34.8588789" id="path-1"></path>
        <linearGradient x1="50%" y1="0%" x2="50%" y2="100%" id="linearGradient-3">
            <stop stop-color="#FFFFFF" offset="0%"></stop>
            <stop stop-color="#FFFFFF" stop-opacity="0" offset="100%"></stop>
        </linearGradient>
    </defs>
    <g id="Page-1" stroke="none" stroke-width="1" fill="none" fill-rule="evenodd">
        <g id="VUZ_-Illustration_m-Copy" transform="translate(-103.000000, -37.000000)">
            <g id="Rectangle-+-Rectangle-Copy-Mask" transform="translate(103.000000, 37.259703)">
                <mask id="mask-2" fill="white">
                    <use xlink:href="#path-1"></use>
                </mask>
                <use id="Mask" fill="#FFC000" xlink:href="#path-1"></use>
                <path d="M63.2073171,36.607767 C63.2073171,52.1782347 50.6087096,64.8005381 35.0674724,64.8005381 C19.5262353,64.8005381 6.92682927,52.1782347 6.92682927,36.607767 C6.92682927,21.0364993 19.5262353,8.41499592 35.0674724,8.41499592 C50.6087096,8.41499592 63.2073171,21.0364993 63.2073171,36.607767 Z" id="Stroke-13" stroke="#FFFFFF" stroke-width="0.75" mask="url(#mask-2)"></path>
                <polygon id="Rectangle" fill="url(#linearGradient-3)" mask="url(#mask-2)" points="79.7755438 -34.0910282 90.9146341 -34.0910282 43.1756757 22.294514 32.0365854 22.294514"></polygon>
                <polygon id="Rectangle-Copy" fill="url(#linearGradient-3)" mask="url(#mask-2)" points="63.3243243 -34.0910282 74.4634146 -34.0910282 26.7244562 22.294514 15.5853659 22.294514"></polygon>
            </g>
        </g>
    </g>
</svg>