<?xml version="1.0" encoding="UTF-8"?>
<svg width="1400px" height="1638px" viewBox="0 0 1400 1638" version="1.1" xmlns="http://www.w3.org/2000/svg" xmlns:xlink="http://www.w3.org/1999/xlink">
    <!-- Generator: Sketch 52.2 (67145) - http://www.bohemiancoding.com/sketch -->
    <title>Group 9</title>
    <desc>Created with Sketch.</desc>
    <defs>
        <radialGradient cx="50%" cy="50%" fx="50%" fy="50%" r="18.7855642%" id="radialGradient-1">
            <stop stop-color="#FFFFFF" offset="0%"></stop>
            <stop stop-color="#F3F3FF" offset="34.7893792%"></stop>
            <stop stop-color="#FFFFFF" offset="100%"></stop>
        </radialGradient>
        <polygon id="path-2" points="0 1.03619559 87.4120246 1.03619559 87.4120246 89.6617647 0 89.6617647"></polygon>
        <polygon id="path-4" points="0 0.002906887 160.318266 0.002906887 160.318266 128.915031 0 128.915031"></polygon>
        <polygon id="path-6" points="0 0.00232252427 128.566237 0.00232252427 128.566237 102.999631 0 102.999631"></polygon>
        <polygon id="path-8" points="0 1.15006324 97.3452092 1.15006324 97.3452092 99.5147059 0 99.5147059"></polygon>
        <polygon id="path-10" points="0 0.819847059 67.5456554 0.819847059 67.5456554 70.9411765 0 70.9411765"></polygon>
        <polygon id="path-12" points="0 0.592111765 49.6659231 0.592111765 49.6659231 51.2352941 0 51.2352941"></polygon>
        <polygon id="path-14" points="0 0.967875 81.4521138 0.967875 81.4521138 83.75 0 83.75"></polygon>
        <polygon id="path-16" points="0 1.00203529 84.4320692 1.00203529 84.4320692 86.7058824 0 86.7058824"></polygon>
        <polygon id="path-18" points="0 1.50305294 127.144763 1.50305294 127.144763 130.058824 0 130.058824"></polygon>
    </defs>
    <g id="Page-1" stroke="none" stroke-width="1" fill="none" fill-rule="evenodd">
        <g id="VUZ_images_01" transform="translate(0.000000, -419.000000)">
            <g id="Group-9" transform="translate(-60.000000, -684.000000)">
                <g id="Group-6" fill="url(#radialGradient-1)" opacity="0.541852679">
                    <path d="M0,1513.33308 C422.367932,1812.03265 798.69976,2051.58904 1129,2232 C827.728608,2006.40442 451.394522,1698.40367 0,1308 L0,1513.33308 Z M0,1924.19955 C384.934808,2049.43337 761.268894,2152.03201 1129,2232 C776.395236,2100.52954 400.06115,1929.53105 0,1719 L0,1924.19955 Z M0,2335 C377.291478,2293.47819 753.625564,2259.31002 1129,2232.5 C753.625564,2205.68773 377.291478,2171.52181 0,2130 L0,2335 Z M0,2745 C400.06115,2534.47028 776.395236,2363.46878 1129,2232 C761.268894,2311.96608 384.934808,2414.56518 0,2539.79955 L0,2745 Z M0,3156 C451.394522,2765.59538 827.728608,2457.59613 1129,2232 C798.69976,2412.4114 422.367932,2651.96612 0,2950.66642 L0,3156 Z M0,3361 L205.272522,3361 C595.563306,2909.60096 903.47096,2533.26913 1129,2232 L0,3361 Z M616.142535,3361 C826.615088,2960.93885 997.568329,2584.60476 1129,2232 C948.75646,2562.30024 709.422375,2938.63207 411,3361 L616.142535,3361 Z M1026.33409,3361 C1067.92311,2983.70626 1102.14433,2607.37444 1129,2232 C1048.97958,2599.73111 946.31367,2976.06519 821,3361 L1026.33409,3361 Z M1437,3361 C1311.68633,2976.06519 1209.02042,2599.73111 1129,2232 C1155.85567,2607.37444 1190.07689,2983.70626 1231.66591,3361 L1437,3361 Z M1847,3361 C1548.57763,2938.63207 1309.24354,2562.30024 1129,2232 C1260.43167,2584.60476 1431.38491,2960.93885 1641.85521,3361 L1847,3361 Z M2258,3361 L1129,2232 C1354.52904,2533.26913 1662.43669,2909.60096 2052.72748,3361 L2258,3361 Z M2258,2950.66642 C1835.63207,2651.96612 1459.30024,2412.4114 1129,2232 C1430.27139,2457.59613 1806.60322,2765.59538 2258,3156 L2258,2950.66642 Z M2258,2539.79955 C1873.06519,2414.56518 1496.73111,2311.96608 1129,2232 C1481.60476,2363.46878 1857.93885,2534.47028 2258,2745 L2258,2539.79955 Z M2258,2130 C1880.70626,2171.52181 1504.37444,2205.68773 1129,2232.5 C1504.37444,2259.31002 1880.70626,2293.47819 2258,2335 L2258,2130 Z M2258,1719 C1857.93885,1929.53105 1481.60476,2100.52954 1129,2232 C1496.73111,2152.03201 1873.06519,2049.43337 2258,1924.19955 L2258,1719 Z M2258,1513.33308 L2258,1308 C1806.60322,1698.40367 1430.27139,2006.40442 1129,2232 C1459.30024,2051.58904 1835.63207,1812.03265 2258,1513.33308 Z M2258,1103 L2052.72748,1103 C1662.43669,1554.39452 1354.52904,1930.72861 1129,2232 C1395.10982,1965.89244 1771.44164,1589.55836 2258,1103 Z M1641.85521,1103 C1431.38491,1503.05889 1260.43167,1879.39298 1129,2232 C1309.24354,1901.69976 1548.57763,1525.36567 1847,1103 L1641.85521,1103 Z M1231.66591,1103 C1190.07689,1480.29148 1155.85567,1856.62331 1129,2232 C1209.02042,1864.26664 1311.68633,1487.93255 1437,1103 L1231.66591,1103 Z M821,1103 C946.31367,1487.93255 1048.97958,1864.26664 1129,2232 C1102.14433,1856.62331 1067.92311,1480.29148 1026.33409,1103 L821,1103 Z M411,1103 C709.422375,1525.36567 948.75646,1901.69976 1129,2232 C997.568329,1879.39298 826.615088,1503.05889 616.142535,1103 L411,1103 Z M205.272522,1103 C595.563306,1554.39452 903.47096,1930.72861 1129,2232 C862.890184,1965.89244 486.558356,1589.55836 0,1103 L205.272522,1103 Z" id="Fill-1"></path>
                </g>
                <g id="Icons-/-Coin" transform="translate(1310.570658, 2536.020905) rotate(-20.000000) translate(-1310.570658, -2536.020905) translate(1266.570658, 2490.520905)">
                    <g id="Group-12">
                        <g id="Group-3" transform="translate(0.000000, 0.301906)">
                            <mask id="mask-3" fill="white">
                                <use xlink:href="#path-2"></use>
                            </mask>
                            <g id="Clip-2"></g>
                            <path d="M77.4436554,54.1574456 C73.58384,69.3999456 59.9424862,80.6638721 43.7071631,80.6638721 C34.2925169,80.6638721 25.7551631,76.8686368 19.4868554,70.7167691 C12.9464246,64.2972544 8.87676308,55.3069897 8.87676308,45.3478426 C8.87676308,42.3073721 9.25448615,39.355225 9.96660923,36.5382397 C13.8304862,21.2984162 27.4691323,10.0331515 43.7071631,10.0331515 C53.1218092,10.0331515 61.6591631,13.8283868 67.9274708,19.9815926 C74.4665477,26.3997691 78.5389169,35.3913721 78.5389169,45.3478426 C78.5389169,48.3909897 78.1571323,51.3417985 77.4436554,54.1574456 M77.4991631,17.2462397 C69.4843938,7.35132794 57.3241477,1.03619559 43.7071631,1.03619559 C21.6029169,1.03619559 3.33411692,17.6717985 0.412516923,39.2709162 C0.143101538,41.2568574 -0.000406153846,43.2842838 -0.000406153846,45.3478426 C-0.000406153846,56.0162544 3.72131692,65.8041074 9.91380923,73.4507838 L11.7970092,72.9128132 L9.91380923,73.4507838 C17.9299323,83.3483721 30.0888246,89.6621662 43.7071631,89.6621662 C65.8087015,89.6621662 84.0775015,73.025225 87.0018092,51.4274456 C87.2698708,49.4401662 87.4120246,47.4100632 87.4120246,45.3478426 C87.4120246,34.6821074 83.6943631,24.8942544 77.4991631,17.2462397" id="Fill-1" fill="#FFBD1A" mask="url(#mask-3)"></path>
                        </g>
                        <path d="M69.1249844,19.6972214 C62.5466418,13.401666 53.5870245,9.51726176 43.7067234,9.51726176 C26.6655484,9.51726176 12.3523253,21.0431394 8.29733839,36.6368932 C7.54999321,39.5190472 7.15358769,42.5394899 7.15358769,45.6502993 C7.15358769,55.8398433 11.4259583,65.0367214 18.2898833,71.6047464 C24.8682259,77.9003018 33.8264224,81.7819676 43.7067234,81.7819676 C60.7464777,81.7819676 75.0625423,70.2588284 79.1118461,54.6637054 C79.8620329,51.7829206 80.26128,48.7638471 80.26128,45.6502993 C80.26128,35.4634937 75.9874886,26.2638772 69.1249844,19.6972214" id="Fill-4" fill="#FFE337"></path>
                        <path d="M40.0251077,44.6617294 L47.7596308,44.6617294 C52.7756308,44.6617294 55.2843077,42.4870971 55.2843077,38.1378324 C55.2843077,36.0729353 54.6466462,34.4041559 53.3713231,33.1355088 C52.0987077,31.8668618 50.336,31.2231706 48.0872615,31.2030971 L40.0251077,31.2030971 L40.0251077,44.6617294 Z M49.5209846,61.2504941 L40.0251077,61.2504941 L40.0251077,66.9754647 L31.0667077,66.9754647 L31.0667077,61.2504941 L25.0055385,61.2504941 L25.0055385,54.0775529 L31.0667077,54.0775529 L31.0667077,51.8333324 L25.0055385,51.8333324 L25.0055385,44.6617294 L31.0667077,44.6617294 L31.0667077,24.0007147 L47.9681231,24.0007147 C51.2322462,24.0007147 54.0996923,24.5815088 56.5677538,25.7417588 C59.0358154,26.9033471 60.9515077,28.5614206 62.3161846,30.7159794 C63.6795077,32.8705382 64.3618462,35.3248618 64.3618462,38.0802882 C64.3618462,42.3305235 62.9024,45.6854794 59.9862154,48.1451559 C57.0700308,50.6034941 53.0139077,51.8333324 47.8192,51.8333324 L40.0251077,51.8333324 L40.0251077,54.0775529 L49.5209846,54.0775529 L49.5209846,61.2504941 Z" id="Fill-6" fill="#DD7F3F"></path>
                        <path d="M53.4220923,2.44268088 L6.86332308,69.4869309 C7.80018462,70.9710338 8.81556923,72.3962544 9.91353846,73.753225 C16.4201231,81.7879897 25.6574154,87.4580926 36.1889846,89.3102103 L81.7120615,23.7567544 C80.4787077,21.564725 79.0693538,19.4864456 77.4988923,17.5486809 C71.4499077,10.0813279 63.0384615,4.65612206 53.4220923,2.44268088" id="Fill-8" fill="#FFFFFF" opacity="0.3"></path>
                        <path d="M14.2134892,53.7156941 C19.45152,50.0783706 22.9444431,47.6120029 24.0667815,49.2152088 C25.18912,50.8170765 26.6241969,53.2834441 20.8865969,61.9150618 C15.1476431,70.5466794 11.9674585,76.2181206 11.9674585,76.2181206 C11.9674585,76.2181206 6.85262769,70.1759882 6.10530462,68.2034294 C5.35662769,66.2308706 10.5946585,55.3189 11.0942277,55.1342235 C11.5924431,54.9482088 14.2134892,53.7156941 14.2134892,53.7156941" id="Fill-10" fill="#FF8A54" opacity="0.1"></path>
                    </g>
                </g>
                <g id="Group-30-Copy-2" transform="translate(990.551142, 2567.346144) rotate(200.000000) translate(-990.551142, -2567.346144) translate(909.551142, 2501.747552)">
                    <g id="Group-3" transform="translate(0.318132, 2.137273)">
                        <mask id="mask-5" fill="white">
                            <use xlink:href="#path-4"></use>
                        </mask>
                        <g id="Clip-2"></g>
                        <path d="M37.2677485,0.00956794674 C33.4423167,0.14754781 30.4443042,2.36429 28.7512616,3.87602558 C19.2273943,30.2352153 9.70352691,56.5954121 0.178654199,82.9535947 C-0.272756805,84.205485 0.150503847,85.6054267 1.2212226,86.3950341 C20.2659412,100.438766 39.3116651,114.48149 58.3573891,128.525221 C82.1072379,128.655144 105.858092,128.785067 129.607941,128.914989 C130.659558,128.921032 131.602595,128.270412 131.972571,127.28441 L158.935581,55.4684087 C159.279417,54.4471563 159.624259,53.4238896 159.969101,52.4026372 C161.00061,49.3388799 159.688603,45.9326909 156.813246,44.4622485 C154.775361,43.4188387 152.325275,42.4660727 149.51024,41.932282 C133.007096,38.8030598 123.420896,53.710928 104.714987,55.0323118 C91.3224568,55.9770206 80.5861135,49.644047 77.5529131,47.4696052 C57.8617418,33.3493302 52.654932,-0.542351507 37.2677485,0.00956794674" id="Fill-1" fill="#FFC000" mask="url(#mask-5)"></path>
                    </g>
                    <path d="M40.8808107,2.73449049 C37.3463649,2.86472511 34.5761507,4.96261304 33.0137219,6.3941843 L4.95793485,85.3506901 C23.0507407,99.2605552 41.1445455,113.17042 59.2373513,127.080286 L127.668537,127.080286 C136.200956,103.13024 144.734375,79.182213 153.267794,55.2321672 C152.617448,51.0202382 151.966103,46.8083092 151.316756,42.5963802 C109.582724,60.3486715 89.099322,55.7490674 78.0933896,47.6603869 C59.9036812,34.2936708 55.0935184,2.21153287 40.8808107,2.73449049" id="Fill-4" fill="#FFE6B3"></path>
                    <path d="M14.3084749,74.2623097 C23.1512548,49.8614999 31.9940346,25.4586696 40.8378155,1.05785982 C46.3889549,1.58725798 59.5204779,3.61089254 72.1224153,13.5603449 C82.0223643,21.3760399 87.0669434,30.5091684 89.3915143,35.5344097 C96.3482082,32.8874189 111.987505,28.0955573 130.687186,32.5035042 C139.432858,34.5655303 146.331488,38.0470304 151.209883,41.0910698 C142.339073,65.3948905 133.467261,89.697701 124.59645,114.001522 C120.036407,110.807958 111.570043,105.817067 99.9031398,104.066214 C81.8932214,101.363656 67.9247728,108.130658 63.0283575,110.801896 C61.1172439,105.705933 57.326051,97.7235387 49.8477802,90.3432839 C36.2056925,76.881012 19.7284693,74.7331103 14.3084749,74.2623097" id="Fill-6" fill="#F9F7E1"></path>
                    <path d="M45.9109808,16.9192712 C51.4482167,17.4470784 54.3018248,19.2958613 55.8862469,20.9113593 C57.3346848,22.3898024 57.0132676,22.9457981 58.6059312,24.3348154 C62.1137058,27.3898757 65.023974,25.6616233 67.8250427,28.3269034 C69.9956392,30.3914749 69.3043861,32.4152215 71.7551925,33.6040025 C73.1263666,34.2688645 73.8289517,33.8703361 75.5339053,34.3164935 C77.1183274,34.7315462 79.199298,35.7784123 81.2771779,38.5953276" id="Stroke-8" stroke="#F6BE4E" stroke-width="2" stroke-linecap="round"></path>
                    <path d="M94.7365822,44.8713011 C99.2476773,43.2704352 102.233938,43.6212336 104.141259,44.2550837 C105.88495,44.8332515 105.870632,45.3640894 107.687956,45.8243963 C111.688728,46.8387421 113.215607,44.5028699 116.507653,45.4791661 C119.056202,46.2364453 119.372214,47.9922935 121.770427,47.9950777 C123.111176,47.9969337 123.487527,47.4475351 124.997021,47.1663396 C126.398109,46.9046328 128.450652,46.9361861 131.243624,48.2855536" id="Stroke-10" stroke="#F6BE4E" stroke-width="2" stroke-linecap="round"></path>
                    <path d="M94.4363805,54.2123554 C99.0327276,53.1404431 101.919415,53.7180847 103.715665,54.4590653 C105.358872,55.1370924 105.283357,55.6194529 107.012147,56.1962438 C110.817097,57.4646733 112.57408,55.4671733 115.687312,56.6403217 C118.098758,57.5505964 118.21052,59.1788822 120.558533,59.3873096 C121.871488,59.5047095 122.302427,59.0359606 123.810713,58.9092027 C125.212272,58.7918028 127.219964,58.9968273 129.802578,60.4677291" id="Stroke-12" stroke="#F6BE4E" stroke-width="2" stroke-linecap="round"></path>
                    <path d="M90.5253318,59.9117964 C95.1201031,59.2121081 97.809033,60.3991192 99.4241529,61.6341919 C100.900275,62.7653173 100.752467,63.381177 102.327453,64.3927072 C105.792619,66.6191911 107.798305,64.2831713 110.612529,66.2816419 C112.79343,67.8296742 112.646601,69.9656234 114.874487,70.5926603 C116.120577,70.9425044 116.609028,70.3981783 118.081235,70.4607702 C119.45066,70.5188913 121.350629,71.0889248 123.609839,73.3936487" id="Stroke-14" stroke="#F6BE4E" stroke-width="2" stroke-linecap="round"></path>
                    <path d="M86.8790171,70.5708614 C91.6664327,69.6324985 94.5450527,70.6160061 96.2995814,71.7102254 C97.9029285,72.709856 97.7784866,73.3117841 99.4795361,74.191029 C103.223079,76.1279477 105.21415,73.7696794 108.264521,75.5249447 C110.626861,76.8857322 110.575439,78.9462611 112.944978,79.4181297 C114.269616,79.683623 114.754014,79.1322139 116.302854,79.1064169 C117.742678,79.0838446 119.764603,79.5202425 122.245214,81.6033437" id="Stroke-16" stroke="#F6BE4E" stroke-width="2" stroke-linecap="round"></path>
                    <path d="M83.8031249,81.4429841 C88.3940986,80.353004 91.28132,80.9297494 93.0786631,81.6747122 C94.7220344,82.3544478 94.6485708,82.8419349 96.377482,83.4203968 C100.182496,84.6923263 101.935559,82.6737175 105.04921,83.8520975 C107.46244,84.7644194 107.57817,86.4071138 109.925987,86.6122361 C111.239275,86.7281001 111.666974,86.254345 113.175495,86.1238907 C114.576336,86.0020189 116.581993,86.2054246 119.169322,87.6841928" id="Stroke-18" stroke="#F6BE4E" stroke-width="2" stroke-linecap="round"></path>
                    <path d="M79.2452314,94.3434099 C83.6235513,91.6739023 86.6150639,91.94556 88.552725,92.7121189 C90.3223808,93.4127805 90.3417268,94.1820291 92.179603,94.7051718 C96.2219123,95.8576998 97.5873372,92.3584259 100.921988,93.5136435 C103.505197,94.4079622 103.933865,96.9241579 106.317503,96.7399149 C107.649327,96.6363622 107.988392,95.8133201 109.469894,95.2874876 C110.845501,94.7993106 112.88702,94.6823096 115.752274,96.4158084" id="Stroke-20" stroke="#F6BE4E" stroke-width="2" stroke-linecap="round"></path>
                    <path d="M41.5823537,29.9570806 C47.1195897,30.4839157 49.9731978,32.3336706 51.5576199,33.9491686 C53.0060578,35.4276117 52.6846406,35.9836074 54.2783343,37.3726247 C57.7850787,40.427685 60.6953469,38.6984606 63.4964157,41.3647127 C65.6670122,43.4292842 64.9757591,45.4530308 67.4275956,46.6418118 C68.7977396,47.3066738 69.5003247,46.9081454 71.2052783,47.3543028 C72.7897004,47.7693556 74.8706709,48.8162216 76.9485509,51.6331369" id="Stroke-22" stroke="#F6BE4E" stroke-width="2" stroke-linecap="round"></path>
                    <path d="M36.1128816,41.0188883 C41.6502789,41.5466954 44.5029399,43.3954783 46.0884384,45.0109763 C47.5369185,46.4894194 47.2144617,47.0454151 48.8082018,48.4344324 C52.3150484,51.4894927 55.2254014,49.7612403 58.0275819,52.4265204 C60.1982416,54.4910919 59.5069684,56.5148385 61.9578462,57.7036195 C63.3280301,58.3684815 64.0306356,57.9699531 65.7356389,58.4161105 C67.3211374,58.8311633 69.4021685,59.8790013 71.4790788,62.6949446" id="Stroke-24" stroke="#F6BE4E" stroke-width="2" stroke-linecap="round"></path>
                    <path d="M30.2258312,53.6391193 C35.7630672,54.1659544 38.6156451,56.0157093 40.2010974,57.6312073 C41.6495353,59.1096505 41.3281181,59.6656462 42.9207817,61.0546634 C46.4285562,64.1097237 49.3388244,62.3804993 52.1398932,65.0467515 C54.3104897,67.1113229 53.6192366,69.1350695 56.070043,70.3238506 C57.4412171,70.9887126 58.1438022,70.5901842 59.8487558,71.0363416 C61.4331779,71.4513943 63.5141484,72.4982603 65.5920284,75.3151756" id="Stroke-26" stroke="#F6BE4E" stroke-width="2" stroke-linecap="round"></path>
                    <path d="M26.1619382,62.5720811 C31.6993355,63.0998882 34.5519965,64.9486711 36.137495,66.5651412 C37.5859751,68.0426123 37.2635183,68.59958 38.8572585,69.9876252 C42.364105,73.0426855 45.274458,71.3144332 48.0766385,73.9806853 C50.2472982,76.0452568 49.556025,78.0690034 52.0069028,79.2568124 C53.3781169,79.9216744 54.0807225,79.523146 55.7857257,79.9693034 C57.370194,80.3853281 59.4512251,81.4321942 61.5281354,84.2481374" id="Stroke-28" stroke="#F6BE4E" stroke-width="2" stroke-linecap="round"></path>
                </g>
                <g id="Group-30-Copy-3" transform="translate(1148.042209, 2017.497135) rotate(10.000000) translate(-1148.042209, -2017.497135) translate(1083.042209, 1965.497135)">
                    <g id="Group-3" transform="translate(0.607616, 0.338315)">
                        <mask id="mask-7" fill="white">
                            <use xlink:href="#path-6"></use>
                        </mask>
                        <g id="Clip-2"></g>
                        <path d="M29.8866394,0.00764453125 C26.8188581,0.117886719 24.4146206,1.88900391 23.0568956,3.09683984 C15.4192894,24.1571211 7.78168312,45.218207 0.143270625,66.2776836 C-0.218735625,67.2779102 0.120695625,68.3964258 0.979351875,69.0273008 C16.2521456,80.2478633 31.5257456,91.4676211 46.7993456,102.688184 C65.8453894,102.791988 84.8922394,102.895793 103.938283,102.999598 C104.781621,103.004426 105.537883,102.484598 105.834583,101.696809 L127.457402,44.3177617 C127.733139,43.5018086 128.009683,42.6842461 128.286227,41.868293 C129.113439,39.4204336 128.061283,36.6989805 125.755408,35.5241367 C124.121139,34.6904805 122.156308,33.9292461 119.898808,33.5027617 C106.664214,31.0025977 98.9766206,42.913582 83.9755331,43.969332 C73.2354769,44.7241289 64.6255331,39.6642539 62.1930769,37.9269336 C46.4018644,26.6452148 42.2262956,-0.433324219 29.8866394,0.00764453125" id="Fill-1" fill="#FFC000" mask="url(#mask-7)"></path>
                    </g>
                    <path d="M33.6671401,0.613118432 C30.8073606,0.716801652 28.5659337,2.38698562 27.3017463,3.52669729 L4.60133741,66.3860561 C19.2405307,77.460067 33.8805323,88.5340779 48.5197257,99.6080889 L103.888548,99.6080889 C110.792272,80.540825 117.696805,61.4751687 124.601337,42.4079049 C124.075132,39.054677 123.548117,35.7014491 123.02272,32.3482213 C89.2550128,46.4812891 72.6815481,42.8194228 63.7764632,36.3798107 C49.0588644,25.7382151 45.1668808,0.196778059 33.6671401,0.613118432" id="Fill-4" fill="#FFE6B3"></path>
                    <path d="M12.3706248,58.585569 C19.4757802,39.1416017 26.5809356,19.6960242 33.6868954,0.252056804 C38.1472245,0.673911678 48.6983762,2.28645998 58.8240069,10.2147554 C66.7785956,16.4427502 70.8319045,23.7205519 72.6996925,27.7249529 C78.2893817,25.6156785 90.8555243,21.7972479 105.88068,25.3097532 C112.907809,26.9528941 118.450844,29.7271534 122.370625,32.1528189 C115.242947,51.5194999 108.114464,70.8853758 100.986786,90.2520568 C97.3228003,87.7072414 90.5200947,83.7302127 81.1457619,82.3350323 C66.6748296,80.1814793 55.4512098,85.5738151 51.5169502,87.702411 C49.9813744,83.6416553 46.9351586,77.2808245 40.9263835,71.3998134 C29.9649941,60.6723015 16.7255791,58.9607301 12.3706248,58.585569" id="Fill-6" fill="#F9F7E1"></path>
                    <path d="M37.8297257,12.7684358 C42.2136465,13.2067318 44.472895,14.7419784 45.727308,16.0835031 C46.8740601,17.3112161 46.6195888,17.7729201 47.8805268,18.926373 C50.6576896,21.4633237 52.9617968,20.0281667 55.179449,22.2414403 C56.897946,23.9558797 56.3506695,25.6364179 58.2910132,26.6235927 C59.3765944,27.1757004 59.9328425,26.8447587 61.2826823,27.2152519 C62.5370954,27.5599156 64.184634,28.429243 65.8297257,30.7684358" id="Stroke-8" stroke="#F6BE4E" stroke-width="2" stroke-linecap="round"></path>
                    <path d="M77.9963398,35.3179275 C81.5798062,33.9146993 83.9519944,34.2221893 85.4671077,34.7777863 C86.8522381,35.2845754 86.8408646,35.7498777 88.2844873,36.1533566 C91.4625695,37.0424745 92.6754725,34.9949816 95.2905662,35.8507474 C97.3150501,36.5145353 97.5660796,38.0536122 99.4711416,38.0560526 C100.536189,38.0576795 100.83515,37.5761079 102.034242,37.3296279 C103.147221,37.1002306 104.777694,37.1278884 106.99634,38.3106673" id="Stroke-10" stroke="#F6BE4E" stroke-width="2" stroke-linecap="round"></path>
                    <path d="M76.8012389,42.8484617 C80.4402425,41.9088843 82.7256802,42.4152121 84.1478012,43.0647137 C85.448755,43.6590337 85.3889685,44.0818435 86.7576802,44.5874257 C89.7701215,45.6992589 91.1611535,43.9483639 93.6259507,44.9766792 C95.5351322,45.7745743 95.6236162,47.2018371 97.482577,47.3845327 C98.5220646,47.4874388 98.8632461,47.0765601 100.057381,46.9654514 C101.167018,46.8625453 102.756541,47.0422581 104.801239,48.3315671" id="Stroke-12" stroke="#F6BE4E" stroke-width="2" stroke-linecap="round"></path>
                    <path d="M73.3080047,47.576249 C77.0577606,47.0651599 79.2521747,47.9322152 80.570261,48.8343774 C81.774912,49.660611 81.6542872,50.1104674 82.9396211,50.8493423 C85.7675154,52.4756835 87.4043389,50.7693315 89.7010045,52.2291197 C91.4808205,53.359884 91.3609945,54.9200938 93.1791548,55.3781146 C94.1960783,55.6336592 94.5946996,55.2360547 95.7961553,55.2817751 C96.9137327,55.3242298 98.4642815,55.7406124 100.308005,57.4241041" id="Stroke-14" stroke="#F6BE4E" stroke-width="2" stroke-linecap="round"></path>
                    <path d="M70.6682532,56.2157914 C74.4585289,55.4755273 76.7375797,56.2514055 78.1266689,57.1146229 C79.3960652,57.9032204 79.2975425,58.3780748 80.6442914,59.0717014 C83.608116,60.599715 85.1844798,58.7393033 87.5995083,60.1240126 C89.4698119,61.1975227 89.4291,62.8230511 91.3051033,63.195303 C92.3538412,63.4047477 92.7373471,62.9697472 93.9635888,62.9493963 C95.1035213,62.9315892 96.7043123,63.2758587 98.6682532,64.919194" id="Stroke-16" stroke="#F6BE4E" stroke-width="2" stroke-linecap="round"></path>
                    <path d="M68.0222226,64.213369 C71.6569721,63.2579544 73.9428327,63.7634966 75.3658188,64.4164887 C76.6669029,65.0123063 76.6087406,65.4396098 77.977548,65.9466567 C80.9900398,67.0615578 82.3779692,65.29216 84.8430973,66.325061 C86.7536912,67.1247506 86.8453168,68.5646432 88.7041223,68.7444417 C89.7438742,68.8460015 90.0824907,68.4307347 91.276811,68.3163859 C92.3858797,68.20956 93.9737919,68.3878539 96.0222226,69.6840581" id="Stroke-18" stroke="#F6BE4E" stroke-width="2" stroke-linecap="round"></path>
                    <path d="M64.6164267,73.9545648 C68.0944208,72.1996108 70.4707804,72.3782005 72.009995,72.882142 C73.4157517,73.3427622 73.4311196,73.8484718 74.8910683,74.1923898 C78.1021465,74.9500702 79.1867954,72.6496216 81.8357327,73.4090703 C83.8877493,73.997002 84.2282691,75.6511677 86.1217538,75.5300449 C87.1797111,75.4619686 87.4490534,74.9208946 88.6259096,74.5752085 C89.7186468,74.2542773 91.3403626,74.1773599 93.6164267,75.3169749" id="Stroke-20" stroke="#F6BE4E" stroke-width="2" stroke-linecap="round"></path>
                    <path d="M33.699983,22.3572431 C38.0839037,22.7947318 40.3431522,24.3307857 41.5975653,25.6723103 C42.7443174,26.9000233 42.4898461,27.3617274 43.7515996,28.5151803 C46.5279468,31.052131 48.832054,29.6161668 51.0497062,31.8302475 C52.7682032,33.544687 52.2209267,35.2252251 54.1620861,36.2124 C55.2468516,36.7645076 55.8030998,36.4335659 57.1529396,36.8040592 C58.4073526,37.1487229 60.0548912,38.0180502 61.699983,40.3572431" id="Stroke-22" stroke="#F6BE4E" stroke-width="2" stroke-linecap="round"></path>
                    <path d="M29.5702402,31.9460503 C33.9542887,32.3843463 36.2127873,33.9195929 37.4680525,35.2611176 C38.6148381,36.4888306 38.3595437,36.9505346 39.621334,38.1039875 C42.3977621,40.6409382 44.7019364,39.2057813 46.9204689,41.4190548 C48.6390159,43.1334943 48.0917235,44.8140324 50.0321237,45.8012073 C51.1169208,46.3533149 51.6731852,46.0223732 53.0230643,46.3928665 C54.2783296,46.7375301 55.9259162,47.6076647 57.5702402,49.9460503" id="Stroke-24" stroke="#F6BE4E" stroke-width="2" stroke-linecap="round"></path>
                    <path d="M25.4404974,41.5348576 C29.8244182,41.9723464 32.0828511,43.5084002 33.3380797,44.8499248 C34.4848318,46.0776378 34.2303605,46.5393419 35.4912985,47.6927948 C38.2684613,50.2297455 40.5725685,48.7937813 42.7902207,51.0078621 C44.5087176,52.7223015 43.9614412,54.4028396 45.9017849,55.3900145 C46.9873661,55.9421222 47.5436142,55.6111804 48.893454,55.9816737 C50.1478671,56.3263374 51.7954057,57.1956648 53.4404974,59.5348576" id="Stroke-26" stroke="#F6BE4E" stroke-width="2" stroke-linecap="round"></path>
                    <path d="M22.4730731,48.1827439 C26.8571215,48.6210399 29.1156202,50.1562865 30.3708854,51.4986183 C31.5176709,52.7255242 31.2623766,53.1880354 32.5241669,54.3406811 C35.300595,56.8776318 37.6047693,55.4424748 39.8233017,57.6565556 C41.5418487,59.370995 40.9945563,61.0515331 42.9349566,62.0379009 C44.0205693,62.5900085 44.5768337,62.2590668 45.9267128,62.62956 C47.1811624,62.9750309 48.828749,63.8443582 50.4730731,66.1827439" id="Stroke-28" stroke="#F6BE4E" stroke-width="2" stroke-linecap="round"></path>
                </g>
                <g id="Icons-/-Coin" transform="translate(800.685245, 2440.234283) rotate(-30.000000) translate(-800.685245, -2440.234283) translate(751.685245, 2389.734283)">
                    <g id="Group-12">
                        <g id="Group-3" transform="translate(0.000000, 0.335082)">
                            <mask id="mask-9" fill="white">
                                <use xlink:href="#path-8"></use>
                            </mask>
                            <g id="Clip-2"></g>
                            <path d="M86.2440708,60.1088132 C81.94564,77.0263132 66.7541323,89.5280338 48.6738862,89.5280338 C38.1893938,89.5280338 28.6818862,85.3157397 21.7012708,78.4878426 C14.4176092,71.3628868 9.88548615,61.3846809 9.88548615,50.3311221 C9.88548615,46.9565338 10.3061323,43.679975 11.0991785,40.5534309 C15.4021323,23.6389015 30.5906246,11.1356956 48.6738862,11.1356956 C59.1583785,11.1356956 68.6658862,15.3479897 75.6465015,22.1773721 C82.9286554,29.3008426 87.4637938,39.2805338 87.4637938,50.3311221 C87.4637938,53.7086809 87.0386246,56.9837544 86.2440708,60.1088132 M86.3058862,19.1414309 C77.3803477,8.15916618 63.8382554,1.15006324 48.6738862,1.15006324 C24.0577938,1.15006324 3.71299385,19.6137544 0.459393846,43.5864015 C0.159363077,45.7905779 -0.000452307692,48.0407985 -0.000452307692,50.3311221 C-0.000452307692,62.1718868 4.14419385,73.0353279 11.0403785,81.5222985 L13.1375785,80.9252103 L11.0403785,81.5222985 C19.9674246,92.5075338 33.5080092,99.5151515 48.6738862,99.5151515 C73.2869631,99.5151515 93.6317631,81.049975 96.8883785,57.0788132 C97.1869015,54.8731515 97.3452092,52.6199603 97.3452092,50.3311221 C97.3452092,38.4933279 93.2050862,27.6298868 86.3058862,19.1414309" id="Fill-1" fill="#FFBD1A" mask="url(#mask-9)"></path>
                        </g>
                        <path d="M76.9800962,21.8617512 C69.6542148,14.8743765 59.6764591,10.5631147 48.6733966,10.5631147 C29.6957244,10.5631147 13.7559987,23.3555723 9.24021776,40.6629255 C8.40794699,43.8617997 7.96649538,47.2141591 7.96649538,50.6668157 C7.96649538,61.9760898 12.7243627,72.1836138 20.3682792,79.4733999 C27.6941606,86.4607745 37.670334,90.7689971 48.6733966,90.7689971 C67.6494865,90.7689971 83.5923767,77.9795788 88.1018286,60.670706 C88.9372639,57.4733514 89.38188,54.1225117 89.38188,50.6668157 C89.38188,39.3605809 84.6224304,29.1500176 76.9800962,21.8617512" id="Fill-4" fill="#FFE337"></path>
                        <path d="M44.5734154,49.5696118 L53.1868615,49.5696118 C58.7728615,49.5696118 61.5666154,47.1560088 61.5666154,42.3288029 C61.5666154,40.0369941 60.8564923,38.1848324 59.4362462,36.7767735 C58.0190154,35.3687147 56.056,34.6542882 53.5517231,34.6320088 L44.5734154,34.6320088 L44.5734154,49.5696118 Z M55.1483692,67.9813176 L44.5734154,67.9813176 L44.5734154,74.3354059 L34.5970154,74.3354059 L34.5970154,67.9813176 L27.8470769,67.9813176 L27.8470769,60.0201412 L34.5970154,60.0201412 L34.5970154,57.5293029 L27.8470769,57.5293029 L27.8470769,49.5696118 L34.5970154,49.5696118 L34.5970154,26.6381559 L53.4190462,26.6381559 C57.0540923,26.6381559 60.2473846,27.2827735 62.9959077,28.5705235 C65.7444308,29.8597588 67.8778154,31.7000382 69.3975692,34.0913618 C70.9158154,36.4826853 71.6756923,39.2067147 71.6756923,42.2649353 C71.6756923,46.9822294 70.0504,50.7058618 66.8028308,53.4358324 C63.5552615,56.1643176 59.0382154,57.5293029 53.2532,57.5293029 L44.5734154,57.5293029 L44.5734154,60.0201412 L55.1483692,60.0201412 L55.1483692,67.9813176 Z" id="Fill-6" fill="#DD7F3F"></path>
                        <path d="M59.4927846,2.71110735 L7.64324615,77.1228574 C8.68656923,78.7700485 9.81733846,80.3518868 11.0400769,81.857975 C18.2860462,90.7756809 28.5730308,97.0688721 40.3013692,99.1245191 L90.9975231,26.3673868 C89.6240154,23.934475 88.0545077,21.6278132 86.3055846,19.4771074 C79.5692154,11.1891662 70.2019231,5.16778382 59.4927846,2.71110735" id="Fill-8" fill="#FFFFFF" opacity="0.3"></path>
                        <path d="M15.8286585,59.6185176 C21.66192,55.5814882 25.5517662,52.8440912 26.8016431,54.6234735 C28.05152,56.4013706 29.6496738,59.1387676 23.2600738,68.7189147 C16.8689662,78.2990618 13.3273969,84.5937382 13.3273969,84.5937382 C13.3273969,84.5937382 7.63133538,77.8876353 6.79908923,75.6983118 C5.96533538,73.5089882 11.7985969,61.3979 12.3549354,61.1929294 C12.9097662,60.9864735 15.8286585,59.6185176 15.8286585,59.6185176" id="Fill-10" fill="#FF8A54" opacity="0.1"></path>
                    </g>
                </g>
                <g id="Icons-/-Coin" transform="translate(1401.444864, 2255.176915) rotate(-30.000000) translate(-1401.444864, -2255.176915) translate(1367.444864, 2219.176915)">
                    <g id="Group-12">
                        <g id="Group-3" transform="translate(0.000000, 0.238871)">
                            <mask id="mask-11" fill="white">
                                <use xlink:href="#path-10"></use>
                            </mask>
                            <g id="Clip-2"></g>
                            <path d="M59.8428246,42.8498471 C56.86024,54.9098471 46.3191938,63.8219647 33.7737169,63.8219647 C26.4987631,63.8219647 19.9017169,60.8191412 15.0580246,55.9517294 C10.0040554,50.8725529 6.85931692,43.7593765 6.85931692,35.8796118 C6.85931692,33.4739647 7.15119385,31.1382 7.70147077,28.9093765 C10.6871938,16.8514941 21.2261477,7.93831765 33.7737169,7.93831765 C41.0486708,7.93831765 47.6457169,10.9411412 52.4894092,15.8096118 C57.5423323,20.8877294 60.6891631,28.0019647 60.6891631,35.8796118 C60.6891631,38.2873765 60.3941477,40.6220824 59.8428246,42.8498471 M59.8857169,13.6453765 C53.6924862,5.81643529 44.2959323,0.819847059 33.7737169,0.819847059 C16.6931631,0.819847059 2.57636308,13.9820824 0.318763077,31.0714941 C0.110578462,32.6427882 -0.000313846154,34.2469059 -0.000313846154,35.8796118 C-0.000313846154,44.3205529 2.87556308,52.0647882 7.66067077,58.1149059 L9.11587077,57.6892588 L7.66067077,58.1149059 C13.8549477,65.9459647 23.2504554,70.9414941 33.7737169,70.9414941 C50.8521785,70.9414941 64.9689785,57.7782 67.2286708,40.6898471 C67.4358092,39.1174941 67.5456554,37.5112588 67.5456554,35.8796118 C67.5456554,27.4407882 64.6729169,19.6965529 59.8857169,13.6453765" id="Fill-1" fill="#FFBD1A" mask="url(#mask-11)"></path>
                        </g>
                        <path d="M53.4147606,15.5846147 C48.3314959,10.6035159 41.4081553,7.53014118 33.7733772,7.53014118 C20.6051965,7.53014118 9.54497868,16.6495169 6.41157967,28.987432 C5.83408567,31.2678176 5.52777231,33.6576183 5.52777231,36.1189181 C5.52777231,44.1809749 8.82914961,51.4576257 14.1330917,56.6543049 C19.2163564,61.6354036 26.1385991,64.7066118 33.7733772,64.7066118 C46.94046,64.7066118 58.0028736,55.5894027 61.1318811,43.2504042 C61.7115708,40.971102 62.02008,38.5823845 62.02008,36.1189181 C62.02008,28.059028 58.7176048,20.7802106 53.4147606,15.5846147" id="Fill-4" fill="#FFE337"></path>
                        <path d="M30.9284923,35.3367529 L36.9051692,35.3367529 C40.7811692,35.3367529 42.7196923,33.6161647 42.7196923,30.1749882 C42.7196923,28.5412235 42.2269538,27.2208706 41.2414769,26.2171059 C40.2580923,25.2133412 38.896,24.7040471 37.1583385,24.6881647 L30.9284923,24.6881647 L30.9284923,35.3367529 Z M38.2662154,48.4619294 L30.9284923,48.4619294 L30.9284923,52.9915765 L24.0060923,52.9915765 L24.0060923,48.4619294 L19.3224615,48.4619294 L19.3224615,42.7866353 L24.0060923,42.7866353 L24.0060923,41.0109882 L19.3224615,41.0109882 L19.3224615,35.3367529 L24.0060923,35.3367529 L24.0060923,18.9895765 L37.0662769,18.9895765 C39.5885538,18.9895765 41.8043077,19.4491059 43.7114462,20.3671059 C45.6185846,21.2861647 47.0988923,22.5980471 48.1534154,24.3027529 C49.2068923,26.0074588 49.7341538,27.9493412 49.7341538,30.1294588 C49.7341538,33.4922824 48.6064,36.1467529 46.3529846,38.0928706 C44.0995692,40.0379294 40.9652923,41.0109882 36.9512,41.0109882 L30.9284923,41.0109882 L30.9284923,42.7866353 L38.2662154,42.7866353 L38.2662154,48.4619294 Z" id="Fill-6" fill="#DD7F3F"></path>
                        <path d="M41.2807077,1.93267059 L5.30347692,54.9786706 C6.02741538,56.1529059 6.81203077,57.2805529 7.66046154,58.3542 C12.6882769,64.7113765 19.8261846,69.1976118 27.9642154,70.6630235 L63.1411385,18.7965529 C62.1880923,17.0622 61.0990462,15.4178471 59.8855077,13.8846706 C55.2112923,7.97643529 48.7115385,3.68396471 41.2807077,1.93267059" id="Fill-8" fill="#FFFFFF" opacity="0.3"></path>
                        <path d="M10.9831508,42.5003294 C15.03072,39.6224471 17.7297969,37.6710353 18.5970585,38.9395059 C19.46432,40.2069176 20.5732431,42.1583294 16.1396431,48.9877412 C11.7049969,55.8171529 9.24758154,60.3044471 9.24758154,60.3044471 C9.24758154,60.3044471 5.29521231,55.5238588 4.71773538,53.9631529 C4.13921231,52.4024471 8.18678154,43.7688 8.57281231,43.6226824 C8.95779692,43.4755059 10.9831508,42.5003294 10.9831508,42.5003294" id="Fill-10" fill="#FF8A54" opacity="0.1"></path>
                    </g>
                </g>
                <g id="Icons-/-Coin" transform="translate(863.444864, 2272.176915) rotate(-30.000000) translate(-863.444864, -2272.176915) translate(838.444864, 2246.176915)">
                    <g id="Group-12">
                        <g id="Group-3" transform="translate(0.000000, 0.172518)">
                            <mask id="mask-13" fill="white">
                                <use xlink:href="#path-12"></use>
                            </mask>
                            <g id="Clip-2"></g>
                            <path d="M44.0020769,30.9471118 C41.809,39.6571118 34.0582308,46.0936412 24.8336154,46.0936412 C19.4843846,46.0936412 14.6336154,43.9249353 11.0720769,40.4095824 C7.35592308,36.7412882 5.04361538,31.6039941 5.04361538,25.9130529 C5.04361538,24.1756412 5.25823077,22.4887 5.66284615,20.8789941 C7.85823077,12.1705235 15.6074615,5.73322941 24.8336154,5.73322941 C30.1828462,5.73322941 35.0336154,7.90193529 38.5951538,11.4180529 C42.3105385,15.0855824 44.6243846,20.2236412 44.6243846,25.9130529 C44.6243846,27.6519941 44.4074615,29.3381706 44.0020769,30.9471118 M44.0336154,9.85499412 C39.4797692,4.20075882 32.5705385,0.592111765 24.8336154,0.592111765 C12.2743846,0.592111765 1.89438462,10.0981706 0.234384615,22.4405235 C0.0813076923,23.5753471 -0.000230769231,24.7338765 -0.000230769231,25.9130529 C-0.000230769231,32.0092882 2.11438462,37.6023471 5.63284615,41.9718765 L6.70284615,41.6644647 L5.63284615,41.9718765 C10.1874615,47.6276412 17.0959231,51.2355235 24.8336154,51.2355235 C37.3913077,51.2355235 47.7713077,41.7287 49.4328462,29.3871118 C49.5851538,28.2515235 49.6659231,27.0914647 49.6659231,25.9130529 C49.6659231,19.8183471 47.5536154,14.2252882 44.0336154,9.85499412" id="Fill-1" fill="#FFBD1A" mask="url(#mask-13)"></path>
                        </g>
                        <path d="M39.2755593,11.2555551 C35.5378647,7.65809485 30.447173,5.43843529 24.8333656,5.43843529 C15.1508798,5.43843529 7.01836668,12.0246511 4.71439681,20.9353676 C4.28976887,22.5823127 4.06453846,24.3082799 4.06453846,26.0858853 C4.06453846,31.9084819 6.49202177,37.1638408 10.3919792,40.916998 C14.1296738,44.5144582 19.2195582,46.7325529 24.8333656,46.7325529 C34.5150441,46.7325529 42.6491718,40.147902 44.9499125,31.2364031 C45.376155,29.5902403 45.603,27.8650555 45.603,26.0858853 C45.603,20.2648536 43.1747094,15.0079298 39.2755593,11.2555551" id="Fill-4" fill="#FFE337"></path>
                        <path d="M22.7415385,25.5209882 L27.1361538,25.5209882 C29.9861538,25.5209882 31.4115385,24.2783412 31.4115385,21.7930471 C31.4115385,20.6131059 31.0492308,19.6595176 30.3246154,18.9345765 C29.6015385,18.2096353 28.6,17.8418118 27.3223077,17.8303412 L22.7415385,17.8303412 L22.7415385,25.5209882 Z M28.1369231,35.0002824 L22.7415385,35.0002824 L22.7415385,38.2716941 L17.6515385,38.2716941 L17.6515385,35.0002824 L14.2076923,35.0002824 L14.2076923,30.9014588 L17.6515385,30.9014588 L17.6515385,29.6190471 L14.2076923,29.6190471 L14.2076923,25.5209882 L17.6515385,25.5209882 L17.6515385,13.7146941 L27.2546154,13.7146941 C29.1092308,13.7146941 30.7384615,14.0465765 32.1407692,14.7095765 C33.5430769,15.3733412 34.6315385,16.3208118 35.4069231,17.5519882 C36.1815385,18.7831647 36.5692308,20.1856353 36.5692308,21.7601647 C36.5692308,24.1888706 35.74,26.1059882 34.0830769,27.5115176 C32.4261538,28.9162824 30.1215385,29.6190471 27.17,29.6190471 L22.7415385,29.6190471 L22.7415385,30.9014588 L28.1369231,30.9014588 L28.1369231,35.0002824 Z" id="Fill-6" fill="#DD7F3F"></path>
                        <path d="M30.3534615,1.39581765 L3.89961538,39.7068176 C4.43192308,40.5548765 5.00884615,41.3692882 5.63269231,42.1447 C9.32961538,46.7359941 14.5780769,49.9760529 20.5619231,51.0344059 L46.4273077,13.5752882 C45.7265385,12.3227 44.9257692,11.1351118 44.0334615,10.0278176 C40.5965385,5.76075882 35.8173077,2.66064118 30.3534615,1.39581765" id="Fill-8" fill="#FFFFFF" opacity="0.3"></path>
                        <path d="M8.07584615,30.6946824 C11.052,28.6162118 13.0366154,27.2068588 13.6743077,28.1229765 C14.312,29.0383294 15.1273846,30.4476824 11.8673846,35.3800353 C8.60661538,40.3123882 6.79969231,43.5532118 6.79969231,43.5532118 C6.79969231,43.5532118 3.89353846,40.1005647 3.46892308,38.9733882 C3.04353846,37.8462118 6.01969231,31.6108 6.30353846,31.5052706 C6.58661538,31.3989765 8.07584615,30.6946824 8.07584615,30.6946824" id="Fill-10" fill="#FF8A54" opacity="0.1"></path>
                    </g>
                </g>
                <g id="Icons-/-Coin" transform="translate(916.063254, 2038.959762) rotate(20.000000) translate(-916.063254, -2038.959762) translate(875.063254, 1996.459762)">
                    <g id="Group-12">
                        <g id="Group-3" transform="translate(0.000000, 0.282000)">
                            <mask id="mask-15" fill="white">
                                <use xlink:href="#path-14"></use>
                            </mask>
                            <g id="Clip-2"></g>
                            <path d="M72.1634062,50.586625 C68.56676,64.824125 55.8554985,75.345375 40.7271292,75.345375 C31.9543908,75.345375 23.9991292,71.800375 18.1582062,66.054125 C12.0637138,60.057875 8.27152923,51.660375 8.27152923,42.357875 C8.27152923,39.517875 8.62349846,36.760375 9.28706769,34.129125 C12.8874985,19.894125 25.5962369,9.371625 40.7271292,9.371625 C49.4998677,9.371625 57.4551292,12.916625 63.2960523,18.664125 C69.3892831,24.659125 73.1839908,33.057875 73.1839908,42.357875 C73.1839908,45.200375 72.8282369,47.956625 72.1634062,50.586625 M72.2151292,16.109125 C64.7468215,6.866625 53.4156831,0.967875 40.7271292,0.967875 C20.1299908,0.967875 3.10679077,16.506625 0.384390769,36.681625 C0.133344615,38.536625 -0.000378461538,40.430375 -0.000378461538,42.357875 C-0.000378461538,52.322875 3.46759077,61.465375 9.23786769,68.607875 L10.9926677,68.105375 L9.23786769,68.607875 C16.7074369,77.852875 28.0373138,83.750375 40.7271292,83.750375 C61.3217446,83.750375 78.3449446,68.210375 81.0698677,48.036625 C81.3196523,46.180375 81.4521138,44.284125 81.4521138,42.357875 C81.4521138,32.395375 77.9879292,23.252875 72.2151292,16.109125" id="Fill-1" fill="#FFBD1A" mask="url(#mask-15)"></path>
                        </g>
                        <path d="M64.4119172,18.3985035 C58.2820981,12.5180397 49.9333638,8.88975 40.7267196,8.88975 C24.8474428,8.88975 11.5101213,19.6556796 7.73161078,34.2212739 C7.03522095,36.9133958 6.66584308,39.7346883 6.66584308,42.6403895 C6.66584308,52.1580954 10.6469157,60.7485859 17.0428458,66.8835544 C23.172665,72.7640182 31.5200754,76.38975 40.7267196,76.38975 C56.6046724,76.38975 69.9446417,65.6263782 73.7178566,51.059505 C74.4168943,48.3686621 74.78892,45.5486484 74.78892,42.6403895 C74.78892,33.1252414 70.8065234,24.532193 64.4119172,18.3985035" id="Fill-4" fill="#FFE337"></path>
                        <path d="M37.2961231,41.717 L44.5032923,41.717 C49.1772923,41.717 51.5149231,39.68575 51.5149231,35.62325 C51.5149231,33.6945 50.9207385,32.13575 49.7323692,30.95075 C48.5465231,29.76575 46.904,29.1645 44.8085846,29.14575 L37.2961231,29.14575 L37.2961231,41.717 Z M46.1445538,57.212 L37.2961231,57.212 L37.2961231,62.5595 L28.9485231,62.5595 L28.9485231,57.212 L23.3006154,57.212 L23.3006154,50.512 L28.9485231,50.512 L28.9485231,48.41575 L23.3006154,48.41575 L23.3006154,41.717 L28.9485231,41.717 L28.9485231,22.41825 L44.6975692,22.41825 C47.7391385,22.41825 50.4110769,22.96075 52.7108615,24.0445 C55.0106462,25.1295 56.7957231,26.67825 58.0673538,28.69075 C59.3377231,30.70325 59.9735385,32.99575 59.9735385,35.5695 C59.9735385,39.5395 58.6136,42.67325 55.8962462,44.97075 C53.1788923,47.267 49.3993231,48.41575 44.5588,48.41575 L37.2961231,48.41575 L37.2961231,50.512 L46.1445538,50.512 L46.1445538,57.212 Z" id="Fill-6" fill="#DD7F3F"></path>
                        <path d="M49.7796769,2.281625 L6.39536923,64.905375 C7.26835385,66.291625 8.21450769,67.622875 9.23761538,68.890375 C15.3005692,76.395375 23.9080462,81.691625 33.7215538,83.421625 L76.1407846,22.190375 C74.9915231,20.142875 73.6782615,18.201625 72.2148769,16.391625 C66.5783231,9.416625 58.7403846,4.349125 49.7796769,2.281625" id="Fill-8" fill="#FFFFFF" opacity="0.3"></path>
                        <path d="M13.2443877,50.174 C18.12528,46.7765 21.3800492,44.47275 22.4258646,45.97025 C23.47168,47.4665 24.8089108,49.77025 19.4625108,57.83275 C14.1148492,65.89525 11.1514954,71.19275 11.1514954,71.19275 C11.1514954,71.19275 6.38540308,65.549 5.68903385,63.7065 C4.99140308,61.864 9.87229538,51.6715 10.3378031,51.499 C10.8020492,51.32525 13.2443877,50.174 13.2443877,50.174" id="Fill-10" fill="#FF8A54" opacity="0.1"></path>
                    </g>
                </g>
                <g id="Icons-/-Coin" transform="translate(1351.494849, 2071.711589) rotate(10.000000) translate(-1351.494849, -2071.711589) translate(1308.994849, 2027.711589)">
                    <g id="Group-12">
                        <g id="Group-3" transform="translate(0.000000, 0.291953)">
                            <mask id="mask-17" fill="white">
                                <use xlink:href="#path-16"></use>
                            </mask>
                            <g id="Clip-2"></g>
                            <path d="M74.8035308,52.3720353 C71.0753,67.1120353 57.8989923,78.0046235 42.2171462,78.0046235 C33.1234538,78.0046235 24.8771462,74.3345059 18.8225308,68.3854471 C12.5050692,62.1775647 8.57414615,53.4836824 8.57414615,43.8528588 C8.57414615,40.9126235 8.93899231,38.0578 9.62683846,35.3336824 C13.3589923,20.5962706 26.5326846,9.70238824 42.2171462,9.70238824 C51.3108385,9.70238824 59.5571462,13.3725059 65.6117615,19.3228588 C71.9279154,25.5294471 75.8614538,34.2246235 75.8614538,43.8528588 C75.8614538,46.7956824 75.4926846,49.6492118 74.8035308,52.3720353 M74.8571462,16.6776824 C67.1156077,7.10897647 55.3699154,1.00203529 42.2171462,1.00203529 C20.8664538,1.00203529 3.22045385,17.0892118 0.398453846,37.9762706 C0.138223077,39.8967412 -0.000392307692,41.8573294 -0.000392307692,43.8528588 C-0.000392307692,54.1695647 3.59445385,63.6347412 9.57583846,71.0293294 L11.3948385,70.5090941 L9.57583846,71.0293294 C17.3186846,80.6006235 29.0630692,86.7062706 42.2171462,86.7062706 C63.5652231,86.7062706 81.2112231,70.6178 84.0358385,49.7320353 C84.2947615,47.8102706 84.4320692,45.8470941 84.4320692,43.8528588 C84.4320692,33.5387412 80.8411462,24.0735647 74.8571462,16.6776824" id="Fill-1" fill="#FFBD1A" mask="url(#mask-17)"></path>
                        </g>
                        <path d="M66.7684508,19.0478624 C60.4143699,12.9598528 51.7601941,9.20350588 42.2167215,9.20350588 C25.7564956,9.20350588 11.9312233,20.3494095 8.01447458,35.4290836 C7.29260708,38.2162215 6.90971538,41.1370891 6.90971538,44.1453444 C6.90971538,53.9989693 11.036437,62.8926536 17.6663646,69.2441504 C24.0204454,75.33216 32.6732489,79.0858588 42.2167215,79.0858588 C58.675575,79.0858588 72.503592,67.9426033 76.4148513,52.8616052 C77.1394636,50.0757913 77.5251,47.1562478 77.5251,44.1453444 C77.5251,34.2943676 73.397006,25.3980351 66.7684508,19.0478624" id="Fill-4" fill="#FFE337"></path>
                        <path d="M38.6606154,43.1893647 L46.1314615,43.1893647 C50.9764615,43.1893647 53.3996154,41.0864235 53.3996154,36.8805412 C53.3996154,34.8837176 52.7836923,33.2699529 51.5518462,32.0431294 C50.3226154,30.8163059 48.62,30.1938353 46.4479231,30.1744235 L38.6606154,30.1744235 L38.6606154,43.1893647 Z M47.8327692,59.2312471 L38.6606154,59.2312471 L38.6606154,64.7674824 L30.0076154,64.7674824 L30.0076154,59.2312471 L24.1530769,59.2312471 L24.1530769,52.2947765 L30.0076154,52.2947765 L30.0076154,50.1245412 L24.1530769,50.1245412 L24.1530769,43.1893647 L30.0076154,43.1893647 L30.0076154,23.2094824 L46.3328462,23.2094824 C49.4856923,23.2094824 52.2553846,23.7711294 54.6393077,24.8931294 C57.0232308,26.0164235 58.8736154,27.6198353 60.1917692,29.7033647 C61.5086154,31.7868941 62.1676923,34.1603059 62.1676923,36.8248941 C62.1676923,40.9350118 60.758,44.1793647 57.9412308,46.5579529 C55.1244615,48.9352471 51.2066154,50.1245412 46.189,50.1245412 L38.6606154,50.1245412 L38.6606154,52.2947765 L47.8327692,52.2947765 L47.8327692,59.2312471 Z" id="Fill-6" fill="#DD7F3F"></path>
                        <path d="M51.6008846,2.36215294 L6.62934615,67.1961529 C7.53426923,68.6313294 8.51503846,70.0095647 9.57557692,71.3218 C15.8603462,79.0916824 24.7827308,84.5748588 34.9552692,86.3659176 L78.9264231,22.9735647 C77.7351154,20.8538 76.3738077,18.8440353 74.8568846,16.9701529 C69.0141154,9.74897647 60.8894231,4.50262353 51.6008846,2.36215294" id="Fill-8" fill="#FFFFFF" opacity="0.3"></path>
                        <path d="M13.7289385,51.9448471 C18.7884,48.4274353 22.1622462,46.0423765 23.2463231,47.5927294 C24.3304,49.1417882 25.7165538,51.5268471 20.1745538,59.8739059 C14.6312462,68.2209647 11.5594769,73.7054353 11.5594769,73.7054353 C11.5594769,73.7054353 6.61901538,67.8624941 5.89716923,65.9549647 C5.17401538,64.0474353 10.2334769,53.4952 10.7160154,53.3166118 C11.1972462,53.1367294 13.7289385,51.9448471 13.7289385,51.9448471" id="Fill-10" fill="#FF8A54" opacity="0.1"></path>
                    </g>
                </g>
                <g id="Icons-/-Coin" transform="translate(737.713657, 2145.909002) rotate(-20.000000) translate(-737.713657, -2145.909002) translate(673.713657, 2079.909002)">
                    <g id="Group-12">
                        <g id="Group-3" transform="translate(0.000000, 0.437929)">
                            <mask id="mask-19" fill="white">
                                <use xlink:href="#path-18"></use>
                            </mask>
                            <g id="Clip-2"></g>
                            <path d="M112.645317,78.5580529 C107.03104,100.668053 87.1890708,117.006935 63.5740554,117.006935 C49.8800246,117.006935 37.4620554,111.501759 28.3445169,102.578171 C18.8311631,93.2663471 12.9116554,80.2255235 12.9116554,65.7792882 C12.9116554,61.3689353 13.4610708,57.0867 14.4968862,53.0005235 C20.1170708,30.8944059 39.9551015,14.5535824 63.5740554,14.5535824 C77.2680862,14.5535824 89.6860554,20.0587588 98.8035938,28.9842882 C108.314978,38.2941706 114.238425,51.3369353 114.238425,65.7792882 C114.238425,70.1935235 113.683102,74.4738176 112.645317,78.5580529 M112.726055,25.0165235 C101.068209,10.6634647 83.3805785,1.50305294 63.5740554,1.50305294 C31.4224246,1.50305294 4.84962462,25.6338176 0.600024615,56.9644059 C0.208147692,59.8451118 -0.000590769231,62.7859941 -0.000590769231,65.7792882 C-0.000590769231,81.2543471 5.41282462,95.4521118 14.4200862,106.543994 L17.1592862,105.763641 L14.4200862,106.543994 C26.0799015,120.900935 43.7655631,130.059406 63.5740554,130.059406 C95.7217477,130.059406 122.294548,105.9267 126.548086,74.5980529 C126.937994,71.7154059 127.144763,68.7706412 127.144763,65.7792882 C127.144763,50.3081118 121.737255,36.1103471 112.726055,25.0165235" id="Fill-1" fill="#FFBD1A" mask="url(#mask-19)"></path>
                        </g>
                        <path d="M100.545432,28.5717936 C90.9769336,19.4397792 77.9447629,13.8052588 63.5734159,13.8052588 C38.7862522,13.8052588 17.9670187,30.5241143 12.0688558,53.1436254 C10.9818083,57.3243323 10.4052185,61.7056336 10.4052185,66.2180166 C10.4052185,80.998454 16.6195757,94.3389805 26.6034667,103.866226 C36.1719649,112.99824 49.2020689,118.628788 63.5734159,118.628788 C88.358513,118.628788 109.18188,101.913905 115.071776,79.2924078 C116.162957,75.113687 116.74368,70.7343717 116.74368,66.2180166 C116.74368,51.4415513 110.527256,38.0970527 100.545432,28.5717936" id="Fill-4" fill="#FFE337"></path>
                        <path d="M58.2183385,64.7840471 L69.4685538,64.7840471 C76.7645538,64.7840471 80.4135385,61.6296353 80.4135385,55.3208118 C80.4135385,52.3255765 79.4860308,49.9049294 77.6310154,48.0646941 C75.7799385,46.2244588 73.216,45.2907529 69.9451077,45.2616353 L58.2183385,45.2616353 L58.2183385,64.7840471 Z M72.0305231,88.8468706 L58.2183385,88.8468706 L58.2183385,97.1512235 L45.1879385,97.1512235 L45.1879385,88.8468706 L36.3716923,88.8468706 L36.3716923,78.4421647 L45.1879385,78.4421647 L45.1879385,75.1868118 L36.3716923,75.1868118 L36.3716923,64.7840471 L45.1879385,64.7840471 L45.1879385,34.8142235 L69.7718154,34.8142235 C74.5196308,34.8142235 78.6904615,35.6566941 82.2803692,37.3396941 C85.8702769,39.0246353 88.6567385,41.4297529 90.6417231,44.5550471 C92.6247385,47.6803412 93.6172308,51.2404588 93.6172308,55.2373412 C93.6172308,61.4025176 91.4944,66.2690471 87.2526769,69.8369294 C83.0109538,73.4028706 77.1111385,75.1868118 69.5552,75.1868118 L58.2183385,75.1868118 L58.2183385,78.4421647 L72.0305231,78.4421647 L72.0305231,88.8468706 Z" id="Fill-6" fill="#DD7F3F"></path>
                        <path d="M77.7048615,3.54322941 L9.98301538,100.794229 C11.3457231,102.946994 12.8226462,105.014347 14.4196923,106.9827 C23.8838154,118.637524 37.3198769,126.862288 52.6385231,129.548876 L118.853908,34.4603471 C117.059938,31.2807 115.009969,28.2660529 112.725662,25.4552294 C103.927138,14.6234647 91.6923077,6.75393529 77.7048615,3.54322941" id="Fill-8" fill="#FFFFFF" opacity="0.3"></path>
                        <path d="M20.6741662,77.9172706 C28.29312,72.6411529 33.3737354,69.0635647 35.0062277,71.3890941 C36.63872,73.7126824 38.7261046,77.2902706 30.3805046,89.8108588 C22.0329354,102.331447 17.4072123,110.558153 17.4072123,110.558153 C17.4072123,110.558153 9.96745846,101.793741 8.88044308,98.9324471 C7.79145846,96.0711529 15.4104123,80.2428 16.1370585,79.9749176 C16.8617354,79.7050941 20.6741662,77.9172706 20.6741662,77.9172706" id="Fill-10" fill="#FF8A54" opacity="0.1"></path>
                    </g>
                </g>
            </g>
        </g>
    </g>
</svg>