<svg xmlns="http://www.w3.org/2000/svg" xmlns:xlink="http://www.w3.org/1999/xlink" width="162" height="227" viewBox="0 0 162 227">
    <defs>
        <path id="a" d="M0 .33h28.806v28.244H0z"/>
        <path id="c" d="M0 .001h55.234v42.732H0z"/>
        <path id="e" d="M0 0h44.713v34.503H0z"/>
        <path id="g" d="M0 .262h21.853v22.4H0z"/>
        <path id="i" d="M0 .319h27.813v27.27H0z"/>
    </defs>
    <g fill="none" fill-rule="evenodd">
        <g transform="rotate(-20 521.451 -220.997)">
            <mask id="b" fill="#fff">
                <use xlink:href="#a"/>
            </mask>
            <path fill="#FFBD1A" d="M25.521 17.259c-1.272 4.857-5.767 8.447-11.118 8.447a11.56 11.56 0 0 1-7.981-3.17c-2.156-2.046-3.497-4.91-3.497-8.084 0-.97.125-1.91.36-2.808 1.273-4.857 5.767-8.447 11.118-8.447 3.103 0 5.916 1.21 7.982 3.17 2.155 2.046 3.497 4.912 3.497 8.085 0 .97-.126 1.91-.36 2.807m.017-11.763A14.486 14.486 0 0 0 14.403.33C7.12.33 1.1 5.632.136 12.515a13.9 13.9 0 0 0 3.131 10.892l.62-.171-.62.171a14.485 14.485 0 0 0 11.136 5.167c7.284 0 13.304-5.302 14.268-12.185A13.895 13.895 0 0 0 25.54 5.496" mask="url(#b)"/>
        </g>
        <path fill="#FFE337" d="M130.553 163.036c-2.723-1.144-5.921-1.297-8.98-.183-5.278 1.92-8.454 6.985-8.01 12.112.082.947.289 1.896.628 2.828 1.11 3.051 3.436 5.324 6.277 6.517 2.724 1.144 5.92 1.297 8.98.183 5.277-1.92 8.455-6.985 8.009-12.111a11.028 11.028 0 0 0-.627-2.83c-1.11-3.05-3.436-5.323-6.277-6.516"/>
        <path fill="#DD7F3F" d="M124.263 173.792l2.395-.872c1.553-.565 2.093-1.5 1.619-2.802-.225-.618-.605-1.046-1.138-1.282-.532-.236-1.148-.23-1.847.017l-2.496.909 1.467 4.03zm4.748 3.897l-2.94 1.07.624 1.715-2.775 1.01-.624-1.715-1.876.684-.782-2.149 1.877-.683-.245-.672-1.877.683-.782-2.147 1.877-.683-2.252-6.188 5.234-1.905c1.011-.367 1.962-.517 2.853-.447.891.07 1.665.35 2.322.841.657.492 1.136 1.15 1.437 1.975.463 1.273.377 2.442-.258 3.507s-1.758 1.89-3.366 2.476l-2.414.879.245.672 2.94-1.07.782 2.147z"/>
        <path fill="#FFF" d="M123.81 159.639l-7.11 25.325c.451.339.92.651 1.409.934a14.45 14.45 0 0 0 9.832 1.697l6.952-24.762a14.19 14.19 0 0 0-1.981-1.384 14.446 14.446 0 0 0-9.102-1.81" opacity=".3"/>
        <path fill="#FF8A54" d="M117.256 179.413c1.226-1.68 2.039-2.812 2.561-2.459.522.353 1.235.93.4 4.162-.837 3.231-1.204 5.288-1.204 5.288s-2.242-1.233-2.688-1.74c-.447-.505-.015-4.364.12-4.475.134-.112.811-.776.811-.776" opacity=".1"/>
        <g>
            <g transform="rotate(-170 38.479 112.002)">
                <mask id="d" fill="#fff">
                    <use xlink:href="#c"/>
                </mask>
                <path fill="#FFC000" d="M12.84.003c-1.318.046-2.351.78-2.934 1.282L.062 27.498a.975.975 0 0 0 .359 1.14l19.685 13.966 24.547.13a.865.865 0 0 0 .815-.541l9.29-23.806.355-1.016a2.141 2.141 0 0 0-1.087-2.632 9.588 9.588 0 0 0-2.516-.84c-5.686-1.036-8.988 3.905-15.433 4.343-4.614.314-8.313-1.786-9.358-2.507C19.935 11.055 18.14-.18 12.839.003" mask="url(#d)"/>
            </g>
            <path fill="#FFE6B3" d="M43.195 226.374c1.207.17 2.269-.348 2.881-.721L60.14 201.6l-16.031-16.85-23.234-4.096-12.82 21.882-.064 4.235c15.19-3.287 21.88-.562 25.152 2.733 5.408 5.445 5.197 16.189 10.053 16.87"/>
            <path fill="#F9F7E1" d="M56.388 204.708l-13.206 22.254c-1.854-.504-6.194-1.95-9.899-5.944a20.05 20.05 0 0 1-4.598-8.19c-2.512.446-8.095 1.071-14.187-1.483a24.12 24.12 0 0 1-6.471-4.025l13.218-22.154a20.528 20.528 0 0 0 7.809 4.713c5.956 1.958 11.085.59 12.9.013a18.662 18.662 0 0 0 3.298 7.452c3.856 5.2 9.324 6.886 11.136 7.364"/>
            <path stroke="#F6BE4E" stroke-linecap="round" stroke-width="2" d="M42.386 221.393c-1.851-.506-2.713-1.289-3.157-1.918-.407-.576-.265-.74-.725-1.296-1.014-1.22-2.104-.823-2.9-1.873-.618-.813-.265-1.44-1.029-1.98-.427-.303-.689-.213-1.242-.463-.515-.232-1.16-.703-1.703-1.76M27.326 209.454c-1.622.278-2.61-.02-3.217-.35-.555-.302-.518-.482-1.105-.748-1.292-.585-1.949.122-3.003-.408-.817-.41-.818-1.029-1.628-1.173-.454-.08-.614.085-1.141.09-.49.007-1.182-.127-2.045-.754M27.932 206.265c-1.623.066-2.571-.291-3.14-.635-.52-.315-.468-.464-1.023-.751-1.222-.633-1.931-.101-2.924-.662-.768-.434-.714-.96-1.5-1.167-.44-.117-.613.007-1.133-.043-.483-.046-1.154-.232-1.949-.856M29.85 204.715c-1.619-.055-2.476-.597-2.962-1.088-.444-.45-.358-.638-.843-1.055-1.065-.92-1.886-.297-2.74-1.105-.663-.625-.493-1.297-1.223-1.632-.409-.187-.607-.043-1.11-.153-.467-.101-1.088-.398-1.735-1.27M31.598 201.57c-1.682.02-2.603-.474-3.136-.938-.488-.424-.41-.614-.938-1.004-1.16-.86-1.973-.206-2.908-.964-.725-.588-.588-1.26-1.366-1.557-.435-.167-.632-.015-1.16-.1-.49-.078-1.152-.343-1.875-1.174M33.163 198.036c-1.622.073-2.571-.284-3.14-.63-.52-.315-.468-.466-1.023-.754-1.222-.633-1.931-.095-2.923-.657-.769-.435-.716-.966-1.502-1.172-.44-.116-.612.01-1.132-.04-.483-.044-1.154-.23-1.95-.856M35.297 194.215c-1.641.651-2.636.38-3.245.003-.557-.345-.517-.609-1.107-.897-1.297-.635-1.97.479-3.028-.115-.82-.46-.813-1.344-1.63-1.423-.457-.044-.621.217-1.154.308-.494.085-1.192.003-2.056-.76M44.44 217.643c-1.85-.506-2.712-1.29-3.157-1.918-.406-.576-.264-.74-.725-1.296-1.013-1.22-2.103-.823-2.9-1.873-.617-.813-.264-1.44-1.028-1.98-.427-.303-.69-.213-1.243-.463-.514-.232-1.16-.703-1.702-1.76M47.034 214.384c-1.851-.507-2.713-1.29-3.157-1.919-.407-.575-.265-.74-.725-1.295-1.014-1.22-2.104-.823-2.9-1.873-.618-.813-.265-1.44-1.029-1.981-.427-.302-.689-.212-1.242-.462-.515-.232-1.161-.704-1.703-1.76M49.707 210.421c-1.852-.506-2.713-1.289-3.158-1.918-.406-.576-.264-.74-.725-1.296-1.014-1.22-2.104-.823-2.9-1.873-.617-.813-.264-1.44-1.028-1.98-.427-.303-.69-.213-1.243-.463-.514-.232-1.16-.703-1.702-1.76M51.488 207.78c-1.851-.507-2.713-1.29-3.157-1.92-.406-.575-.264-.74-.725-1.294-1.014-1.221-2.104-.824-2.9-1.874-.618-.813-.265-1.44-1.029-1.98-.427-.302-.689-.213-1.243-.463-.514-.232-1.16-.703-1.702-1.759"/>
        </g>
        <g>
            <g transform="rotate(10 42.52 423.247)">
                <mask id="f" fill="#fff">
                    <use xlink:href="#e"/>
                </mask>
                <path fill="#FFC000" d="M10.394.003c-1.067.036-1.903.63-2.375 1.034L.049 22.202a.786.786 0 0 0 .292.921L16.276 34.4l19.872.104a.7.7 0 0 0 .66-.436l7.52-19.221c.095-.274.191-.547.288-.82a1.727 1.727 0 0 0-.88-2.126 7.776 7.776 0 0 0-2.037-.677c-4.603-.838-7.277 3.152-12.494 3.506-3.735.253-6.73-1.442-7.575-2.024C16.138 8.925 14.686-.145 10.394.003" mask="url(#f)"/>
            </g>
            <path fill="#FFE6B3" d="M85.566 1.072c-.981-.137-1.843.28-2.34.58L71.816 21.07l13.044 13.626 18.887 3.33 10.4-17.666.049-3.42c-12.343 2.641-17.783.434-20.445-2.231-4.4-4.404-4.239-13.083-8.186-13.637"/>
            <path fill="#F9F7E1" d="M74.926 19.104L85.613 1.196c1.504.409 5.025 1.577 8.034 4.797a16.162 16.162 0 0 1 3.737 6.6c2.038-.356 6.564-.854 11.508 1.21a19.649 19.649 0 0 1 5.252 3.248l-10.697 17.826a16.723 16.723 0 0 0-6.338-3.804c-4.832-1.583-8.99-.486-10.462-.023a15.014 15.014 0 0 0-2.682-6.005c-3.133-4.192-7.57-5.555-9.04-5.941"/>
            <path stroke="#F6BE4E" stroke-linecap="round" stroke-width="2" d="M86.176 5.633c1.5.413 2.197 1.057 2.556 1.576.328.474.213.61.585 1.067.82 1.005 1.704.675 2.348 1.539.499.67.21 1.189.829 1.633.345.248.558.173 1.007.378.416.19.94.578 1.376 1.449M98.611 15.478c1.322-.218 2.129.023 2.624.289.453.243.424.387.903.601 1.055.472 1.589-.092 2.45.335.666.33.669.826 1.33.943.37.066.5-.066.93-.07.4-.003.964.106 1.67.61M97.723 17.886c1.318-.07 2.086.229 2.545.519.42.265.376.393.825.635.987.531 1.568.07 2.37.542.62.366.572.817 1.21.988.355.096.497-.012.918.027.392.036.936.19 1.577.717M96.572 19.104c1.294.048 1.98.475 2.37.863.356.355.288.502.677.832.854.725 1.509.237 2.194.874.532.494.397 1.022.982 1.287.327.148.485.035.887.122.374.081.871.316 1.39 1.003M94.91 21.621c1.364-.024 2.11.385 2.54.77.395.35.331.509.758.832.938.71 1.6.163 2.356.791.586.487.472 1.047 1.103 1.291.352.137.512.01.94.078.398.064.934.282 1.517.971M93.485 24.2c1.317-.075 2.085.223 2.545.514.42.265.376.395.825.637.987.532 1.567.066 2.368.54.622.366.574.82 1.211.99.357.096.497-.013.92.025.391.035.934.188 1.576.717M91.725 27.282c1.305-.334 2.12-.132 2.627.119.463.23.44.388.928.585 1.074.433 1.577-.218 2.455.18.68.31.708.846 1.372.924.371.044.494-.108.922-.144.397-.033.965.042 1.692.537M84.22 8.472c1.5.413 2.197 1.057 2.556 1.575.328.475.212.611.585 1.068.819 1.005 1.704.674 2.348 1.539.498.67.21 1.189.829 1.633.345.248.558.173 1.006.378.417.19.94.578 1.377 1.448M82.263 11.31c1.5.414 2.197 1.058 2.556 1.576.328.475.213.61.585 1.068.82 1.005 1.705.674 2.348 1.539.5.67.211 1.189.83 1.633.345.248.558.173 1.006.378.417.19.94.578 1.377 1.448M80.306 14.15c1.501.413 2.198 1.057 2.557 1.575.328.474.213.61.585 1.068.82 1.005 1.704.674 2.348 1.539.499.67.21 1.189.829 1.632.345.249.558.174 1.007.379.416.19.94.577 1.376 1.448M79.005 16.36c1.5.412 2.197 1.056 2.556 1.575.328.474.212.61.585 1.067.819 1.005 1.704.675 2.348 1.54.499.669.21 1.188.829 1.632.346.248.559.174 1.007.378.417.191.94.578 1.376 1.449"/>
        </g>
        <g>
            <g transform="rotate(-30 104.909 36.034)">
                <mask id="h" fill="#fff">
                    <use xlink:href="#g"/>
                </mask>
                <path fill="#FFBD1A" d="M19.36 13.688c-.964 3.853-4.374 6.7-8.433 6.7-2.354 0-4.488-.96-6.055-2.515a9.005 9.005 0 0 1-2.653-6.411c0-.769.095-1.515.273-2.227.966-3.852 4.375-6.7 8.435-6.7 2.353 0 4.488.96 6.055 2.515a9.006 9.006 0 0 1 2.653 6.412c0 .769-.096 1.514-.274 2.226m.014-9.33C17.37 1.859 14.33.263 10.927.263 5.4.262.834 4.466.103 9.926A11.54 11.54 0 0 0 0 11.462c0 2.696.93 5.17 2.478 7.102l.471-.135-.47.135c2.003 2.502 5.043 4.098 8.448 4.098 5.525 0 10.092-4.205 10.823-9.664.067-.502.103-1.015.103-1.536 0-2.696-.93-5.17-2.478-7.103" mask="url(#h)"/>
            </g>
            <path fill="#FFE337" d="M13.455 52.887A9.143 9.143 0 0 0 2.426 64.198a9.16 9.16 0 0 0 .892 2.116 9.099 9.099 0 0 0 5.69 4.289c2.22.556 4.65.286 6.79-.95a9.14 9.14 0 0 0 4.238-10.36 9.12 9.12 0 0 0-.89-2.118 9.1 9.1 0 0 0-5.69-4.288"/>
            <path fill="#DD7F3F" d="M10.31 61.989l1.674-.967c1.086-.627 1.355-1.417.805-2.369-.26-.452-.61-.737-1.046-.856-.436-.118-.9-.039-1.389.238L8.61 59.043l1.7 2.946zm4.152 2.444l-2.056 1.187.724 1.253-1.94 1.12-.723-1.254-1.313.758-.906-1.57 1.312-.758-.283-.49-1.313.757-.906-1.57 1.312-.758-2.61-4.522 3.658-2.113c.707-.408 1.401-.639 2.082-.694a3.349 3.349 0 0 1 1.874.37c.567.302 1.025.754 1.373 1.357.537.93.645 1.847.325 2.75-.321.903-1.044 1.679-2.168 2.328l-1.688.974.284.492 2.056-1.187.906 1.57z"/>
            <path fill="#FFF" d="M7.875 51.073L6.267 71.568c.39.207.79.393 1.2.552 2.424.946 5.14 1.032 7.655.121l1.571-20.039a11.273 11.273 0 0 0-1.696-.832 10.89 10.89 0 0 0-7.122-.297" opacity=".3"/>
            <path fill="#FF8A54" d="M5.866 67.197c.674-1.451 1.119-2.428 1.564-2.217.446.21 1.068.57.917 3.177-.152 2.607-.124 4.246-.124 4.246s-1.871-.683-2.282-1.021c-.411-.339-.656-3.382-.572-3.485.085-.103.497-.7.497-.7" opacity=".1"/>
        </g>
        <g>
            <g transform="rotate(10 -92.133 795.981)">
                <mask id="j" fill="#fff">
                    <use xlink:href="#i"/>
                </mask>
                <path fill="#FFBD1A" d="M24.641 16.664c-1.228 4.69-5.568 8.156-10.734 8.156A11.161 11.161 0 0 1 6.2 21.759c-2.08-1.975-3.376-4.741-3.376-7.806 0-.935.12-1.844.347-2.71 1.23-4.69 5.57-8.156 10.736-8.156a11.16 11.16 0 0 1 7.706 3.061c2.08 1.975 3.377 4.742 3.377 7.805 0 .937-.122 1.844-.349 2.71m.018-11.356A13.987 13.987 0 0 0 13.907.319C6.874.319 1.06 5.437.13 12.083A13.42 13.42 0 0 0 3.154 22.6l.6-.165-.6.165a13.985 13.985 0 0 0 10.753 4.988c7.032 0 12.845-5.119 13.775-11.764a13.416 13.416 0 0 0-3.024-10.517" mask="url(#j)"/>
            </g>
            <path fill="#FFE337" d="M157.445 37.788c-1.725-2.271-4.325-3.943-7.421-4.49-5.34-.94-10.44 1.76-12.544 6.262a10.693 10.693 0 0 0-.84 2.668c-.545 3.088.303 6.11 2.102 8.48 1.725 2.271 4.325 3.942 7.42 4.488 5.34.942 10.442-1.759 12.544-6.26.389-.832.675-1.725.842-2.669.544-3.086-.304-6.11-2.103-8.48"/>
            <path fill="#DD7F3F" d="M146.993 43.745l2.423.427c1.572.277 2.474-.243 2.707-1.561.11-.626 0-1.167-.333-1.621-.33-.455-.848-.748-1.552-.878l-2.526-.445-.72 4.078zm2.089 5.551l-2.976-.525-.306 1.735-2.807-.495.306-1.735-1.9-.334.384-2.174 1.9.335.12-.68-1.9-.335.383-2.173 1.9.335 1.103-6.26 5.296.933c1.023.18 1.89.515 2.602 1.003.711.488 1.223 1.096 1.536 1.825.312.728.394 1.51.247 2.344-.227 1.288-.864 2.224-1.909 2.808-1.045.584-2.382.733-4.01.446l-2.442-.431-.12.68 2.976.525-.383 2.173z"/>
            <path fill="#FFF" d="M153.446 31.692l-18.171 17.743c.214.501.456.99.728 1.461a13.952 13.952 0 0 0 7.402 6.166l17.767-17.349a13.7 13.7 0 0 0-.988-2.113 13.948 13.948 0 0 0-6.738-5.908" opacity=".3"/>
            <path fill="#FF8A54" d="M138.42 45.062c1.837-.813 3.063-1.367 3.329-.82.266.548.584 1.375-1.675 3.673-2.26 2.299-3.56 3.842-3.56 3.842s-1.28-2.114-1.408-2.753c-.13-.639 2.095-3.656 2.262-3.684.166-.03 1.053-.258 1.053-.258" opacity=".1"/>
        </g>
        <g font-family="Roboto-Bold, Roboto" font-weight="bold">
            <text fill="#FFC000" font-size="30" transform="translate(10 71)">
                <tspan x="0" y="43">100 000₽</tspan>
            </text>
            <text fill="#416BE5" font-size="15" transform="translate(10 71)">
                <tspan x="26.171" y="14">Суперприз!</tspan>
            </text>
            <text fill="#416BE5" font-size="13" transform="translate(10 71)">
                <tspan x="4.713" y="59">на оплату обучения </tspan> <tspan x="23.01" y="74">в любом вузе</tspan>
            </text>
        </g>
    </g>
</svg>
